<?xml version="1.0" encoding="utf-8"?>
<!-- Generator: Adobe Illustrator 16.0.0, SVG Export Plug-In . SVG Version: 6.00 Build 0)  -->
<!DOCTYPE svg PUBLIC "-//W3C//DTD SVG 1.1//EN" "http://www.w3.org/Graphics/SVG/1.1/DTD/svg11.dtd">
<svg version="1.1" id="Layer_1" xmlns="http://www.w3.org/2000/svg" xmlns:xlink="http://www.w3.org/1999/xlink" x="0px" y="0px"
	 width="168px" height="25px" viewBox="0 0 168 25" enable-background="new 0 0 168 25" xml:space="preserve">
<g>
	<path fill="none" stroke="#000000" stroke-width="0.0608" stroke-miterlimit="2.6131" d="M55.4,21.951"/>
	<path fill="#0073AE" d="M7.7,13.351l-1.2,6.9H0L3.4,0.45h9.4c1.4,0,2.7,0.1,3.7,0.3s1.8,0.399,2.5,0.8c0.6,0.4,1.1,0.8,1.4,1.301
		c0.3,0.5,0.4,1.199,0.4,1.899c0,0.4,0,0.8-0.1,1.4c-0.2,1.1-0.6,2.2-1.3,3c-0.7,0.899-1.6,1.5-2.9,1.8c0.4,0.1,0.8,0.3,1.1,0.5
		c0.3,0.2,0.6,0.4,0.8,0.6c0.2,0.2,0.4,0.5,0.5,0.901c0.1,0.3,0.2,0.799,0.2,1.299c0,0.6-0.1,1.2-0.2,2c-0.1,0.7-0.2,1.3-0.3,1.7
		c-0.1,0.501-0.1,0.801-0.1,1.101c0,0.399,0.2,0.699,0.5,0.699l-0.1,0.6h-6.6c0-0.199-0.1-0.399-0.1-0.6c0-0.3,0-0.699,0.1-1.199
		c0-0.501,0.101-1.001,0.2-1.601c0.1-0.6,0.2-1.1,0.2-1.5c0-0.7-0.2-1.2-0.7-1.5c-0.4-0.3-1.2-0.399-2.4-0.399H7.7V13.351z
		 M8.5,9.05H11c1,0,1.799-0.1,2.399-0.399s0.9-0.8,1-1.5c0-0.101,0-0.2,0-0.4c0-0.6-0.2-1-0.6-1.3c-0.4-0.3-1-0.4-1.7-0.4h-3
		L8.5,9.05z"/>
	<path fill="#0073AE" d="M29.9,5.85h5.2L34.7,8.15c0.8-0.9,1.6-1.5,2.5-2c0.8-0.501,1.8-0.7,2.9-0.7c1.6,0,2.8,0.399,3.6,1.1
		c0.8,0.801,1.101,1.801,1.101,3.3c0,0.601-0.101,1.2-0.2,1.801l-1.5,8.699h-5.7l1.3-7.6c0.1-0.3,0.1-0.7,0.1-1
		c0-0.5-0.1-0.9-0.4-1.2c-0.2-0.3-0.7-0.5-1.3-0.5c-0.9,0-1.5,0.3-1.9,0.8c-0.4,0.501-0.7,1.301-0.8,2.2l-1.3,7.4h-5.7L29.9,5.85z"
		/>
	<path fill="#0073AE" d="M50.2,20.65L50.2,20.65c0,0.3,0.1,0.5,0.3,0.6c0.2,0.2,0.6,0.401,1.2,0.401c0.8,0,1.4-0.201,1.9-0.602
		c0.4-0.399,0.7-1.1,0.9-2.199l0.2-1.2c-0.5,0.399-1.1,0.801-1.8,1.101s-1.6,0.5-2.6,0.5c-0.9,0-1.6-0.101-2.3-0.4
		c-0.7-0.3-1.2-0.7-1.6-1.101c-0.4-0.5-0.8-0.999-1-1.699c-0.2-0.7-0.3-1.4-0.3-2.101c0-0.2,0-0.5,0-0.699
		c0-0.201,0.1-0.501,0.1-0.701c0.1-0.899,0.4-1.8,0.8-2.6c0.4-0.9,0.9-1.7,1.5-2.4c0.6-0.699,1.4-1.2,2.3-1.7
		c0.9-0.399,1.9-0.6,3.1-0.6c0.9,0,1.7,0.2,2.4,0.6c0.7,0.4,1.2,1.001,1.6,1.7l0.3-1.9h5l-2,11.601c-0.2,1.1-0.4,2.101-0.7,3.001
		c-0.3,0.899-0.7,1.799-1.4,2.499c-0.6,0.7-1.5,1.2-2.6,1.601c-1.1,0.399-2.5,0.6-4.3,0.6c-1.2,0-2.3-0.1-3.2-0.3
		s-1.6-0.501-2.1-0.899c-0.5-0.4-0.9-0.801-1.2-1.301c-0.2-0.499-0.399-1-0.399-1.5v-0.2h5.9V20.65z M53.6,9.15
		c-0.4,0-0.8,0.1-1.1,0.199c-0.3,0.2-0.6,0.4-0.8,0.7c-0.2,0.3-0.4,0.601-0.5,1.101c-0.1,0.399-0.2,0.8-0.3,1.3c0,0.1,0,0.3,0,0.4
		s0,0.199,0,0.3c0,0.6,0.1,1.1,0.4,1.5c0.3,0.4,0.7,0.6,1.4,0.7H52.8c0.399,0,0.8-0.101,1.1-0.3c0.3-0.201,0.6-0.4,0.8-0.7
		s0.4-0.601,0.6-1c0.1-0.399,0.3-0.7,0.3-1.101c0.1-0.3,0.1-0.6,0.1-0.899c0-0.601-0.1-1.101-0.4-1.601
		C54.9,9.35,54.4,9.15,53.6,9.15L53.6,9.15z"/>
	<path fill="#F8971D" d="M75.6,8.15c0-0.101,0-0.101,0-0.2c0,0,0-0.1,0-0.2c0-0.899-0.199-1.5-0.7-2c-0.5-0.5-1.2-0.7-2.1-0.7
		c-1.1,0-2,0.5-2.8,1.4c-0.8,0.9-1.3,2.3-1.6,4.1c-0.1,0.3-0.1,0.7-0.2,1c0,0.301-0.1,0.601-0.1,0.9c0,0.501,0,0.9,0.1,1.3
		c0.1,0.4,0.3,0.7,0.5,1c0.2,0.301,0.5,0.5,0.9,0.7c0.4,0.2,0.9,0.2,1.5,0.2c1,0,1.8-0.3,2.4-0.9c0.6-0.6,1-1.399,1.3-2.3h5.9
		c-0.3,1.2-0.9,2.3-1.5,3.3c-0.7,1.001-1.4,1.8-2.3,2.4c-0.9,0.7-1.9,1.2-3,1.5c-1.1,0.399-2.3,0.5-3.5,0.5c-1.4,0-2.6-0.2-3.6-0.5
		c-1-0.3-1.9-0.899-2.6-1.5c-0.7-0.7-1.3-1.5-1.6-2.4c-0.4-0.9-0.6-2-0.6-3.2c0-0.3,0-0.699,0.1-1.1c0-0.4,0.1-0.8,0.2-1.2
		c0.3-1.5,0.7-2.899,1.4-4.1c0.7-1.2,1.5-2.2,2.5-3.101c1-0.899,2.1-1.5,3.3-2s2.5-0.699,3.8-0.699c2.7,0,4.8,0.6,6.1,1.8
		c1.3,1.2,2,2.899,2,5.1c0,0.101,0,0.3,0,0.4c0,0.1,0,0.3,0,0.399h-5.8V8.15z"/>
	<path fill="#F8971D" d="M87.4,13.95c0,0.101,0,0.2,0,0.3c0,0.101,0,0.2,0,0.3c0,0.7,0.2,1.301,0.699,1.7c0.501,0.4,1,0.6,1.7,0.6
		c0.501,0,0.9-0.099,1.301-0.3c0.399-0.199,0.799-0.499,1-0.999h5.5c-0.4,0.9-0.9,1.699-1.602,2.3
		c-0.699,0.601-1.399,1.099-2.198,1.5c-0.801,0.399-1.602,0.6-2.501,0.8c-0.899,0.199-1.7,0.199-2.601,0.199
		c-0.999,0-2-0.099-2.799-0.399c-0.9-0.3-1.601-0.6-2.2-1.199c-0.6-0.501-1.1-1.101-1.5-1.901c-0.399-0.699-0.5-1.6-0.5-2.6
		c0-0.199,0-0.5,0-0.699c0-0.2,0.101-0.501,0.101-0.801c0.2-1.2,0.6-2.2,1.2-3.2c0.6-1,1.3-1.8,2.2-2.5
		c0.899-0.7,1.799-1.2,2.899-1.6c1.101-0.4,2.201-0.5,3.301-0.5c1.199,0,2.199,0.2,3.1,0.5c0.899,0.3,1.6,0.8,2.2,1.4
		c0.601,0.6,1.1,1.3,1.399,2.199c0.301,0.8,0.5,1.8,0.5,2.801c0,0.6-0.1,1.3-0.199,2.1H87.4z M93.1,11.05c0-0.1,0-0.2,0-0.399
		c0-0.601-0.2-1.101-0.6-1.5C92.101,8.75,91.6,8.55,91,8.55c-0.9,0-1.601,0.2-2.1,0.7c-0.501,0.5-0.9,1.1-1,1.8H93.1z"/>
	<path fill="#F8971D" d="M100.5,5.85h5.2l-0.4,2.301c0.8-0.9,1.601-1.5,2.5-2c0.8-0.4,1.8-0.7,2.9-0.7c1.6,0,2.8,0.399,3.6,1.1
		c0.8,0.801,1.101,1.801,1.101,3.3c0,0.601-0.1,1.2-0.201,1.801l-1.5,8.699H108l1.3-7.6c0.1-0.3,0.1-0.7,0.1-1
		c0-0.5-0.1-0.9-0.3-1.2c-0.199-0.3-0.699-0.5-1.3-0.5c-0.899,0-1.499,0.3-1.9,0.8c-0.399,0.501-0.699,1.301-0.8,2.2l-1.3,7.4H98
		L100.5,5.85z"/>
	<path fill="#F8971D" d="M124.3,20.15c-0.6,0-1.2,0.101-1.8,0.101c-0.5,0-1,0-1.501,0c-0.899,0-1.599,0-2.198-0.101
		c-0.601-0.101-1.101-0.2-1.4-0.4c-0.3-0.199-0.601-0.499-0.7-0.801c-0.101-0.3-0.2-0.799-0.2-1.299c0-0.3,0-0.7,0.1-1.101
		c0-0.399,0.101-0.899,0.2-1.4l1-5.999h-2L116.4,5.85h2.101l0.799-4.5h5.7l-0.801,4.5H127l-0.6,3.301H123.6l-0.899,5.3
		c0,0.2-0.1,0.3-0.1,0.5c0,0.101,0,0.301,0,0.4c0,0.399,0.1,0.6,0.3,0.8c0.199,0.1,0.6,0.2,1.199,0.2h0.9L124.3,20.15z"/>
	<path fill="#F8971D" d="M127.999,5.85h5.2l-0.499,2.9h0.1c1.2-2.2,2.8-3.3,5-3.3c0.101,0,0.3,0,0.4,0s0.199,0,0.4,0.1l-1.001,5.7
		c-0.199,0-0.399-0.1-0.601-0.1c-0.199,0-0.399-0.101-0.6-0.101c-1.199,0-2.1,0.301-2.8,0.9s-1.199,1.7-1.399,3.3l-0.899,5.001
		H125.6L127.999,5.85z"/>
	<path fill="#F8971D" d="M146.2,20.35v-2c-0.9,0.801-1.9,1.301-2.801,1.601c-0.899,0.301-1.899,0.399-2.999,0.399
		c-0.601,0-1.2-0.099-1.701-0.199c-0.6-0.101-0.999-0.4-1.399-0.7c-0.399-0.3-0.7-0.699-1-1.101c-0.2-0.399-0.399-0.899-0.399-1.599
		c0-0.3,0-0.501,0.1-0.9c0.2-1.101,0.6-1.9,1.2-2.6c0.6-0.601,1.3-1.101,2.199-1.4c0.8-0.301,1.7-0.5,2.601-0.7
		c0.899-0.101,1.801-0.2,2.5-0.301c0.8-0.1,1.4-0.199,2-0.399c0.5-0.2,0.899-0.5,0.899-1V9.35v-0.1c0-0.2-0.099-0.4-0.199-0.5
		s-0.3-0.2-0.5-0.3s-0.4-0.1-0.601-0.1c-0.199,0-0.4,0-0.499,0c-0.201,0-0.4,0-0.7,0c-0.2,0-0.4,0.1-0.601,0.199
		c-0.199,0.101-0.4,0.2-0.601,0.4c-0.198,0.2-0.3,0.399-0.399,0.699H138c0.1-0.8,0.399-1.499,0.8-2.1c0.4-0.6,0.9-1.1,1.601-1.5
		c0.699-0.4,1.6-0.7,2.6-1c1-0.2,2.3-0.3,3.7-0.3c1.3,0,2.399,0.1,3.2,0.3c0.8,0.2,1.5,0.4,1.999,0.8c0.5,0.301,0.8,0.7,1.001,1.2
		c0.2,0.5,0.3,1,0.3,1.5c0,0.3,0,0.7-0.1,1.1c0,0.4-0.102,0.801-0.2,1.2l-1.2,6.801c0,0.3-0.101,0.6-0.101,0.801
		c0,0.198,0,0.399,0.101,0.498c0.1,0.201,0.199,0.302,0.399,0.501v0.7H146.2V20.35z M143.6,17.051c0.501,0,0.9-0.101,1.301-0.3
		c0.399-0.201,0.7-0.4,0.899-0.801c0.3-0.3,0.5-0.7,0.601-1.101c0.1-0.399,0.199-0.899,0.3-1.399c-0.5,0.2-1.001,0.4-1.601,0.5
		c-0.5,0.101-0.999,0.2-1.5,0.3c-0.399,0.101-0.8,0.3-1.199,0.5c-0.3,0.2-0.501,0.601-0.601,1v0.2c0,0.3,0.1,0.6,0.399,0.801
		C142.6,16.95,143,17.051,143.6,17.051z"/>
	<polygon fill="#F8971D" points="153.101,20.251 156.601,0.45 162.299,0.45 158.9,20.251 	"/>
	<polygon fill="#0073AE" points="20,20.251 23.2,8.55 27.3,8.55 25.7,20.251 	"/>
	<path fill="#F8971D" d="M29.4,3.351L29.4,3.351L29.3,3.25c-0.1-0.1-0.2-0.3-0.4-0.399C28.5,2.55,27.8,2.05,26.8,1.85
		c-0.5-0.1-1-0.1-1.4-0.1c-0.9,0.1-1.5,0.5-1.701,0.6c-0.1,0-0.1,0.101-0.1,0.101l0,0c-0.3,0.3-0.7,0.3-1,0c-0.3-0.3-0.3-0.7,0-1
		c0.1-0.101,0.9-0.9,2.6-1.1c0.5-0.101,1.1,0,1.7,0.1c2.6,0.5,3.5,2.2,3.6,2.3l0,0c0.2,0.3,0,0.7-0.3,0.9c-0.1,0-0.2,0.1-0.2,0.1
		C29.8,3.75,29.6,3.55,29.4,3.351z"/>
	<path fill="#F8971D" d="M27.8,4.85C27.7,4.85,27.8,4.85,27.8,4.85c-0.101-0.1-0.2-0.199-0.3-0.3c-0.2-0.199-0.6-0.399-1.2-0.5
		c-0.3-0.1-0.5-0.1-0.7,0c-0.5,0.101-0.8,0.301-0.9,0.301l0,0c-0.2,0.199-0.6,0.199-0.8,0c-0.2-0.2-0.2-0.601,0-0.801
		c0.1-0.1,0.6-0.6,1.6-0.699c0.3,0,0.7,0,1.1,0l0,0c1.6,0.3,2.2,1.3,2.3,1.399c0.1,0.3,0,0.6-0.3,0.8c-0.1,0-0.1,0.101-0.2,0.101
		C28.1,5.25,27.9,5.05,27.8,4.85z"/>
	<path fill="#F8971D" d="M27.3,6.25c0,0.7-0.7,1.3-1.5,1.3c-0.8,0-1.5-0.6-1.5-1.3s0.7-1.3,1.5-1.3C26.6,4.95,27.3,5.55,27.3,6.25"
		/>
	<g>
		<path fill="#F7971E" d="M164.399,1.25h1.201c0.499,0,0.8,0.3,0.8,0.7c0,0.5-0.301,0.6-0.4,0.6l0,0c0.2,0,0.4,0.101,0.4,0.5
			c0,0.301,0,0.601,0.1,0.7H166c0-0.1,0-0.2,0-0.3c0-0.5-0.1-0.7-0.501-0.7H164.8v1h-0.4V1.25L164.399,1.25z M164.899,2.45h0.701
			c0.3,0,0.399-0.101,0.399-0.4s-0.2-0.399-0.399-0.399h-0.701V2.45z"/>
	</g>
	<path fill="#F7971E" d="M165.4,5.25c-1.4,0-2.601-1.2-2.601-2.6c0-1.4,1.2-2.601,2.601-2.601c1.399,0,2.6,1.2,2.6,2.601
		C168,4.05,166.8,5.25,165.4,5.25L165.4,5.25z M165.4,0.55c-1.2,0-2.1,1-2.1,2.101c0,1.2,0.999,2.1,2.1,2.1c1.199,0,2.1-1,2.1-2.1
		C167.5,1.45,166.6,0.55,165.4,0.55L165.4,0.55z"/>
</g>
</svg>
