<?xml version="1.0" encoding="utf-8"?>
<!-- Generator: Adobe Illustrator 16.0.0, SVG Export Plug-In . SVG Version: 6.00 Build 0)  -->
<!DOCTYPE svg PUBLIC "-//W3C//DTD SVG 1.1//EN" "http://www.w3.org/Graphics/SVG/1.1/DTD/svg11.dtd">
<svg version="1.1" id="Layer_1" xmlns="http://www.w3.org/2000/svg" xmlns:xlink="http://www.w3.org/1999/xlink" x="0px" y="0px"
	 width="162px" height="80px" viewBox="0 0 162 80" enable-background="new 0 0 162 80" xml:space="preserve">
<g>
	<path fill="#444445" d="M8.353,45.039c0,0.205-0.054,0.453-0.163,0.744c-0.271,0.713-0.78,1.273-1.527,1.684
		c-0.683,0.365-1.43,0.549-2.243,0.549c-1.333,0-2.356-0.502-3.071-1.508c-0.617-0.877-0.926-2.008-0.926-3.393
		c0-1.146,0.179-2.223,0.537-3.229c0.4-1.146,0.991-2.045,1.771-2.693c0.618-0.509,1.246-0.763,1.885-0.763
		c0.92,0,1.619,0.4,2.096,1.202c0.39,0.65,0.585,1.469,0.585,2.454c0,0.443-0.114,1.001-0.341,1.673
		c-0.271,0.824-0.574,1.234-0.91,1.234c-0.379,0-0.666-0.236-0.861-0.716c0.108-0.073,0.26-0.198,0.455-0.373
		c0.217-0.237,0.325-0.702,0.325-1.397c0-0.671-0.071-1.24-0.211-1.706c-0.217-0.704-0.574-1.056-1.072-1.056
		c-0.347,0-0.726,0.222-1.138,0.665c-0.314,0.335-0.58,0.708-0.796,1.119c-0.531,1.038-0.796,2.331-0.796,3.877
		c0,2.248,0.845,3.373,2.535,3.373c0.726,0,1.3-0.205,1.723-0.613c0.173-0.184,0.428-0.564,0.764-1.146
		c0.228-0.42,0.471-0.629,0.731-0.629c0.173,0,0.325,0.068,0.455,0.203C8.288,44.73,8.353,44.879,8.353,45.039z"/>
	<path fill="#444445" d="M11.326,47.27c0,0.193-0.079,0.359-0.236,0.494c-0.157,0.137-0.338,0.203-0.544,0.203
		c-0.682,0-1.023-0.893-1.023-2.68c0-0.812,0.008-2.031,0.024-3.656c0.016-1.625,0.024-2.844,0.024-3.657
		c0-0.13-0.017-0.319-0.049-0.569c-0.033-0.249-0.049-0.433-0.049-0.553c0.357-0.238,0.639-0.357,0.845-0.357
		c0.238,0,0.466,0.079,0.683,0.236c0.217,0.157,0.325,0.354,0.325,0.593c0,0.119-0.027,0.26-0.082,0.423
		c-0.076,0.26-0.119,0.4-0.13,0.422c-0.141,0.672-0.211,1.625-0.211,2.86c0,1.962,0,2.97,0,3.021
		c0.032,1.365,0.146,2.318,0.341,2.861C11.299,47.062,11.326,47.182,11.326,47.27z"/>
	<path fill="#444445" d="M14.027,41.451c0,0.195-0.043,0.471-0.13,0.828c-0.087,0.356-0.13,0.635-0.13,0.83v3.348
		c0,0.205,0.065,0.529,0.195,0.975c-0.164,0.248-0.345,0.373-0.542,0.373c-0.689,0-1.067-0.342-1.132-1.022
		c-0.108-1.269-0.163-2.222-0.163-2.859c0-1.071,0.043-1.973,0.13-2.696c0-0.056,0-0.109,0-0.164c0-0.194,0.15-0.293,0.451-0.293
		c0.268,0,0.537,0.055,0.805,0.162C13.855,41.051,14.027,41.225,14.027,41.451z M14.173,39.176c0,0.238-0.082,0.434-0.244,0.585
		c-0.163,0.152-0.363,0.229-0.602,0.229c-0.282,0-0.544-0.098-0.788-0.293c-0.244-0.194-0.366-0.433-0.366-0.715
		c0-0.238,0.084-0.433,0.252-0.585c0.168-0.151,0.376-0.228,0.625-0.228c0.292,0,0.553,0.096,0.78,0.285
		S14.173,38.883,14.173,39.176z"/>
	<path fill="#444445" d="M20.527,45.871c0,0.336-0.255,0.73-0.764,1.186c-0.455,0.424-0.864,0.689-1.227,0.797
		c-0.363,0.109-0.707,0.162-1.032,0.162c-0.856,0-1.525-0.27-2.007-0.812c-0.482-0.541-0.723-1.24-0.723-2.097
		c0-0.834,0.222-1.766,0.667-2.795c0.531-1.233,1.148-1.852,1.853-1.852c0.39,0,0.861,0.15,1.414,0.454
		c0.585,0.335,0.926,0.671,1.024,1.007c0.086,0.293,0.13,0.623,0.13,0.992c0,0.336-0.07,0.715-0.211,1.137
		c-0.173,0.543-0.39,0.812-0.65,0.812c-0.184,0-0.357-0.053-0.52-0.162c-0.195-0.117-0.292-0.264-0.292-0.436
		c0-0.011,0.049-0.136,0.146-0.371c0.054-0.107,0.081-0.404,0.081-0.892c0-0.397-0.016-0.655-0.049-0.774
		c-0.065-0.334-0.217-0.502-0.455-0.502c-0.531,0-0.943,0.461-1.235,1.377c-0.217,0.682-0.325,1.367-0.325,2.059
		c0,1.154,0.368,1.732,1.105,1.732c0.292,0,0.628-0.15,1.007-0.455c0.347-0.281,0.59-0.568,0.731-0.861
		c0.173-0.346,0.384-0.52,0.634-0.52c0.162,0,0.319,0.096,0.471,0.284C20.451,45.533,20.527,45.709,20.527,45.871z"/>
	<path fill="#444445" d="M27.709,48.211c-0.412,0.303-0.737,0.455-0.975,0.455c-0.314,0-0.769-0.324-1.365-0.975
		c-0.423-0.455-0.84-0.916-1.251-1.381c-0.238-0.281-0.617-0.679-1.137-1.188l-0.049,0.032v1.431c0,0.088,0.035,0.215,0.105,0.383
		c0.07,0.168,0.105,0.302,0.105,0.398c0,0.149-0.079,0.282-0.235,0.396c-0.157,0.115-0.317,0.172-0.479,0.172
		c-0.282,0-0.515-0.092-0.699-0.276s-0.276-0.416-0.276-0.697v-2.146c0-0.129,0.017-0.326,0.049-0.592
		c0.033-0.267,0.049-0.466,0.049-0.595v-4.372c0-0.66-0.045-1.191-0.135-1.593c-0.04-0.184-0.06-0.324-0.06-0.422
		c0-0.206,0.124-0.391,0.374-0.553c0.217-0.151,0.433-0.228,0.65-0.228c0.163,0,0.338,0.062,0.528,0.187
		c0.189,0.125,0.284,0.264,0.284,0.415c0,0.043-0.035,0.194-0.104,0.455c-0.069,0.26-0.104,0.661-0.104,1.202
		c0,0.174-0.018,1.62-0.052,4.34c0.043-0.043,0.63-0.58,1.762-1.609c0.935-0.867,1.484-1.3,1.647-1.3
		c0.576,0,0.854,0.353,0.832,1.056v0.162c-0.468,0.271-1.073,0.699-1.813,1.285c-0.937,0.725-1.405,1.207-1.405,1.445
		c0,0.021,0.294,0.362,0.881,1.022c0.555,0.629,0.903,1.021,1.045,1.17c0.653,0.685,1.262,1.147,1.828,1.397V48.211z"/>
	<path fill="#444445" d="M36.695,44.506c0,0.975-0.244,1.811-0.731,2.502c-0.563,0.791-1.311,1.188-2.242,1.188
		c-0.954,0-1.674-0.325-2.162-0.975c-0.444-0.574-0.666-1.354-0.666-2.34c0-0.977,0.244-1.896,0.731-2.764
		c0.563-1.029,1.294-1.543,2.194-1.543c0.282,0,0.634,0.125,1.056,0.374C36.088,41.674,36.695,42.859,36.695,44.506z M35.265,44.475
		c0-1.658-0.401-2.485-1.203-2.485c-0.574,0-1.007,0.352-1.3,1.055c-0.217,0.531-0.325,1.133-0.325,1.806
		c0,1.44,0.428,2.159,1.284,2.159c0.552,0,0.964-0.297,1.235-0.893C35.162,45.66,35.265,45.113,35.265,44.475z"/>
	<path fill="#444445" d="M43.52,47.594c-0.163,0.25-0.363,0.373-0.601,0.373c-0.185,0-0.488-0.107-0.91-0.324v-0.194
		c0-0.238,0.005-0.591,0.016-1.058c0.011-0.465,0.017-0.807,0.017-1.022c0-2.318-0.345-3.478-1.034-3.478
		c-0.194,0-0.415,0.15-0.663,0.455c-0.765,0.932-1.147,2.053-1.147,3.363c0,0.184,0.035,0.457,0.105,0.82
		c0.07,0.363,0.105,0.637,0.105,0.82c0,0.151-0.07,0.276-0.211,0.375c-0.141,0.096-0.292,0.145-0.455,0.145
		c-0.65,0-0.975-0.41-0.975-1.234v-3.396c0-0.087,0.011-0.214,0.033-0.382c0.021-0.168,0.032-0.295,0.032-0.383
		c0-0.129-0.019-0.317-0.057-0.567s-0.057-0.435-0.057-0.554c0-0.174,0.1-0.338,0.301-0.496c0.2-0.155,0.382-0.234,0.544-0.234
		c0.238,0,0.482,0.136,0.731,0.406l-0.048,0.65c0.4-0.641,0.894-0.959,1.479-0.959c0.379,0,0.78,0.131,1.203,0.389
		c0.422,0.261,0.731,0.554,0.926,0.88c0.444,0.821,0.666,1.905,0.666,3.25V47.594z"/>
	<path fill="#444445" d="M52.993,37.828c0,0.238-0.032,0.547-0.097,0.926c-0.087,0.51-0.141,0.812-0.163,0.91
		C52.7,40,52.649,40.991,52.579,42.637c-0.071,1.648-0.106,2.559-0.106,2.73c0,1.041,0.114,1.82,0.341,2.34
		c-0.184,0.303-0.396,0.455-0.634,0.455c-0.249,0-0.471-0.094-0.666-0.283c-0.195-0.189-0.303-0.41-0.325-0.658
		c-0.509,0.465-1.029,0.697-1.56,0.697c-0.791,0-1.403-0.275-1.836-0.828c-0.401-0.498-0.602-1.154-0.602-1.967
		c0-0.953,0.195-1.922,0.585-2.908c0.498-1.246,1.148-1.869,1.95-1.869c0.477,0,0.964,0.21,1.462,0.634
		c0.054-0.509,0.082-1.81,0.082-3.9c0-0.194,0.146-0.292,0.438-0.292c0.347,0,0.647,0.087,0.902,0.26
		C52.866,37.221,52.993,37.481,52.993,37.828z M51.108,43.336c0-0.367-0.081-0.703-0.244-1.008
		c-0.206-0.367-0.477-0.553-0.812-0.553c-0.488,0-0.861,0.481-1.122,1.447c-0.195,0.692-0.292,1.375-0.292,2.047
		c0,1.008,0.292,1.512,0.878,1.512c0.606,0,1.045-0.449,1.316-1.35C51.016,44.826,51.108,44.127,51.108,43.336z"/>
	<path fill="#444445" d="M58.096,42.117c0,0.076-0.011,0.195-0.032,0.357c-0.228,0.325-0.466,0.487-0.715,0.487
		c-0.206,0-0.39-0.119-0.552-0.356c-0.022-0.488-0.195-0.732-0.52-0.732c-0.195,0-0.434,0.516-0.715,1.545
		c-0.13,0.455-0.195,1.088-0.195,1.9c0,0.77,0.035,1.236,0.106,1.397c0.081,0.205,0.121,0.347,0.121,0.423
		c0,0.184-0.083,0.334-0.25,0.446c-0.167,0.113-0.352,0.17-0.555,0.17c-0.579,0-0.869-0.271-0.869-0.812
		c0-0.053,0.014-0.129,0.041-0.228c0.027-0.098,0.041-0.168,0.041-0.211c0-0.553-0.027-1.373-0.082-2.463
		c-0.054-1.088-0.081-1.903-0.081-2.444c0-0.488,0.292-0.731,0.877-0.731c0.347,0,0.585,0.103,0.715,0.309
		c0.303-0.336,0.645-0.504,1.024-0.504c0.26,0,0.509,0.07,0.748,0.211c0.163,0.087,0.352,0.274,0.569,0.562
		C57.987,41.73,58.096,41.955,58.096,42.117z"/>
	<path fill="#444445" d="M64.203,44.506c0,0.975-0.244,1.811-0.731,2.502c-0.563,0.791-1.311,1.188-2.242,1.188
		c-0.954,0-1.674-0.325-2.162-0.975c-0.444-0.574-0.666-1.354-0.666-2.34c0-0.977,0.244-1.896,0.731-2.764
		c0.563-1.029,1.294-1.543,2.194-1.543c0.282,0,0.634,0.125,1.056,0.374C63.596,41.674,64.203,42.859,64.203,44.506z M62.772,44.475
		c0-1.658-0.401-2.485-1.203-2.485c-0.574,0-1.007,0.352-1.3,1.055c-0.217,0.531-0.325,1.133-0.325,1.806
		c0,1.44,0.428,2.159,1.284,2.159c0.552,0,0.964-0.297,1.235-0.893C62.669,45.66,62.772,45.113,62.772,44.475z"/>
	<path fill="#444445" d="M70.751,43.84c0,1.105-0.195,2.043-0.585,2.811c-0.487,0.998-1.224,1.496-2.21,1.496
		c-0.531,0-0.986-0.151-1.365-0.455c0,0.119,0,0.281,0,0.488c0,0.236,0,0.4,0,0.486c0,1.041,0.119,1.857,0.357,2.453
		c0.108,0.238,0.163,0.391,0.163,0.455c0,0.369-0.217,0.553-0.65,0.553c-0.325,0-0.569-0.059-0.731-0.178
		c-0.119-0.076-0.238-0.348-0.357-0.812c-0.098-0.412-0.146-0.727-0.146-0.943v-3.916c0-0.356,0.021-0.846,0.065-1.463
		c0.043-0.692,0.07-1.174,0.082-1.444c0.011-0.271,0.011-0.629,0-1.072c0-0.563,0-0.928,0-1.09c0-0.92,0.3-1.38,0.9-1.38
		c0.15,0,0.289,0.051,0.418,0.154c0.128,0.103,0.193,0.225,0.193,0.365c0,0.238-0.027,0.67-0.082,1.299
		c0.423-0.596,0.932-0.894,1.528-0.894c0.801,0,1.419,0.326,1.853,0.974C70.562,42.291,70.751,42.994,70.751,43.84z M69.305,43.693
		c0-1.17-0.251-1.754-0.752-1.754c-0.218,0-0.501,0.211-0.85,0.633c-0.676,0.812-1.046,1.934-1.111,3.363
		c0.12,0.065,0.332,0.293,0.638,0.684c0.239,0.293,0.479,0.438,0.719,0.438C68.853,47.057,69.305,45.936,69.305,43.693z"/>
	<path fill="#444445" d="M77.478,37.828c0,0.238-0.032,0.547-0.097,0.926c-0.087,0.51-0.141,0.812-0.163,0.91
		c-0.033,0.336-0.084,1.327-0.154,2.973c-0.071,1.648-0.106,2.559-0.106,2.73c0,1.041,0.114,1.82,0.341,2.34
		c-0.184,0.303-0.396,0.455-0.634,0.455c-0.249,0-0.471-0.094-0.666-0.283s-0.303-0.41-0.325-0.658
		c-0.509,0.465-1.029,0.697-1.56,0.697c-0.791,0-1.403-0.275-1.836-0.828c-0.401-0.498-0.602-1.154-0.602-1.967
		c0-0.953,0.195-1.922,0.585-2.908c0.498-1.246,1.148-1.869,1.95-1.869c0.477,0,0.964,0.21,1.462,0.634
		c0.054-0.509,0.082-1.81,0.082-3.9c0-0.194,0.146-0.292,0.438-0.292c0.347,0,0.647,0.087,0.902,0.26
		C77.351,37.221,77.478,37.481,77.478,37.828z M75.593,43.336c0-0.367-0.081-0.703-0.244-1.008
		c-0.206-0.367-0.477-0.553-0.812-0.553c-0.488,0-0.861,0.481-1.122,1.447c-0.195,0.692-0.292,1.375-0.292,2.047
		c0,1.008,0.292,1.512,0.878,1.512c0.606,0,1.045-0.449,1.316-1.35C75.501,44.826,75.593,44.127,75.593,43.336z"/>
	<path fill="#444445" d="M84.125,44.506c0,0.975-0.244,1.811-0.732,2.502c-0.562,0.791-1.311,1.188-2.242,1.188
		c-0.953,0-1.673-0.325-2.161-0.975c-0.444-0.574-0.666-1.354-0.666-2.34c0-0.977,0.244-1.896,0.731-2.764
		c0.563-1.029,1.294-1.543,2.194-1.543c0.28,0,0.634,0.125,1.058,0.374C83.518,41.674,84.125,42.859,84.125,44.506z M82.695,44.475
		c0-1.658-0.402-2.485-1.203-2.485c-0.575,0-1.008,0.352-1.3,1.055c-0.217,0.531-0.325,1.133-0.325,1.806
		c0,1.44,0.428,2.159,1.284,2.159c0.553,0,0.965-0.297,1.234-0.893C82.592,45.66,82.695,45.113,82.695,44.475z"/>
	<path fill="#444445" d="M93.109,42.67c0,0.975-0.178,1.982-0.535,3.023c-0.467,1.363-1.083,2.047-1.854,2.047
		c-0.726,0-1.326-0.449-1.804-1.35c-0.325,0.952-0.84,1.43-1.544,1.43c-0.898,0-1.555-0.617-1.966-1.853
		c-0.282-0.846-0.423-1.836-0.423-2.975c0-0.716,0.027-1.293,0.08-1.738c0.152-0.237,0.354-0.356,0.603-0.356
		c0.217,0,0.437,0.069,0.658,0.209c0.222,0.142,0.333,0.31,0.333,0.504c0,0.142-0.032,0.351-0.098,0.628
		c-0.064,0.274-0.099,0.483-0.099,0.625c0,2.383,0.251,3.573,0.751,3.573c0.521,0,0.862-0.66,1.021-1.981
		c0.054-0.498,0.08-1.369,0.08-2.615c0-0.411,0.237-0.616,0.715-0.616c0.531,0,0.797,0.297,0.797,0.893
		c0,0.055-0.006,0.131-0.018,0.229c-0.011,0.098-0.016,0.168-0.016,0.211v1.836c0,1.365,0.249,2.047,0.747,2.047
		c0.423,0,0.742-0.498,0.959-1.494c0.162-0.692,0.243-1.37,0.243-2.03c0-0.562-0.026-0.896-0.081-0.992
		c-0.011-0.021-0.07-0.086-0.179-0.194c-0.064-0.086-0.099-0.166-0.099-0.242c0-0.195,0.087-0.371,0.261-0.529
		c0.174-0.157,0.357-0.234,0.553-0.234c0.293,0,0.525,0.26,0.699,0.779C93.04,41.9,93.109,42.291,93.109,42.67z"/>
	<path fill="#444445" d="M100.198,47.594c-0.162,0.25-0.363,0.373-0.603,0.373c-0.184,0-0.486-0.107-0.908-0.324v-0.194
		c0-0.238,0.004-0.591,0.016-1.058c0.011-0.465,0.018-0.807,0.018-1.022c0-2.318-0.346-3.478-1.035-3.478
		c-0.193,0-0.414,0.15-0.662,0.455c-0.766,0.932-1.146,2.053-1.146,3.363c0,0.184,0.035,0.457,0.105,0.82
		c0.069,0.363,0.104,0.637,0.104,0.82c0,0.151-0.069,0.276-0.211,0.375c-0.142,0.096-0.293,0.145-0.455,0.145
		c-0.649,0-0.976-0.41-0.976-1.234v-3.396c0-0.087,0.011-0.214,0.033-0.382c0.021-0.168,0.031-0.295,0.031-0.383
		c0-0.129-0.019-0.317-0.057-0.567s-0.057-0.435-0.057-0.554c0-0.174,0.1-0.338,0.299-0.496c0.201-0.155,0.384-0.234,0.546-0.234
		c0.237,0,0.481,0.136,0.731,0.406l-0.05,0.65c0.4-0.641,0.894-0.959,1.479-0.959c0.379,0,0.779,0.131,1.201,0.389
		c0.424,0.261,0.731,0.554,0.928,0.88c0.443,0.821,0.666,1.905,0.666,3.25L100.198,47.594L100.198,47.594z"/>
</g>
<g>
	<path fill="#444445" d="M2.161,57.053c0,0.193-0.043,0.471-0.13,0.828c-0.087,0.357-0.13,0.633-0.13,0.828v3.348
		c0,0.207,0.065,0.531,0.195,0.976c-0.164,0.25-0.345,0.375-0.542,0.375c-0.689,0-1.067-0.343-1.132-1.023
		c-0.108-1.268-0.163-2.221-0.163-2.86c0-1.072,0.043-1.972,0.13-2.697c0-0.055,0-0.107,0-0.162c0-0.195,0.15-0.293,0.451-0.293
		c0.268,0,0.537,0.055,0.805,0.162C1.989,56.65,2.161,56.824,2.161,57.053z M2.308,54.777c0,0.238-0.082,0.434-0.244,0.584
		c-0.163,0.152-0.363,0.229-0.602,0.229c-0.282,0-0.544-0.098-0.788-0.293c-0.244-0.195-0.366-0.434-0.366-0.715
		c0-0.238,0.084-0.434,0.252-0.586c0.168-0.15,0.376-0.227,0.625-0.227c0.292,0,0.553,0.096,0.78,0.285
		C2.192,54.243,2.308,54.484,2.308,54.777z"/>
	<path fill="#444445" d="M8.661,61.473c0,0.336-0.255,0.73-0.764,1.187c-0.455,0.422-0.864,0.688-1.227,0.797
		c-0.363,0.106-0.707,0.162-1.032,0.162c-0.856,0-1.525-0.271-2.007-0.812s-0.723-1.24-0.723-2.097c0-0.834,0.222-1.767,0.667-2.795
		c0.531-1.235,1.148-1.854,1.853-1.854c0.39,0,0.861,0.152,1.414,0.455c0.585,0.336,0.926,0.672,1.024,1.008
		c0.086,0.293,0.13,0.623,0.13,0.99c0,0.336-0.07,0.715-0.211,1.139c-0.173,0.541-0.39,0.812-0.65,0.812
		c-0.184,0-0.357-0.055-0.52-0.162c-0.195-0.119-0.292-0.264-0.292-0.438c0-0.01,0.049-0.133,0.146-0.371
		c0.054-0.107,0.081-0.404,0.081-0.889c0-0.398-0.016-0.658-0.049-0.775c-0.065-0.334-0.217-0.502-0.455-0.502
		c-0.531,0-0.943,0.459-1.235,1.377c-0.217,0.68-0.325,1.365-0.325,2.057c0,1.156,0.368,1.734,1.105,1.734
		c0.292,0,0.628-0.152,1.007-0.455c0.347-0.281,0.59-0.568,0.731-0.861c0.173-0.348,0.384-0.52,0.634-0.52
		c0.162,0,0.319,0.094,0.471,0.283C8.585,61.133,8.661,61.309,8.661,61.473z"/>
	<path fill="#444445" d="M15.307,60.107c0,0.975-0.244,1.809-0.731,2.502c-0.563,0.791-1.311,1.186-2.242,1.186
		c-0.954,0-1.674-0.324-2.162-0.975c-0.444-0.574-0.666-1.354-0.666-2.34c0-0.976,0.244-1.896,0.731-2.763
		c0.563-1.028,1.294-1.545,2.194-1.545c0.282,0,0.634,0.125,1.056,0.375C14.7,57.273,15.307,58.461,15.307,60.107z M13.877,60.074
		c0-1.658-0.401-2.486-1.203-2.486c-0.574,0-1.007,0.352-1.3,1.057c-0.217,0.531-0.325,1.133-0.325,1.804
		c0,1.44,0.428,2.161,1.284,2.161c0.552,0,0.964-0.297,1.235-0.895C13.774,61.26,13.877,60.713,13.877,60.074z"/>
	<path fill="#444445" d="M22.132,63.195c-0.163,0.248-0.363,0.373-0.601,0.373c-0.185,0-0.488-0.109-0.91-0.326v-0.193
		c0-0.238,0.005-0.592,0.016-1.057c0.011-0.467,0.017-0.807,0.017-1.023c0-2.318-0.345-3.479-1.034-3.479
		c-0.194,0-0.415,0.152-0.663,0.455c-0.765,0.932-1.147,2.053-1.147,3.363c0,0.186,0.035,0.459,0.105,0.821
		c0.07,0.361,0.105,0.636,0.105,0.82c0,0.149-0.07,0.274-0.211,0.373c-0.141,0.098-0.292,0.146-0.455,0.146
		c-0.65,0-0.975-0.412-0.975-1.234V58.84c0-0.088,0.011-0.215,0.033-0.383c0.021-0.168,0.032-0.295,0.032-0.381
		c0-0.131-0.019-0.32-0.057-0.568c-0.038-0.25-0.057-0.434-0.057-0.553c0-0.174,0.1-0.34,0.301-0.496
		c0.2-0.156,0.382-0.236,0.544-0.236c0.238,0,0.482,0.137,0.731,0.406l-0.048,0.65c0.4-0.639,0.894-0.959,1.479-0.959
		c0.379,0,0.78,0.131,1.203,0.391s0.731,0.553,0.926,0.877c0.444,0.824,0.666,1.906,0.666,3.25V63.195L22.132,63.195z"/>
	<path fill="#444445" d="M29.932,57.49c0,0.293-0.444,0.498-1.333,0.617c-0.021,0.238-0.032,0.781-0.032,1.625v1.072
		c0,0.217,0.033,0.536,0.098,0.959c0.065,0.424,0.097,0.737,0.097,0.942c0,0.174-0.086,0.328-0.26,0.463
		c-0.174,0.136-0.347,0.203-0.52,0.203c-0.271,0-0.499-0.231-0.683-0.699c-0.141-0.356-0.211-0.702-0.211-1.039v-3.444
		c-0.499-0.076-0.786-0.125-0.861-0.146c-0.282-0.086-0.423-0.211-0.423-0.373c0-0.043,0.011-0.092,0.033-0.146
		c0.282-0.399,0.596-0.602,0.942-0.602c0.021,0,0.054,0,0.098,0c0.043,0.012,0.076,0.016,0.098,0.016
		c0.228,0,0.335-0.266,0.325-0.795v-1.188c-0.054-0.119-0.081-0.221-0.081-0.309c0-0.142,0.083-0.269,0.249-0.381
		c0.167-0.115,0.325-0.173,0.475-0.173c0.225,0,0.44,0.105,0.644,0.318c0.204,0.211,0.306,0.437,0.306,0.674
		c0,0.261-0.041,0.519-0.122,0.771c-0.081,0.254-0.117,0.519-0.105,0.789v0.064C29.509,56.797,29.932,57.057,29.932,57.49z"/>
	<path fill="#444445" d="M36.006,60.107c0,0.975-0.244,1.809-0.731,2.502c-0.563,0.791-1.311,1.186-2.242,1.186
		c-0.954,0-1.674-0.324-2.162-0.975c-0.444-0.574-0.666-1.354-0.666-2.34c0-0.976,0.244-1.896,0.731-2.763
		c0.563-1.028,1.294-1.545,2.194-1.545c0.282,0,0.634,0.125,1.056,0.375C35.399,57.273,36.006,58.461,36.006,60.107z M34.576,60.074
		c0-1.658-0.401-2.486-1.203-2.486c-0.574,0-1.007,0.352-1.3,1.057c-0.217,0.531-0.325,1.133-0.325,1.804
		c0,1.44,0.428,2.161,1.284,2.161c0.552,0,0.964-0.297,1.235-0.895C34.473,61.26,34.576,60.713,34.576,60.074z"/>
	<path fill="#444445" d="M41.515,62.869c0,0.195-0.079,0.361-0.236,0.496c-0.157,0.135-0.338,0.203-0.544,0.203
		c-0.682,0-1.023-0.896-1.023-2.683c0-0.812,0.008-2.03,0.024-3.655c0.016-1.625,0.024-2.845,0.024-3.656
		c0-0.129-0.017-0.318-0.049-0.568c-0.033-0.25-0.049-0.434-0.049-0.553c0.357-0.238,0.639-0.357,0.845-0.357
		c0.238,0,0.466,0.078,0.683,0.236c0.217,0.156,0.325,0.354,0.325,0.592c0,0.119-0.027,0.26-0.082,0.424
		c-0.076,0.26-0.119,0.4-0.13,0.422c-0.141,0.672-0.211,1.625-0.211,2.859c0,1.961,0,2.969,0,3.023
		c0.032,1.365,0.146,2.318,0.341,2.858C41.487,62.664,41.515,62.783,41.515,62.869z"/>
	<path fill="#444445" d="M47.608,61.879c0,0.541-0.369,0.963-1.105,1.268c-0.575,0.236-1.176,0.357-1.804,0.357
		c-1.668,0-2.503-0.949-2.503-2.844c0-0.781,0.189-1.646,0.569-2.602c0.466-1.17,1.029-1.754,1.69-1.754
		c0.596,0,1.238,0.266,1.926,0.797c0.688,0.528,1.032,1.082,1.032,1.655c0,0.716-0.319,1.283-0.958,1.707
		c-0.563,0.379-1.235,0.568-2.015,0.568c-0.152,0-0.396-0.093-0.731-0.275c0.043,1.029,0.346,1.543,0.91,1.543
		c0.477,0,0.945-0.135,1.406-0.405c0.461-0.271,0.755-0.406,0.886-0.406C47.375,61.488,47.608,61.617,47.608,61.879z M45.837,58.807
		c0-0.27-0.079-0.527-0.235-0.771c-0.157-0.244-0.366-0.365-0.626-0.365c-0.357,0-0.634,0.156-0.829,0.472
		c-0.163,0.271-0.244,0.59-0.244,0.959c0,0.205,0.07,0.373,0.211,0.504c0.141,0.129,0.319,0.194,0.536,0.194
		C45.441,59.799,45.837,59.469,45.837,58.807z"/>
	<path fill="#444445" d="M54.134,60.545c0,1.398-0.043,2.385-0.13,2.959c-0.055,0.334-0.282,0.504-0.683,0.504
		c-0.607,0-0.877-0.305-0.812-0.91c-0.542,0.26-1.105,0.389-1.69,0.389c-0.563,0-1.1-0.141-1.609-0.422
		c-0.607-0.336-0.91-0.764-0.91-1.282c0-0.511,0.347-0.986,1.04-1.431c0.628-0.401,1.219-0.602,1.771-0.602h1.381v-0.387
		c0.01-1.129-0.325-1.693-1.008-1.693c-0.856,0-1.284,0.396-1.284,1.189c0,0.268-0.152,0.401-0.455,0.401
		c-0.184,0-0.376-0.084-0.577-0.252s-0.301-0.344-0.301-0.526c0-0.607,0.217-1.105,0.65-1.496c0.433-0.389,0.953-0.584,1.56-0.584
		C53.115,56.402,54.134,57.783,54.134,60.545z M52.493,61.131c0-0.217-0.163-0.326-0.488-0.326c-1.354,0-2.031,0.32-2.031,0.959
		c0,0.348,0.298,0.521,0.894,0.521c0.368,0,0.715-0.104,1.04-0.309C52.297,61.748,52.493,61.467,52.493,61.131z"/>
	<path fill="#444445" d="M59.665,57.719c0,0.076-0.011,0.195-0.032,0.357c-0.228,0.324-0.466,0.486-0.715,0.486
		c-0.206,0-0.39-0.119-0.552-0.357c-0.022-0.486-0.195-0.73-0.52-0.73c-0.195,0-0.434,0.515-0.715,1.543
		c-0.13,0.455-0.195,1.09-0.195,1.902c0,0.77,0.035,1.234,0.106,1.396c0.081,0.207,0.121,0.348,0.121,0.424
		c0,0.184-0.083,0.332-0.25,0.445c-0.167,0.114-0.352,0.172-0.555,0.172c-0.579,0-0.869-0.271-0.869-0.812
		c0-0.055,0.014-0.131,0.041-0.229c0.027-0.099,0.041-0.168,0.041-0.211c0-0.554-0.027-1.373-0.082-2.461
		c-0.054-1.09-0.081-1.904-0.081-2.447c0-0.486,0.292-0.73,0.877-0.73c0.347,0,0.585,0.104,0.715,0.309
		c0.303-0.336,0.645-0.504,1.024-0.504c0.26,0,0.509,0.07,0.748,0.211c0.163,0.088,0.352,0.273,0.569,0.562
		C59.557,57.33,59.665,57.555,59.665,57.719z"/>
	<path fill="#444445" d="M66.49,63.195c-0.163,0.248-0.363,0.373-0.601,0.373c-0.185,0-0.488-0.109-0.91-0.326v-0.193
		c0-0.238,0.005-0.592,0.016-1.057c0.011-0.467,0.017-0.807,0.017-1.023c0-2.318-0.345-3.479-1.034-3.479
		c-0.194,0-0.415,0.152-0.663,0.455c-0.765,0.932-1.147,2.053-1.147,3.363c0,0.186,0.035,0.459,0.105,0.821
		c0.07,0.361,0.105,0.636,0.105,0.82c0,0.149-0.07,0.274-0.211,0.373c-0.141,0.098-0.292,0.146-0.455,0.146
		c-0.65,0-0.975-0.412-0.975-1.234V58.84c0-0.088,0.011-0.215,0.033-0.383c0.021-0.168,0.032-0.295,0.032-0.381
		c0-0.131-0.019-0.32-0.057-0.568c-0.038-0.25-0.057-0.434-0.057-0.553c0-0.174,0.1-0.34,0.301-0.496
		c0.2-0.156,0.382-0.236,0.544-0.236c0.238,0,0.482,0.137,0.731,0.406l-0.048,0.65c0.4-0.639,0.894-0.959,1.479-0.959
		c0.379,0,0.78,0.131,1.203,0.391s0.731,0.553,0.926,0.877c0.444,0.824,0.666,1.906,0.666,3.25V63.195z"/>
	<path fill="#444445" d="M78.434,63.275c-0.364,0.229-0.643,0.342-0.836,0.342c-0.139,0-0.354-0.076-0.643-0.229
		c0-0.173,0-0.472,0-0.894c0-0.379,0-0.679,0-0.896c0-2.881-0.237-4.322-0.709-4.322c-0.354,0-0.639,0.439-0.854,1.316
		c-0.161,0.639-0.242,1.23-0.242,1.771v1.494c0,0.076,0.027,0.188,0.082,0.334c0.055,0.146,0.081,0.258,0.081,0.332
		c0,0.174-0.092,0.328-0.276,0.465c-0.184,0.135-0.363,0.203-0.536,0.203c-0.184,0-0.368-0.094-0.552-0.277
		c-0.185-0.184-0.276-0.363-0.276-0.535v-3.023c0-1.225-0.138-1.836-0.414-1.836c-0.044,0-0.138,0.104-0.281,0.31
		c-0.783,1.039-1.174,2.155-1.174,3.349c0,0.174,0.024,0.426,0.073,0.756c0.048,0.33,0.073,0.575,0.073,0.737
		c0,0.218-0.068,0.396-0.203,0.537c-0.135,0.142-0.312,0.211-0.528,0.211c-0.25,0-0.45-0.086-0.602-0.26
		c-0.054-0.076-0.119-0.33-0.195-0.763c-0.065-0.399-0.098-0.676-0.098-0.825v-3.535c0-0.261,0.065-0.604,0.195-1.037
		c0.162-0.521,0.335-0.778,0.52-0.778c0.216,0,0.412,0.082,0.585,0.248c0.173,0.163,0.249,0.354,0.228,0.563
		c0.314-0.521,0.72-0.779,1.219-0.779c0.617,0,1.121,0.412,1.511,1.234c0.206-0.486,0.39-0.822,0.552-1.009
		c0.271-0.312,0.606-0.471,1.008-0.471c0.4,0,0.807,0.211,1.219,0.635c0.715,0.726,1.072,1.965,1.072,3.722L78.434,63.275
		L78.434,63.275z"/>
	<path fill="#444445" d="M85.486,60.107c0,0.975-0.244,1.809-0.731,2.502c-0.563,0.791-1.312,1.186-2.241,1.186
		c-0.955,0-1.675-0.324-2.163-0.975c-0.444-0.574-0.666-1.354-0.666-2.34c0-0.976,0.244-1.896,0.731-2.763
		c0.563-1.028,1.295-1.545,2.193-1.545c0.281,0,0.635,0.125,1.057,0.375C84.88,57.273,85.486,58.461,85.486,60.107z M84.057,60.074
		c0-1.658-0.4-2.486-1.203-2.486c-0.574,0-1.006,0.352-1.299,1.057c-0.218,0.531-0.326,1.133-0.326,1.804
		c0,1.44,0.428,2.161,1.285,2.161c0.553,0,0.963-0.297,1.233-0.895C83.953,61.26,84.057,60.713,84.057,60.074z"/>
	<path fill="#444445" d="M90.686,57.719c0,0.076-0.011,0.195-0.031,0.357c-0.229,0.324-0.467,0.486-0.715,0.486
		c-0.207,0-0.392-0.119-0.553-0.357c-0.021-0.486-0.195-0.73-0.521-0.73c-0.194,0-0.434,0.515-0.715,1.543
		c-0.131,0.455-0.194,1.09-0.194,1.902c0,0.77,0.035,1.234,0.104,1.396c0.082,0.207,0.123,0.348,0.123,0.424
		c0,0.184-0.084,0.332-0.25,0.445c-0.166,0.114-0.353,0.172-0.556,0.172c-0.58,0-0.869-0.271-0.869-0.812
		c0-0.055,0.013-0.131,0.04-0.229c0.027-0.099,0.041-0.168,0.041-0.211c0-0.554-0.027-1.373-0.081-2.461
		c-0.055-1.09-0.082-1.904-0.082-2.447c0-0.486,0.294-0.73,0.878-0.73c0.348,0,0.586,0.104,0.715,0.309
		c0.305-0.336,0.646-0.504,1.023-0.504c0.262,0,0.51,0.07,0.748,0.211c0.162,0.088,0.352,0.273,0.568,0.562
		C90.575,57.332,90.686,57.555,90.686,57.719z"/>
	<path fill="#444445" d="M96.451,61.879c0,0.541-0.368,0.963-1.104,1.268c-0.574,0.236-1.177,0.357-1.805,0.357
		c-1.669,0-2.503-0.949-2.503-2.844c0-0.781,0.188-1.646,0.569-2.602c0.465-1.17,1.027-1.754,1.688-1.754
		c0.597,0,1.237,0.266,1.927,0.797c0.688,0.528,1.031,1.082,1.031,1.655c0,0.716-0.32,1.283-0.959,1.707
		c-0.562,0.379-1.234,0.568-2.015,0.568c-0.152,0-0.396-0.093-0.731-0.275c0.043,1.029,0.348,1.543,0.91,1.543
		c0.477,0,0.943-0.135,1.405-0.405c0.46-0.271,0.756-0.406,0.886-0.406C96.219,61.488,96.451,61.617,96.451,61.879z M94.682,58.807
		c0-0.27-0.08-0.527-0.236-0.771c-0.157-0.244-0.365-0.365-0.625-0.365c-0.357,0-0.635,0.156-0.829,0.472
		c-0.162,0.271-0.244,0.59-0.244,0.959c0,0.205,0.069,0.373,0.212,0.504c0.141,0.129,0.318,0.194,0.536,0.194
		C94.285,59.799,94.682,59.469,94.682,58.807z"/>
	<path fill="#444445" d="M105.925,60.545c0,1.398-0.043,2.385-0.13,2.959c-0.054,0.334-0.281,0.504-0.684,0.504
		c-0.605,0-0.877-0.305-0.812-0.91c-0.541,0.26-1.104,0.389-1.688,0.389c-0.563,0-1.1-0.141-1.609-0.422
		c-0.605-0.336-0.909-0.764-0.909-1.282c0-0.511,0.347-0.986,1.04-1.431c0.629-0.401,1.219-0.602,1.771-0.602h1.382v-0.387
		c0.011-1.129-0.325-1.693-1.009-1.693c-0.854,0-1.282,0.396-1.282,1.189c0,0.268-0.152,0.401-0.455,0.401
		c-0.185,0-0.377-0.084-0.577-0.252c-0.201-0.168-0.301-0.344-0.301-0.526c0-0.607,0.217-1.105,0.65-1.496
		c0.433-0.389,0.953-0.584,1.56-0.584C104.907,56.402,105.925,57.783,105.925,60.545z M104.284,61.131
		c0-0.217-0.163-0.326-0.487-0.326c-1.354,0-2.031,0.32-2.031,0.959c0,0.348,0.299,0.521,0.895,0.521
		c0.367,0,0.715-0.104,1.04-0.309C104.089,61.748,104.284,61.467,104.284,61.131z"/>
	<path fill="#444445" d="M113.003,63.195c-0.162,0.248-0.362,0.373-0.603,0.373c-0.184,0-0.486-0.109-0.908-0.326v-0.193
		c0-0.238,0.005-0.592,0.016-1.057c0.012-0.467,0.018-0.807,0.018-1.023c0-2.318-0.346-3.479-1.034-3.479
		c-0.194,0-0.415,0.152-0.662,0.455c-0.767,0.932-1.147,2.053-1.147,3.363c0,0.186,0.035,0.459,0.105,0.821
		c0.07,0.361,0.105,0.636,0.105,0.82c0,0.149-0.07,0.274-0.211,0.373c-0.142,0.098-0.293,0.146-0.455,0.146
		c-0.65,0-0.976-0.412-0.976-1.234V58.84c0-0.088,0.011-0.215,0.032-0.383s0.031-0.295,0.031-0.381c0-0.131-0.019-0.32-0.057-0.568
		c-0.037-0.25-0.057-0.434-0.057-0.553c0-0.174,0.1-0.34,0.3-0.496c0.201-0.156,0.383-0.236,0.545-0.236
		c0.238,0,0.481,0.137,0.731,0.406l-0.049,0.65c0.399-0.639,0.894-0.959,1.479-0.959c0.379,0,0.779,0.131,1.202,0.391
		s0.731,0.553,0.927,0.877c0.443,0.824,0.666,1.906,0.666,3.25L113.003,63.195L113.003,63.195z"/>
	<path fill="#444445" d="M119.764,53.428c0,0.238-0.033,0.547-0.098,0.926c-0.087,0.511-0.141,0.812-0.163,0.91
		c-0.032,0.336-0.084,1.328-0.153,2.976c-0.07,1.646-0.105,2.557-0.105,2.729c0,1.039,0.113,1.82,0.342,2.34
		c-0.186,0.303-0.396,0.455-0.634,0.455c-0.25,0-0.472-0.096-0.667-0.285c-0.194-0.188-0.303-0.408-0.324-0.658
		c-0.51,0.468-1.029,0.699-1.561,0.699c-0.791,0-1.403-0.276-1.836-0.828c-0.401-0.498-0.603-1.153-0.603-1.967
		c0-0.953,0.195-1.924,0.585-2.908c0.498-1.246,1.148-1.868,1.95-1.868c0.478,0,0.964,0.211,1.463,0.633
		c0.054-0.508,0.081-1.81,0.081-3.899c0-0.193,0.146-0.291,0.438-0.291c0.348,0,0.647,0.086,0.902,0.26
		C119.637,52.822,119.764,53.082,119.764,53.428z M117.878,58.938c0-0.369-0.081-0.705-0.243-1.008
		c-0.205-0.369-0.477-0.553-0.812-0.553c-0.487,0-0.861,0.482-1.121,1.445c-0.195,0.693-0.293,1.377-0.293,2.049
		c0,1.008,0.293,1.512,0.878,1.512c0.605,0,1.045-0.451,1.316-1.35C117.786,60.426,117.878,59.729,117.878,58.938z"/>
</g>
<g>
	<path fill="#444445" d="M6.256,76.145c0,1.398-0.043,2.385-0.13,2.959c-0.055,0.334-0.282,0.504-0.683,0.504
		c-0.607,0-0.877-0.305-0.812-0.909c-0.542,0.26-1.105,0.389-1.69,0.389c-0.563,0-1.1-0.142-1.609-0.422
		c-0.607-0.336-0.91-0.765-0.91-1.283c0-0.51,0.347-0.985,1.04-1.43C2.09,75.55,2.681,75.35,3.233,75.35h1.381v-0.387
		c0.01-1.129-0.325-1.693-1.008-1.693c-0.856,0-1.284,0.396-1.284,1.189c0,0.268-0.152,0.402-0.455,0.402
		c-0.184,0-0.376-0.084-0.577-0.252s-0.301-0.344-0.301-0.527c0-0.607,0.217-1.105,0.65-1.496c0.433-0.389,0.953-0.584,1.56-0.584
		C5.238,72.002,6.256,73.383,6.256,76.145z M4.615,76.73c0-0.217-0.163-0.326-0.488-0.326c-1.354,0-2.031,0.32-2.031,0.959
		c0,0.348,0.298,0.521,0.894,0.521c0.368,0,0.715-0.104,1.04-0.309C4.42,77.348,4.615,77.066,4.615,76.73z"/>
	<path fill="#444445" d="M13.124,77.072c0,0.336-0.255,0.729-0.764,1.186c-0.455,0.422-0.864,0.688-1.227,0.797
		c-0.363,0.107-0.707,0.162-1.032,0.162c-0.856,0-1.525-0.271-2.007-0.812c-0.482-0.54-0.723-1.239-0.723-2.096
		c0-0.834,0.222-1.766,0.667-2.795c0.531-1.236,1.148-1.854,1.853-1.854c0.39,0,0.861,0.152,1.414,0.455
		c0.585,0.336,0.926,0.672,1.024,1.008c0.086,0.293,0.13,0.623,0.13,0.99c0,0.336-0.07,0.715-0.211,1.139
		c-0.173,0.541-0.39,0.812-0.65,0.812c-0.184,0-0.357-0.056-0.52-0.162c-0.195-0.119-0.292-0.264-0.292-0.438
		c0-0.01,0.049-0.133,0.146-0.371c0.054-0.106,0.081-0.403,0.081-0.889c0-0.397-0.016-0.658-0.049-0.774
		c-0.065-0.334-0.217-0.503-0.455-0.503c-0.531,0-0.943,0.459-1.235,1.378c-0.217,0.68-0.325,1.364-0.325,2.057
		c0,1.156,0.368,1.734,1.105,1.734c0.292,0,0.628-0.152,1.007-0.455c0.347-0.281,0.59-0.568,0.731-0.861
		c0.173-0.348,0.384-0.521,0.634-0.521c0.162,0,0.319,0.095,0.471,0.283C13.047,76.732,13.124,76.908,13.124,77.072z"/>
	<path fill="#444445" d="M19.64,77.072c0,0.336-0.255,0.729-0.764,1.186c-0.455,0.422-0.864,0.688-1.227,0.797
		c-0.363,0.107-0.707,0.162-1.032,0.162c-0.856,0-1.525-0.271-2.007-0.812c-0.482-0.54-0.723-1.239-0.723-2.096
		c0-0.834,0.222-1.766,0.667-2.795c0.531-1.236,1.148-1.854,1.853-1.854c0.39,0,0.861,0.152,1.414,0.455
		c0.585,0.336,0.926,0.672,1.024,1.008c0.086,0.293,0.13,0.623,0.13,0.99c0,0.336-0.07,0.715-0.211,1.139
		c-0.173,0.541-0.39,0.812-0.65,0.812c-0.184,0-0.357-0.056-0.521-0.162c-0.195-0.119-0.292-0.264-0.292-0.438
		c0-0.01,0.049-0.133,0.146-0.371c0.054-0.106,0.081-0.403,0.081-0.889c0-0.397-0.016-0.658-0.049-0.774
		c-0.065-0.334-0.217-0.503-0.455-0.503c-0.531,0-0.943,0.459-1.235,1.378c-0.217,0.68-0.325,1.364-0.325,2.057
		c0,1.156,0.368,1.734,1.105,1.734c0.292,0,0.628-0.152,1.007-0.455c0.347-0.281,0.59-0.568,0.731-0.861
		c0.173-0.348,0.384-0.521,0.634-0.521c0.162,0,0.319,0.095,0.471,0.283C19.563,76.732,19.64,76.908,19.64,77.072z"/>
	<path fill="#444445" d="M25.814,77.479c0,0.541-0.369,0.963-1.105,1.269c-0.575,0.235-1.176,0.356-1.804,0.356
		c-1.668,0-2.503-0.949-2.503-2.844c0-0.781,0.189-1.646,0.569-2.602c0.466-1.17,1.029-1.754,1.69-1.754
		c0.596,0,1.238,0.266,1.926,0.797c0.688,0.529,1.032,1.082,1.032,1.656c0,0.715-0.319,1.283-0.958,1.707
		c-0.563,0.379-1.235,0.567-2.015,0.567c-0.152,0-0.396-0.092-0.731-0.274c0.043,1.028,0.346,1.543,0.91,1.543
		c0.477,0,0.945-0.135,1.406-0.406s0.755-0.406,0.886-0.406C25.581,77.088,25.814,77.217,25.814,77.479z M24.043,74.406
		c0-0.271-0.079-0.527-0.235-0.771c-0.157-0.244-0.366-0.365-0.626-0.365c-0.357,0-0.634,0.156-0.829,0.472
		c-0.163,0.271-0.244,0.59-0.244,0.959c0,0.204,0.07,0.373,0.211,0.504c0.141,0.129,0.319,0.194,0.536,0.194
		C23.647,75.398,24.043,75.068,24.043,74.406z"/>
	<path fill="#444445" d="M31.97,77.266c0,0.51-0.217,0.955-0.65,1.334c-0.477,0.41-1.116,0.617-1.917,0.617
		c-0.347,0.01-0.72-0.061-1.121-0.211c-1.3-0.488-1.95-0.883-1.95-1.188c0-0.478,0.341-0.715,1.024-0.715
		c0.098,0,0.2,0.006,0.309,0.018c0.033,0.324,0.292,0.584,0.78,0.779c0.422,0.174,0.829,0.244,1.219,0.211
		c0.314-0.021,0.471-0.135,0.471-0.342c0-0.031-0.008-0.08-0.024-0.146c-0.016-0.064-0.024-0.115-0.024-0.154
		c0-0.037-0.206-0.121-0.617-0.252c-0.466-0.141-0.726-0.221-0.78-0.242c-1.235-0.736-1.853-1.625-1.853-2.666
		c0-0.627,0.179-1.207,0.536-1.738c0.401-0.586,0.899-0.877,1.495-0.877c0.444,0,0.951,0.173,1.52,0.521
		c0.569,0.347,0.918,0.722,1.048,1.121c0.087,0.281,0.13,0.517,0.13,0.699c0,0.194-0.027,0.356-0.082,0.485
		c-0.065,0.164-0.13,0.326-0.195,0.488c-0.206,0.141-0.412,0.211-0.618,0.211c-0.108,0-0.29-0.066-0.544-0.203
		c-0.254-0.135-0.382-0.252-0.382-0.35c0-0.043,0.065-0.184,0.195-0.422c0.076-0.141,0.114-0.26,0.114-0.357
		c0-0.65-0.255-0.975-0.764-0.975c-0.303,0-0.536,0.195-0.699,0.584c-0.119,0.305-0.179,0.629-0.179,0.975
		c0,0.434,0.309,0.824,0.926,1.17c0.563,0.25,1.132,0.504,1.707,0.764C31.661,76.688,31.97,76.975,31.97,77.266z"/>
	<path fill="#444445" d="M37.852,77.266c0,0.51-0.217,0.955-0.65,1.334c-0.477,0.41-1.116,0.617-1.917,0.617
		c-0.347,0.01-0.72-0.061-1.121-0.211c-1.3-0.488-1.95-0.883-1.95-1.188c0-0.478,0.341-0.715,1.024-0.715
		c0.098,0,0.2,0.006,0.309,0.018c0.033,0.324,0.292,0.584,0.78,0.779c0.422,0.174,0.829,0.244,1.219,0.211
		c0.314-0.021,0.471-0.135,0.471-0.342c0-0.031-0.008-0.08-0.024-0.146c-0.016-0.064-0.024-0.115-0.024-0.154
		c0-0.037-0.206-0.121-0.617-0.252c-0.466-0.141-0.726-0.221-0.78-0.242c-1.235-0.736-1.853-1.625-1.853-2.666
		c0-0.627,0.179-1.207,0.536-1.738c0.401-0.586,0.899-0.877,1.495-0.877c0.444,0,0.951,0.173,1.52,0.521
		c0.569,0.347,0.918,0.722,1.048,1.121c0.087,0.281,0.13,0.517,0.13,0.699c0,0.194-0.027,0.356-0.082,0.485
		c-0.065,0.164-0.13,0.326-0.195,0.488c-0.206,0.141-0.412,0.211-0.618,0.211c-0.108,0-0.29-0.066-0.544-0.203
		c-0.254-0.135-0.382-0.252-0.382-0.35c0-0.043,0.065-0.184,0.195-0.422c0.076-0.141,0.114-0.26,0.114-0.357
		c0-0.65-0.255-0.975-0.764-0.975c-0.303,0-0.536,0.195-0.699,0.584c-0.119,0.305-0.179,0.629-0.179,0.975
		c0,0.434,0.309,0.824,0.926,1.17c0.563,0.25,1.132,0.504,1.707,0.764C37.543,76.688,37.852,76.975,37.852,77.266z"/>
	<path fill="#444445" d="M43.23,72.652c0,0.193-0.043,0.471-0.13,0.828c-0.087,0.356-0.13,0.633-0.13,0.828v3.348
		c0,0.207,0.065,0.531,0.195,0.975c-0.164,0.25-0.345,0.375-0.542,0.375c-0.689,0-1.067-0.342-1.132-1.023
		c-0.108-1.268-0.163-2.221-0.163-2.86c0-1.072,0.043-1.972,0.13-2.697c0-0.055,0-0.106,0-0.161c0-0.195,0.15-0.293,0.451-0.293
		c0.268,0,0.537,0.055,0.805,0.161C43.059,72.25,43.23,72.424,43.23,72.652z M43.377,70.377c0,0.238-0.082,0.434-0.244,0.584
		c-0.163,0.152-0.363,0.229-0.602,0.229c-0.282,0-0.544-0.098-0.788-0.293c-0.244-0.194-0.366-0.434-0.366-0.715
		c0-0.238,0.084-0.434,0.252-0.586c0.168-0.15,0.376-0.227,0.625-0.227c0.292,0,0.553,0.096,0.78,0.285
		C43.261,69.843,43.377,70.084,43.377,70.377z"/>
	<path fill="#444445" d="M49.941,78.795c-0.163,0.248-0.363,0.373-0.601,0.373c-0.185,0-0.488-0.109-0.91-0.326v-0.193
		c0-0.237,0.005-0.592,0.016-1.057c0.011-0.467,0.017-0.807,0.017-1.023c0-2.317-0.345-3.479-1.034-3.479
		c-0.194,0-0.415,0.152-0.663,0.455c-0.765,0.932-1.147,2.053-1.147,3.363c0,0.186,0.035,0.459,0.105,0.822
		c0.07,0.36,0.105,0.635,0.105,0.819c0,0.15-0.07,0.275-0.211,0.373c-0.141,0.099-0.292,0.146-0.455,0.146
		c-0.65,0-0.975-0.411-0.975-1.233v-3.396c0-0.088,0.011-0.215,0.033-0.383c0.021-0.168,0.032-0.296,0.032-0.382
		c0-0.131-0.019-0.319-0.057-0.567c-0.038-0.25-0.057-0.435-0.057-0.553c0-0.175,0.1-0.341,0.301-0.496
		c0.2-0.156,0.382-0.236,0.544-0.236c0.238,0,0.482,0.137,0.731,0.406l-0.048,0.649c0.4-0.64,0.894-0.959,1.479-0.959
		c0.379,0,0.78,0.131,1.203,0.392c0.423,0.26,0.731,0.553,0.926,0.877c0.444,0.823,0.666,1.905,0.666,3.25V78.795z"/>
	<path fill="#444445" d="M54.365,73.09c0,0.293-0.444,0.498-1.333,0.617C53.01,73.945,53,74.488,53,75.332v1.072
		c0,0.217,0.033,0.537,0.098,0.959c0.065,0.424,0.097,0.738,0.097,0.943c0,0.174-0.086,0.327-0.26,0.463
		c-0.174,0.135-0.347,0.203-0.52,0.203c-0.271,0-0.499-0.232-0.683-0.699c-0.141-0.357-0.211-0.703-0.211-1.039v-3.445
		c-0.499-0.076-0.786-0.125-0.861-0.146c-0.282-0.086-0.423-0.211-0.423-0.373c0-0.043,0.011-0.092,0.033-0.146
		c0.282-0.399,0.596-0.603,0.942-0.603c0.021,0,0.054,0,0.098,0c0.043,0.013,0.076,0.017,0.098,0.017
		c0.228,0,0.335-0.267,0.325-0.795v-1.188c-0.054-0.119-0.081-0.221-0.081-0.309c0-0.141,0.083-0.268,0.249-0.381
		c0.167-0.115,0.325-0.172,0.475-0.172c0.225,0,0.44,0.104,0.644,0.317c0.204,0.212,0.306,0.437,0.306,0.675
		c0,0.26-0.041,0.518-0.122,0.771s-0.117,0.519-0.105,0.789v0.063C53.942,72.396,54.365,72.656,54.365,73.09z"/>
	<path fill="#444445" d="M59.402,73.318c0,0.076-0.011,0.195-0.032,0.356c-0.228,0.324-0.466,0.486-0.715,0.486
		c-0.206,0-0.39-0.119-0.552-0.356c-0.022-0.486-0.195-0.73-0.52-0.73c-0.195,0-0.434,0.514-0.715,1.543
		c-0.13,0.455-0.195,1.09-0.195,1.902c0,0.77,0.035,1.233,0.106,1.396c0.081,0.207,0.121,0.349,0.121,0.424
		c0,0.185-0.083,0.332-0.25,0.445c-0.167,0.114-0.352,0.172-0.555,0.172c-0.579,0-0.869-0.271-0.869-0.812
		c0-0.056,0.014-0.131,0.041-0.229s0.041-0.168,0.041-0.211c0-0.554-0.027-1.373-0.082-2.461c-0.054-1.091-0.081-1.904-0.081-2.447
		c0-0.485,0.292-0.729,0.877-0.729c0.347,0,0.585,0.104,0.715,0.309c0.303-0.336,0.645-0.504,1.024-0.504
		c0.26,0,0.509,0.07,0.748,0.211c0.163,0.088,0.352,0.273,0.569,0.561C59.293,72.93,59.402,73.154,59.402,73.318z"/>
	<path fill="#444445" d="M65.496,75.707c0,0.975-0.244,1.809-0.731,2.502c-0.563,0.791-1.311,1.186-2.242,1.186
		c-0.954,0-1.674-0.324-2.162-0.975c-0.444-0.574-0.666-1.354-0.666-2.34c0-0.975,0.244-1.896,0.731-2.762
		c0.563-1.029,1.294-1.545,2.194-1.545c0.282,0,0.634,0.125,1.056,0.375C64.889,72.873,65.496,74.061,65.496,75.707z M64.066,75.674
		c0-1.658-0.401-2.486-1.203-2.486c-0.574,0-1.007,0.353-1.3,1.058c-0.217,0.53-0.325,1.133-0.325,1.803
		c0,1.441,0.428,2.162,1.284,2.162c0.552,0,0.964-0.297,1.235-0.896C63.963,76.859,64.066,76.312,64.066,75.674z"/>
	<path fill="#444445" d="M72.158,69.027c0,0.238-0.032,0.547-0.097,0.926c-0.087,0.51-0.141,0.812-0.163,0.91
		c-0.033,0.336-0.084,1.328-0.154,2.975c-0.071,1.646-0.106,2.557-0.106,2.73c0,1.039,0.114,1.82,0.341,2.34
		c-0.184,0.303-0.396,0.455-0.634,0.455c-0.249,0-0.471-0.096-0.666-0.285c-0.195-0.189-0.303-0.408-0.325-0.658
		c-0.509,0.467-1.029,0.699-1.56,0.699c-0.791,0-1.403-0.277-1.836-0.828c-0.401-0.498-0.602-1.154-0.602-1.967
		c0-0.953,0.195-1.924,0.585-2.908c0.498-1.246,1.148-1.869,1.95-1.869c0.477,0,0.964,0.211,1.462,0.633
		c0.054-0.508,0.082-1.809,0.082-3.9c0-0.192,0.146-0.29,0.438-0.29c0.347,0,0.647,0.086,0.902,0.26S72.158,68.682,72.158,69.027z
		 M70.273,74.537c0-0.369-0.081-0.705-0.244-1.008c-0.206-0.369-0.477-0.553-0.812-0.553c-0.488,0-0.861,0.481-1.122,1.444
		c-0.195,0.693-0.292,1.377-0.292,2.05c0,1.008,0.292,1.512,0.878,1.512c0.606,0,1.045-0.451,1.316-1.351
		C70.181,76.025,70.273,75.328,70.273,74.537z"/>
	<path fill="#444445" d="M78.138,73.104c0,0.336-0.041,0.842-0.122,1.519c-0.082,0.676-0.122,1.187-0.122,1.53
		c0,0.304,0.014,0.755,0.041,1.354c0.027,0.601,0.041,1.045,0.041,1.338c0,0.248-0.211,0.373-0.634,0.373
		c-0.434,0-0.71-0.207-0.829-0.616c-0.412,0.27-0.812,0.405-1.202,0.405c-0.314,0-0.672-0.084-1.073-0.252
		c-0.401-0.168-0.683-0.371-0.845-0.608c-0.314-0.455-0.472-1.188-0.472-2.193c0-0.348,0.011-0.955,0.033-1.82
		c0.033-0.77,0.043-1.371,0.033-1.805c0.328-0.238,0.602-0.357,0.82-0.357c0.525,0,0.788,0.256,0.788,0.764
		c0,0.175-0.027,0.435-0.081,0.781c-0.054,0.346-0.081,0.605-0.081,0.779v2.291c0,0.26,0.07,0.531,0.211,0.812
		c0.173,0.324,0.379,0.487,0.618,0.487c0.465,0,0.812-0.299,1.04-0.895c0.151-0.412,0.228-0.91,0.228-1.494v-1.951
		c0-0.248-0.065-0.558-0.195-0.926c0.271-0.25,0.531-0.373,0.78-0.373c0.26,0,0.496,0.08,0.707,0.241
		C78.032,72.65,78.138,72.855,78.138,73.104z"/>
	<path fill="#444445" d="M84.639,77.072c0,0.336-0.256,0.729-0.764,1.186c-0.455,0.422-0.865,0.688-1.229,0.797
		c-0.361,0.107-0.705,0.162-1.031,0.162c-0.855,0-1.525-0.271-2.007-0.812c-0.482-0.54-0.723-1.239-0.723-2.096
		c0-0.834,0.222-1.766,0.667-2.795c0.531-1.236,1.148-1.854,1.853-1.854c0.391,0,0.861,0.152,1.414,0.455
		c0.584,0.336,0.927,0.672,1.023,1.008c0.086,0.293,0.131,0.623,0.131,0.99c0,0.336-0.072,0.715-0.213,1.139
		c-0.172,0.541-0.389,0.812-0.648,0.812c-0.186,0-0.356-0.056-0.521-0.162c-0.194-0.119-0.291-0.264-0.291-0.438
		c0-0.01,0.05-0.133,0.146-0.371c0.055-0.106,0.082-0.403,0.082-0.889c0-0.397-0.017-0.658-0.049-0.774
		c-0.064-0.334-0.218-0.503-0.455-0.503c-0.531,0-0.942,0.459-1.235,1.378c-0.217,0.68-0.325,1.364-0.325,2.057
		c0,1.156,0.368,1.734,1.104,1.734c0.293,0,0.629-0.152,1.009-0.455c0.346-0.281,0.59-0.568,0.729-0.861
		c0.174-0.348,0.385-0.521,0.635-0.521c0.162,0,0.318,0.095,0.472,0.283S84.639,76.908,84.639,77.072z"/>
	<path fill="#444445" d="M88.605,73.09c0,0.293-0.443,0.498-1.332,0.617c-0.021,0.238-0.032,0.781-0.032,1.625v1.072
		c0,0.217,0.032,0.537,0.098,0.959c0.063,0.424,0.099,0.738,0.099,0.943c0,0.174-0.088,0.327-0.262,0.463
		c-0.173,0.135-0.347,0.203-0.52,0.203c-0.271,0-0.498-0.232-0.684-0.699c-0.141-0.357-0.211-0.703-0.211-1.039v-3.445
		c-0.498-0.076-0.785-0.125-0.861-0.146c-0.281-0.086-0.422-0.211-0.422-0.373c0-0.043,0.011-0.092,0.033-0.146
		c0.28-0.399,0.594-0.603,0.941-0.603c0.021,0,0.054,0,0.097,0c0.044,0.013,0.076,0.017,0.099,0.017
		c0.228,0,0.336-0.267,0.324-0.795v-1.188c-0.055-0.119-0.08-0.221-0.08-0.309c0-0.141,0.082-0.268,0.248-0.381
		c0.168-0.115,0.325-0.172,0.476-0.172c0.226,0,0.44,0.104,0.646,0.317c0.202,0.212,0.305,0.437,0.305,0.675
		c0,0.26-0.041,0.518-0.121,0.771c-0.082,0.253-0.116,0.519-0.105,0.789v0.063C88.184,72.396,88.605,72.656,88.605,73.09z"/>
	<path fill="#444445" d="M91.206,72.652c0,0.193-0.043,0.471-0.13,0.828c-0.087,0.356-0.131,0.633-0.131,0.828v3.348
		c0,0.207,0.064,0.531,0.195,0.975c-0.164,0.25-0.345,0.375-0.541,0.375c-0.689,0-1.066-0.342-1.133-1.023
		c-0.107-1.268-0.162-2.221-0.162-2.86c0-1.072,0.043-1.972,0.129-2.697c0-0.055,0-0.106,0-0.161c0-0.195,0.15-0.293,0.451-0.293
		c0.27,0,0.536,0.055,0.807,0.161C91.034,72.25,91.206,72.424,91.206,72.652z M91.354,70.377c0,0.238-0.082,0.434-0.244,0.584
		c-0.162,0.152-0.363,0.229-0.602,0.229c-0.281,0-0.545-0.098-0.787-0.293c-0.244-0.194-0.367-0.434-0.367-0.715
		c0-0.238,0.084-0.434,0.252-0.586c0.168-0.15,0.377-0.227,0.627-0.227c0.291,0,0.552,0.096,0.778,0.285
		C91.238,69.843,91.354,70.084,91.354,70.377z"/>
	<path fill="#444445" d="M97.459,75.707c0,0.975-0.244,1.809-0.73,2.502c-0.563,0.791-1.312,1.186-2.242,1.186
		c-0.954,0-1.674-0.324-2.161-0.975c-0.444-0.574-0.667-1.354-0.667-2.34c0-0.975,0.244-1.896,0.73-2.762
		c0.563-1.029,1.295-1.545,2.194-1.545c0.28,0,0.634,0.125,1.056,0.375C96.854,72.873,97.459,74.061,97.459,75.707z M96.029,75.674
		c0-1.658-0.401-2.486-1.203-2.486c-0.574,0-1.008,0.353-1.301,1.058c-0.217,0.53-0.324,1.133-0.324,1.803
		c0,1.441,0.428,2.162,1.283,2.162c0.554,0,0.965-0.297,1.234-0.896C95.926,76.859,96.029,76.312,96.029,75.674z"/>
	<path fill="#444445" d="M104.283,78.795c-0.162,0.248-0.363,0.373-0.602,0.373c-0.185,0-0.488-0.109-0.91-0.326v-0.193
		c0-0.237,0.006-0.592,0.017-1.057c0.011-0.467,0.017-0.807,0.017-1.023c0-2.317-0.345-3.479-1.033-3.479
		c-0.194,0-0.416,0.152-0.662,0.455c-0.767,0.932-1.147,2.053-1.147,3.363c0,0.186,0.035,0.459,0.104,0.822
		c0.07,0.36,0.105,0.635,0.105,0.819c0,0.15-0.07,0.275-0.211,0.373c-0.141,0.099-0.293,0.146-0.455,0.146
		c-0.65,0-0.975-0.411-0.975-1.233v-3.396c0-0.088,0.01-0.215,0.031-0.383s0.033-0.296,0.033-0.382c0-0.131-0.02-0.319-0.058-0.567
		c-0.038-0.25-0.058-0.435-0.058-0.553c0-0.175,0.101-0.341,0.301-0.496c0.201-0.156,0.383-0.236,0.545-0.236
		c0.238,0,0.48,0.137,0.73,0.406l-0.049,0.649c0.4-0.64,0.895-0.959,1.479-0.959c0.38,0,0.781,0.131,1.203,0.392
		c0.422,0.26,0.73,0.553,0.927,0.877c0.444,0.823,0.666,1.905,0.666,3.25L104.283,78.795L104.283,78.795z"/>
</g>
<path fill="none" stroke="#444445" stroke-linecap="round" stroke-miterlimit="10" d="M156.505,1.202
	c0,16.028-22.337,49.528-36.837,49.528"/>
<path fill="#444445" d="M161.705,7.709c-0.223,0.163-0.536,0.115-0.699-0.108l-4.52-6.172l-3.682,6.706
	c-0.134,0.242-0.438,0.331-0.68,0.198c-0.242-0.133-0.329-0.439-0.198-0.679l4.06-7.394c0.082-0.15,0.234-0.247,0.406-0.259
	c0.17-0.011,0.334,0.066,0.437,0.204l4.983,6.805c0.059,0.079,0.09,0.171,0.096,0.262C161.919,7.437,161.848,7.604,161.705,7.709"/>
</svg>
