<?xml version="1.0" encoding="utf-8"?>
<!-- Generator: Adobe Illustrator 16.0.0, SVG Export Plug-In . SVG Version: 6.00 Build 0)  -->
<!DOCTYPE svg PUBLIC "-//W3C//DTD SVG 1.1//EN" "http://www.w3.org/Graphics/SVG/1.1/DTD/svg11.dtd">
<svg version="1.1" id="Layer_1" xmlns="http://www.w3.org/2000/svg" xmlns:xlink="http://www.w3.org/1999/xlink" x="0px" y="0px"
	 width="144px" height="70px" viewBox="0 0 144 70" enable-background="new 0 0 144 70" xml:space="preserve">
<g>
	<path fill="#444445" d="M10.601,49.967c0,0.205-0.054,0.453-0.163,0.744c-0.271,0.712-0.78,1.271-1.527,1.684
		c-0.683,0.365-1.43,0.549-2.243,0.549c-1.333,0-2.356-0.502-3.071-1.508c-0.617-0.877-0.926-2.008-0.926-3.393
		c0-1.146,0.179-2.223,0.537-3.229c0.4-1.146,0.991-2.045,1.771-2.693c0.618-0.51,1.246-0.764,1.885-0.764
		c0.92,0,1.619,0.4,2.096,1.203c0.39,0.649,0.585,1.469,0.585,2.453c0,0.444-0.114,1.002-0.341,1.674
		c-0.271,0.823-0.574,1.234-0.91,1.234c-0.379,0-0.666-0.236-0.861-0.715c0.108-0.075,0.26-0.2,0.455-0.373
		c0.217-0.238,0.325-0.704,0.325-1.398c0-0.67-0.071-1.24-0.211-1.705c-0.217-0.705-0.574-1.057-1.072-1.057
		c-0.347,0-0.726,0.223-1.138,0.665c-0.314,0.335-0.58,0.708-0.796,1.119C4.465,45.496,4.2,46.788,4.2,48.335
		c0,2.249,0.845,3.374,2.535,3.374c0.726,0,1.3-0.205,1.723-0.613c0.173-0.184,0.428-0.564,0.764-1.146
		c0.228-0.42,0.471-0.631,0.731-0.631c0.173,0,0.325,0.068,0.455,0.203C10.536,49.657,10.601,49.807,10.601,49.967z"/>
	<path fill="#444445" d="M13.574,52.195c0,0.195-0.079,0.361-0.236,0.496c-0.157,0.136-0.338,0.203-0.544,0.203
		c-0.682,0-1.023-0.895-1.023-2.682c0-0.812,0.008-2.031,0.024-3.656s0.024-2.844,0.024-3.656c0-0.129-0.017-0.318-0.049-0.568
		c-0.033-0.249-0.049-0.434-0.049-0.553c0.357-0.237,0.639-0.357,0.845-0.357c0.238,0,0.466,0.079,0.683,0.236
		c0.217,0.156,0.325,0.354,0.325,0.593c0,0.119-0.027,0.26-0.082,0.423c-0.076,0.26-0.119,0.4-0.13,0.422
		c-0.141,0.672-0.211,1.625-0.211,2.86c0,1.961,0,2.969,0,3.022c0.032,1.364,0.146,2.317,0.341,2.859
		C13.547,51.99,13.574,52.109,13.574,52.195z"/>
	<path fill="#444445" d="M16.275,46.379c0,0.194-0.043,0.471-0.13,0.828s-0.13,0.634-0.13,0.829v3.348
		c0,0.206,0.065,0.53,0.195,0.976c-0.164,0.248-0.345,0.373-0.542,0.373c-0.689,0-1.067-0.342-1.132-1.022
		c-0.108-1.269-0.163-2.221-0.163-2.86c0-1.072,0.043-1.972,0.13-2.697c0-0.055,0-0.107,0-0.162c0-0.194,0.15-0.292,0.451-0.292
		c0.268,0,0.537,0.054,0.805,0.161C16.103,45.979,16.275,46.15,16.275,46.379z M16.421,44.104c0,0.238-0.082,0.435-0.244,0.586
		c-0.163,0.151-0.363,0.228-0.602,0.228c-0.282,0-0.544-0.099-0.788-0.293s-0.366-0.433-0.366-0.715
		c0-0.238,0.084-0.433,0.252-0.585c0.168-0.151,0.376-0.229,0.625-0.229c0.292,0,0.553,0.096,0.78,0.285
		S16.421,43.811,16.421,44.104z"/>
	<path fill="#444445" d="M22.775,50.799c0,0.336-0.255,0.73-0.764,1.186c-0.455,0.424-0.864,0.688-1.227,0.798
		c-0.363,0.108-0.707,0.161-1.032,0.161c-0.856,0-1.525-0.271-2.007-0.812s-0.723-1.239-0.723-2.096
		c0-0.834,0.222-1.767,0.667-2.795c0.531-1.235,1.148-1.853,1.853-1.853c0.39,0,0.861,0.15,1.414,0.453
		c0.585,0.336,0.926,0.672,1.024,1.008c0.086,0.293,0.13,0.623,0.13,0.991c0,0.336-0.07,0.716-0.211,1.138
		c-0.173,0.543-0.39,0.812-0.65,0.812c-0.184,0-0.357-0.055-0.52-0.162c-0.195-0.118-0.292-0.264-0.292-0.438
		c0-0.01,0.049-0.133,0.146-0.371c0.054-0.106,0.081-0.403,0.081-0.889c0-0.398-0.016-0.658-0.049-0.775
		c-0.065-0.334-0.217-0.502-0.455-0.502c-0.531,0-0.943,0.46-1.235,1.377c-0.217,0.681-0.325,1.365-0.325,2.058
		c0,1.155,0.368,1.733,1.105,1.733c0.292,0,0.628-0.151,1.007-0.455c0.347-0.281,0.59-0.568,0.731-0.861
		c0.173-0.347,0.384-0.52,0.634-0.52c0.162,0,0.319,0.095,0.471,0.283C22.699,50.46,22.775,50.636,22.775,50.799z"/>
	<path fill="#444445" d="M29.957,53.139c-0.412,0.303-0.737,0.455-0.975,0.455c-0.314,0-0.769-0.324-1.365-0.976
		c-0.423-0.455-0.84-0.915-1.251-1.382c-0.238-0.28-0.617-0.676-1.137-1.187l-0.049,0.033v1.431c0,0.086,0.035,0.213,0.105,0.381
		c0.07,0.168,0.105,0.301,0.105,0.398c0,0.15-0.079,0.284-0.235,0.396c-0.157,0.115-0.317,0.172-0.479,0.172
		c-0.282,0-0.515-0.092-0.699-0.276s-0.276-0.417-0.276-0.698v-2.146c0-0.13,0.017-0.327,0.049-0.593
		c0.033-0.267,0.049-0.465,0.049-0.594v-4.371c0-0.66-0.045-1.191-0.135-1.594c-0.04-0.184-0.06-0.324-0.06-0.422
		c0-0.206,0.124-0.391,0.374-0.553c0.217-0.151,0.433-0.229,0.65-0.229c0.163,0,0.338,0.062,0.528,0.188
		c0.189,0.125,0.284,0.264,0.284,0.415c0,0.043-0.035,0.194-0.104,0.454c-0.069,0.261-0.104,0.662-0.104,1.203
		c0,0.174-0.018,1.619-0.052,4.338c0.043-0.043,0.63-0.578,1.762-1.607c0.935-0.867,1.484-1.301,1.647-1.301
		c0.576,0,0.854,0.354,0.832,1.057v0.162c-0.468,0.271-1.073,0.699-1.813,1.284c-0.937,0.726-1.405,1.208-1.405,1.446
		c0,0.021,0.294,0.363,0.881,1.022c0.555,0.629,0.903,1.019,1.045,1.17c0.653,0.683,1.262,1.148,1.828,1.397V53.139z"/>
	<path fill="#444445" d="M37.188,46.816c0,0.293-0.444,0.498-1.333,0.617c-0.021,0.238-0.032,0.78-0.032,1.625v1.072
		c0,0.217,0.033,0.537,0.098,0.959c0.065,0.424,0.097,0.737,0.097,0.942c0,0.174-0.086,0.327-0.26,0.464
		c-0.173,0.135-0.347,0.203-0.52,0.203c-0.271,0-0.499-0.233-0.683-0.699c-0.141-0.357-0.211-0.704-0.211-1.04v-3.444
		c-0.499-0.076-0.786-0.125-0.861-0.146c-0.282-0.087-0.423-0.212-0.423-0.374c0-0.043,0.011-0.093,0.033-0.146
		c0.282-0.4,0.596-0.603,0.942-0.603c0.021,0,0.054,0,0.098,0c0.043,0.012,0.076,0.017,0.098,0.017c0.228,0,0.335-0.266,0.325-0.796
		v-1.187c-0.054-0.119-0.081-0.223-0.081-0.309c0-0.142,0.083-0.27,0.249-0.383c0.167-0.113,0.325-0.171,0.475-0.171
		c0.225,0,0.44,0.104,0.644,0.317c0.204,0.211,0.306,0.436,0.306,0.674c0,0.26-0.041,0.518-0.122,0.771s-0.117,0.518-0.105,0.789
		v0.063C36.766,46.124,37.188,46.384,37.188,46.816z"/>
	<path fill="#444445" d="M43.263,49.434c0,0.976-0.244,1.811-0.731,2.502c-0.563,0.791-1.311,1.188-2.242,1.188
		c-0.954,0-1.674-0.325-2.162-0.975c-0.444-0.574-0.666-1.354-0.666-2.34c0-0.977,0.244-1.896,0.731-2.764
		c0.563-1.029,1.294-1.544,2.194-1.544c0.282,0,0.634,0.125,1.056,0.374C42.656,46.602,43.263,47.787,43.263,49.434z M41.833,49.4
		c0-1.657-0.401-2.485-1.203-2.485c-0.574,0-1.007,0.353-1.3,1.056c-0.217,0.531-0.325,1.133-0.325,1.805
		c0,1.44,0.428,2.16,1.284,2.16c0.552,0,0.964-0.297,1.235-0.894C41.729,50.587,41.833,50.04,41.833,49.4z"/>
	<path fill="#444445" d="M52.72,49.434c0,0.976-0.244,1.811-0.731,2.502c-0.563,0.791-1.311,1.188-2.242,1.188
		c-0.954,0-1.674-0.325-2.162-0.975c-0.444-0.574-0.666-1.354-0.666-2.34c0-0.977,0.244-1.896,0.731-2.764
		c0.563-1.029,1.294-1.544,2.194-1.544c0.282,0,0.634,0.125,1.056,0.374C52.113,46.602,52.72,47.787,52.72,49.434z M51.29,49.4
		c0-1.657-0.401-2.485-1.203-2.485c-0.574,0-1.007,0.353-1.3,1.056c-0.217,0.531-0.325,1.133-0.325,1.805
		c0,1.44,0.428,2.16,1.284,2.16c0.552,0,0.964-0.297,1.235-0.894C51.187,50.587,51.29,50.04,51.29,49.4z"/>
	<path fill="#444445" d="M59.268,48.768c0,1.104-0.195,2.043-0.585,2.812c-0.487,0.997-1.224,1.495-2.21,1.495
		c-0.531,0-0.986-0.151-1.365-0.455c0,0.119,0,0.281,0,0.488c0,0.236,0,0.399,0,0.486c0,1.04,0.119,1.857,0.357,2.453
		c0.108,0.238,0.163,0.391,0.163,0.455c0,0.368-0.217,0.553-0.65,0.553c-0.325,0-0.569-0.06-0.731-0.179
		c-0.119-0.076-0.238-0.347-0.357-0.812c-0.098-0.412-0.146-0.727-0.146-0.942v-3.916c0-0.356,0.021-0.847,0.065-1.463
		c0.043-0.693,0.07-1.175,0.082-1.446c0.011-0.271,0.011-0.628,0-1.072c0-0.562,0-0.927,0-1.089c0-0.921,0.3-1.381,0.9-1.381
		c0.15,0,0.289,0.052,0.418,0.154c0.128,0.103,0.193,0.225,0.193,0.364c0,0.238-0.027,0.672-0.082,1.301
		c0.423-0.596,0.932-0.895,1.528-0.895c0.801,0,1.419,0.325,1.853,0.975C59.079,47.218,59.268,47.922,59.268,48.768z M57.822,48.621
		c0-1.17-0.251-1.755-0.752-1.755c-0.218,0-0.501,0.211-0.85,0.634c-0.676,0.812-1.046,1.934-1.111,3.363
		c0.12,0.064,0.332,0.293,0.638,0.683c0.239,0.293,0.479,0.438,0.719,0.438C57.37,51.984,57.822,50.863,57.822,48.621z"/>
	<path fill="#444445" d="M65.606,51.205c0,0.542-0.369,0.964-1.105,1.268c-0.575,0.237-1.176,0.357-1.804,0.357
		c-1.668,0-2.503-0.948-2.503-2.844c0-0.78,0.189-1.646,0.569-2.602c0.466-1.17,1.029-1.755,1.69-1.755
		c0.596,0,1.238,0.267,1.926,0.797s1.032,1.083,1.032,1.657c0,0.715-0.319,1.283-0.958,1.706c-0.563,0.379-1.235,0.567-2.015,0.567
		c-0.152,0-0.396-0.092-0.731-0.274c0.043,1.028,0.346,1.543,0.91,1.543c0.477,0,0.945-0.135,1.406-0.405
		c0.46-0.271,0.755-0.406,0.886-0.406C65.373,50.814,65.606,50.943,65.606,51.205z M63.834,48.134c0-0.271-0.079-0.528-0.235-0.772
		c-0.157-0.242-0.366-0.364-0.626-0.364c-0.357,0-0.634,0.157-0.829,0.471c-0.163,0.271-0.244,0.591-0.244,0.959
		c0,0.206,0.07,0.374,0.211,0.505c0.141,0.129,0.319,0.194,0.536,0.194C63.439,49.125,63.834,48.795,63.834,48.134z"/>
	<path fill="#444445" d="M72.333,52.521c-0.162,0.248-0.363,0.373-0.601,0.373c-0.185,0-0.488-0.108-0.91-0.326v-0.193
		c0-0.238,0.005-0.591,0.016-1.057c0.011-0.467,0.017-0.808,0.017-1.023c0-2.318-0.345-3.479-1.034-3.479
		c-0.194,0-0.415,0.151-0.663,0.455c-0.765,0.933-1.147,2.054-1.147,3.363c0,0.186,0.035,0.458,0.105,0.821
		c0.07,0.362,0.105,0.636,0.105,0.819c0,0.151-0.07,0.276-0.211,0.375c-0.141,0.097-0.292,0.146-0.455,0.146
		c-0.65,0-0.975-0.411-0.975-1.233v-3.396c0-0.087,0.011-0.214,0.033-0.382c0.021-0.168,0.032-0.295,0.032-0.382
		c0-0.131-0.019-0.319-0.057-0.568c-0.038-0.25-0.057-0.434-0.057-0.553c0-0.174,0.1-0.34,0.301-0.496
		c0.2-0.156,0.382-0.235,0.544-0.235c0.238,0,0.482,0.136,0.731,0.406l-0.048,0.649c0.4-0.64,0.894-0.959,1.479-0.959
		c0.379,0,0.78,0.131,1.203,0.391c0.423,0.26,0.731,0.553,0.926,0.878c0.444,0.823,0.666,1.905,0.666,3.25V52.521z"/>
	<path fill="#444445" d="M81.416,51.205c0,0.542-0.368,0.964-1.104,1.268c-0.574,0.237-1.176,0.357-1.805,0.357
		c-1.669,0-2.503-0.948-2.503-2.844c0-0.78,0.188-1.646,0.569-2.602c0.465-1.17,1.027-1.755,1.689-1.755
		c0.596,0,1.236,0.267,1.926,0.797c0.688,0.53,1.031,1.083,1.031,1.657c0,0.715-0.32,1.283-0.959,1.706
		c-0.562,0.379-1.234,0.567-2.015,0.567c-0.151,0-0.396-0.092-0.731-0.274c0.043,1.028,0.348,1.543,0.91,1.543
		c0.477,0,0.944-0.135,1.405-0.405c0.46-0.271,0.756-0.406,0.886-0.406C81.184,50.814,81.416,50.943,81.416,51.205z M79.646,48.134
		c0-0.271-0.08-0.528-0.236-0.772c-0.157-0.242-0.365-0.364-0.625-0.364c-0.357,0-0.635,0.157-0.829,0.471
		c-0.162,0.271-0.244,0.591-0.244,0.959c0,0.206,0.07,0.374,0.212,0.505c0.141,0.129,0.319,0.194,0.536,0.194
		C79.25,49.125,79.646,48.795,79.646,48.134z"/>
	<path fill="#444445" d="M88.043,52.163c0,0.163-0.119,0.312-0.357,0.446c-0.237,0.136-0.449,0.203-0.634,0.203
		c-0.487,0-0.991-0.297-1.511-0.894c-0.368-0.498-0.736-1.002-1.105-1.512c-0.486,0.553-1.152,1.651-1.998,3.299
		c-0.77-0.162-1.153-0.493-1.153-0.991c0-0.357,0.808-1.506,2.422-3.443c-0.033-0.152-0.304-0.586-0.812-1.301
		c-0.455-0.65-0.787-1.09-0.992-1.316c0.195-0.51,0.541-0.764,1.041-0.764c0.367,0,0.709,0.281,1.022,0.846
		c0.218,0.434,0.433,0.865,0.649,1.3c1.322-1.562,2.129-2.341,2.422-2.341c0.205,0,0.384,0.076,0.536,0.229
		c0.151,0.151,0.228,0.324,0.228,0.52c0,0.186-0.412,0.664-1.234,1.438c-0.823,0.774-1.234,1.222-1.234,1.341
		c0,0.131,0.324,0.574,0.975,1.332c0.65,0.76,1.023,1.139,1.121,1.139c0.108,0,0.314-0.039,0.617-0.114v0.584H88.043z"/>
	<path fill="#444445" d="M91.146,46.379c0,0.194-0.043,0.471-0.131,0.828c-0.086,0.357-0.129,0.634-0.129,0.829v3.348
		c0,0.206,0.063,0.53,0.194,0.976c-0.164,0.248-0.345,0.373-0.542,0.373c-0.689,0-1.066-0.342-1.132-1.022
		c-0.108-1.269-0.163-2.221-0.163-2.86c0-1.072,0.043-1.972,0.13-2.697c0-0.055,0-0.107,0-0.162c0-0.194,0.149-0.292,0.451-0.292
		c0.269,0,0.536,0.054,0.806,0.161C90.975,45.979,91.146,46.15,91.146,46.379z M91.293,44.104c0,0.238-0.081,0.435-0.244,0.586
		c-0.162,0.151-0.363,0.228-0.601,0.228c-0.282,0-0.546-0.099-0.788-0.293c-0.244-0.194-0.366-0.433-0.366-0.715
		c0-0.238,0.084-0.433,0.252-0.585c0.168-0.151,0.376-0.229,0.626-0.229c0.292,0,0.553,0.096,0.779,0.285
		S91.293,43.811,91.293,44.104z"/>
	<path fill="#444445" d="M97.025,50.993c0,0.51-0.217,0.954-0.649,1.333c-0.478,0.41-1.116,0.617-1.918,0.617
		c-0.347,0.011-0.722-0.061-1.121-0.211c-1.3-0.487-1.95-0.883-1.95-1.188c0-0.477,0.342-0.715,1.024-0.715
		c0.097,0,0.2,0.006,0.31,0.018c0.031,0.323,0.291,0.584,0.778,0.778c0.423,0.174,0.829,0.244,1.219,0.212
		c0.314-0.021,0.472-0.136,0.472-0.342c0-0.032-0.008-0.081-0.023-0.146c-0.018-0.063-0.023-0.115-0.023-0.154
		c0-0.036-0.207-0.12-0.617-0.252c-0.467-0.141-0.728-0.221-0.78-0.242c-1.235-0.736-1.853-1.625-1.853-2.665
		c0-0.628,0.178-1.208,0.535-1.739c0.4-0.585,0.899-0.877,1.495-0.877c0.444,0,0.951,0.173,1.521,0.52
		c0.568,0.348,0.918,0.722,1.048,1.121c0.087,0.282,0.13,0.517,0.13,0.699c0,0.195-0.027,0.357-0.081,0.487
		c-0.063,0.163-0.13,0.325-0.194,0.487c-0.205,0.142-0.412,0.211-0.617,0.211c-0.108,0-0.291-0.066-0.545-0.202
		s-0.382-0.252-0.382-0.351c0-0.043,0.064-0.185,0.194-0.422c0.076-0.142,0.113-0.261,0.113-0.357c0-0.649-0.254-0.975-0.764-0.975
		c-0.304,0-0.535,0.194-0.699,0.584c-0.119,0.305-0.179,0.629-0.179,0.976c0,0.434,0.31,0.823,0.927,1.17
		c0.562,0.25,1.133,0.504,1.707,0.764C96.717,50.414,97.025,50.701,97.025,50.993z"/>
	<path fill="#444445" d="M101.917,46.816c0,0.293-0.444,0.498-1.333,0.617c-0.021,0.238-0.032,0.78-0.032,1.625v1.072
		c0,0.217,0.032,0.537,0.099,0.959c0.063,0.424,0.098,0.737,0.098,0.942c0,0.174-0.087,0.327-0.262,0.464
		c-0.172,0.135-0.346,0.203-0.52,0.203c-0.271,0-0.498-0.233-0.683-0.699c-0.142-0.357-0.211-0.704-0.211-1.04v-3.444
		c-0.499-0.076-0.786-0.125-0.861-0.146c-0.282-0.087-0.423-0.212-0.423-0.374c0-0.043,0.011-0.093,0.033-0.146
		c0.281-0.4,0.595-0.603,0.941-0.603c0.021,0,0.055,0,0.098,0c0.043,0.012,0.076,0.017,0.098,0.017c0.229,0,0.336-0.266,0.325-0.796
		v-1.187c-0.056-0.119-0.081-0.223-0.081-0.309c0-0.142,0.083-0.27,0.249-0.383c0.167-0.113,0.325-0.171,0.475-0.171
		c0.226,0,0.44,0.104,0.646,0.317c0.203,0.211,0.306,0.436,0.306,0.674c0,0.26-0.041,0.518-0.122,0.771s-0.115,0.518-0.105,0.789
		v0.063C101.494,46.124,101.917,46.384,101.917,46.816z"/>
	<path fill="#444445" d="M104.518,46.379c0,0.194-0.043,0.471-0.131,0.828c-0.087,0.357-0.13,0.634-0.13,0.829v3.348
		c0,0.206,0.063,0.53,0.195,0.976c-0.164,0.248-0.345,0.373-0.542,0.373c-0.689,0-1.066-0.342-1.133-1.022
		c-0.107-1.269-0.162-2.221-0.162-2.86c0-1.072,0.043-1.972,0.13-2.697c0-0.055,0-0.107,0-0.162c0-0.194,0.149-0.292,0.45-0.292
		c0.27,0,0.537,0.054,0.807,0.161C104.346,45.979,104.518,46.15,104.518,46.379z M104.663,44.104c0,0.238-0.081,0.435-0.244,0.586
		c-0.162,0.151-0.362,0.228-0.601,0.228c-0.282,0-0.545-0.099-0.789-0.293c-0.243-0.194-0.365-0.433-0.365-0.715
		c0-0.238,0.084-0.433,0.252-0.585c0.168-0.151,0.376-0.229,0.626-0.229c0.292,0,0.552,0.096,0.778,0.285
		C104.548,43.57,104.663,43.811,104.663,44.104z"/>
	<path fill="#444445" d="M111.229,52.521c-0.162,0.248-0.363,0.373-0.603,0.373c-0.185,0-0.487-0.108-0.909-0.326v-0.193
		c0-0.238,0.006-0.591,0.016-1.057c0.012-0.467,0.018-0.808,0.018-1.023c0-2.318-0.346-3.479-1.034-3.479
		c-0.194,0-0.415,0.151-0.661,0.455c-0.767,0.933-1.147,2.054-1.147,3.363c0,0.186,0.034,0.458,0.104,0.821
		c0.07,0.362,0.105,0.636,0.105,0.819c0,0.151-0.07,0.276-0.211,0.375c-0.141,0.097-0.293,0.146-0.455,0.146
		c-0.65,0-0.975-0.411-0.975-1.233v-3.396c0-0.087,0.01-0.214,0.031-0.382s0.032-0.295,0.032-0.382c0-0.131-0.019-0.319-0.058-0.568
		c-0.037-0.25-0.057-0.434-0.057-0.553c0-0.174,0.1-0.34,0.301-0.496c0.2-0.156,0.383-0.235,0.545-0.235
		c0.237,0,0.48,0.136,0.73,0.406l-0.049,0.649c0.4-0.64,0.895-0.959,1.479-0.959c0.379,0,0.78,0.131,1.202,0.391
		c0.423,0.26,0.731,0.553,0.927,0.878c0.444,0.823,0.666,1.905,0.666,3.25v2.356H111.229z"/>
	<path fill="#444445" d="M117.955,47.809c-0.021,0.271-0.092,0.748-0.211,1.431c-0.107,0.596-0.162,1.071-0.162,1.431
		c0,0.324,0.016,0.812,0.049,1.462c0.032,0.65,0.049,1.138,0.049,1.464c0,0.67-0.064,1.17-0.195,1.494
		c-0.151,0.411-0.438,0.744-0.86,0.999s-0.86,0.382-1.315,0.382c-0.478,0-1.067-0.13-1.771-0.39
		c-0.846-0.304-1.268-0.64-1.268-1.008c0-0.478,0.223-0.716,0.666-0.716c0.205,0,0.348,0.061,0.422,0.18
		c0.142,0.217,0.236,0.347,0.285,0.39c0.049,0.044,0.226,0.095,0.527,0.154c0.305,0.06,0.516,0.09,0.635,0.09
		c0.975,0,1.463-0.612,1.463-1.836c0-0.358-0.018-0.661-0.05-0.91c-0.466,0.4-1.022,0.601-1.674,0.601
		c-0.271,0-0.573-0.074-0.91-0.228c-0.336-0.151-0.591-0.33-0.764-0.536c-0.336-0.39-0.504-0.969-0.504-1.738
		c0-0.92,0.212-1.934,0.634-3.039c0.521-1.354,1.154-2.03,1.9-2.03c0.455,0,0.89,0.211,1.301,0.634
		c0.304,0.401,0.605,0.796,0.91,1.188c0.087,0.107,0.222,0.205,0.406,0.291C117.744,47.673,117.891,47.755,117.955,47.809z
		 M116.314,48.783c0-0.162-0.076-0.299-0.229-0.406c-0.064-0.996-0.412-1.495-1.04-1.495c-0.356,0-0.655,0.505-0.894,1.513
		c-0.174,0.77-0.262,1.436-0.262,1.998c0,1.062,0.276,1.592,0.83,1.592c0.521,0,0.932-0.422,1.234-1.268
		C116.195,50.066,116.314,49.423,116.314,48.783z"/>
	<path fill="#444445" d="M125.643,46.816c0,0.293-0.444,0.498-1.334,0.617c-0.021,0.238-0.031,0.78-0.031,1.625v1.072
		c0,0.217,0.031,0.537,0.098,0.959c0.064,0.424,0.098,0.737,0.098,0.942c0,0.174-0.086,0.327-0.261,0.464
		c-0.173,0.135-0.347,0.203-0.521,0.203c-0.271,0-0.498-0.233-0.683-0.699c-0.141-0.357-0.211-0.704-0.211-1.04v-3.444
		c-0.499-0.076-0.786-0.125-0.86-0.146c-0.283-0.087-0.424-0.212-0.424-0.374c0-0.043,0.012-0.093,0.033-0.146
		c0.281-0.4,0.596-0.603,0.942-0.603c0.021,0,0.054,0,0.097,0c0.044,0.012,0.076,0.017,0.098,0.017c0.229,0,0.336-0.266,0.325-0.796
		v-1.187c-0.055-0.119-0.081-0.223-0.081-0.309c0-0.142,0.084-0.27,0.249-0.383c0.167-0.113,0.325-0.171,0.476-0.171
		c0.226,0,0.439,0.104,0.645,0.317c0.203,0.211,0.307,0.436,0.307,0.674c0,0.26-0.041,0.518-0.123,0.771
		c-0.08,0.254-0.115,0.518-0.104,0.789v0.063C125.219,46.124,125.643,46.384,125.643,46.816z"/>
	<path fill="#444445" d="M130.68,47.045c0,0.076-0.012,0.195-0.033,0.357c-0.228,0.324-0.465,0.486-0.715,0.486
		c-0.205,0-0.391-0.119-0.553-0.356c-0.021-0.487-0.195-0.731-0.521-0.731c-0.193,0-0.433,0.516-0.715,1.545
		c-0.129,0.454-0.193,1.088-0.193,1.9c0,0.77,0.035,1.234,0.105,1.396c0.08,0.207,0.121,0.348,0.121,0.424
		c0,0.184-0.084,0.332-0.25,0.445c-0.166,0.114-0.352,0.172-0.555,0.172c-0.58,0-0.869-0.271-0.869-0.812
		c0-0.055,0.014-0.13,0.04-0.229c0.026-0.098,0.041-0.168,0.041-0.211c0-0.553-0.026-1.373-0.081-2.461
		c-0.055-1.09-0.082-1.904-0.082-2.447c0-0.486,0.293-0.729,0.878-0.729c0.347,0,0.585,0.103,0.716,0.31
		c0.303-0.336,0.645-0.504,1.022-0.504c0.261,0,0.51,0.069,0.748,0.211c0.161,0.086,0.353,0.272,0.567,0.561
		C130.568,46.659,130.68,46.882,130.68,47.045z"/>
	<path fill="#444445" d="M136.443,51.205c0,0.542-0.368,0.964-1.104,1.268c-0.573,0.237-1.176,0.357-1.804,0.357
		c-1.669,0-2.503-0.948-2.503-2.844c0-0.78,0.188-1.646,0.569-2.602c0.465-1.17,1.027-1.755,1.688-1.755
		c0.596,0,1.237,0.267,1.926,0.797s1.032,1.083,1.032,1.657c0,0.715-0.32,1.283-0.959,1.706c-0.562,0.379-1.234,0.567-2.016,0.567
		c-0.151,0-0.396-0.092-0.73-0.274c0.043,1.028,0.348,1.543,0.91,1.543c0.477,0,0.943-0.135,1.404-0.405
		c0.461-0.271,0.756-0.406,0.887-0.406C136.211,50.814,136.443,50.943,136.443,51.205z M134.673,48.134
		c0-0.271-0.079-0.528-0.235-0.772c-0.158-0.242-0.365-0.364-0.625-0.364c-0.357,0-0.635,0.157-0.83,0.471
		c-0.162,0.271-0.243,0.591-0.243,0.959c0,0.206,0.069,0.374,0.212,0.505c0.141,0.129,0.318,0.194,0.535,0.194
		C134.277,49.125,134.673,48.795,134.673,48.134z"/>
	<path fill="#444445" d="M142.618,51.205c0,0.542-0.368,0.964-1.104,1.268c-0.574,0.237-1.176,0.357-1.804,0.357
		c-1.669,0-2.503-0.948-2.503-2.844c0-0.78,0.189-1.646,0.568-2.602c0.466-1.17,1.029-1.755,1.689-1.755
		c0.596,0,1.237,0.267,1.926,0.797s1.032,1.083,1.032,1.657c0,0.715-0.319,1.283-0.959,1.706c-0.563,0.379-1.235,0.567-2.015,0.567
		c-0.152,0-0.396-0.092-0.731-0.274c0.043,1.028,0.347,1.543,0.91,1.543c0.478,0,0.944-0.135,1.405-0.405
		c0.46-0.271,0.756-0.406,0.886-0.406C142.387,50.814,142.618,50.943,142.618,51.205z M140.848,48.134
		c0-0.271-0.078-0.528-0.236-0.772c-0.156-0.242-0.364-0.364-0.625-0.364c-0.356,0-0.633,0.157-0.828,0.471
		c-0.162,0.271-0.244,0.591-0.244,0.959c0,0.206,0.07,0.374,0.212,0.505c0.142,0.129,0.319,0.194,0.536,0.194
		C140.452,49.125,140.848,48.795,140.848,48.134z"/>
</g>
<path fill="none" stroke="#444445" stroke-linecap="round" stroke-miterlimit="10" d="M5.404,1.202
	c-1.227,15.535,6.54,28.242,16.056,37.796"/>
<path fill="#444445" d="M9.783,8.333C9.541,8.466,9.237,8.377,9.104,8.135L5.423,1.429l-4.52,6.172
	C0.739,7.824,0.426,7.872,0.204,7.709c-0.223-0.163-0.27-0.478-0.109-0.699L5.08,0.205C5.181,0.067,5.345-0.01,5.516,0.001
	C5.686,0.013,5.839,0.11,5.922,0.26l4.059,7.394c0.047,0.086,0.066,0.181,0.06,0.273C10.031,8.091,9.938,8.247,9.783,8.333"/>
</svg>
