<?xml version="1.0" encoding="utf-8"?>
<!-- Generator: Adobe Illustrator 16.0.0, SVG Export Plug-In . SVG Version: 6.00 Build 0)  -->
<!DOCTYPE svg PUBLIC "-//W3C//DTD SVG 1.1//EN" "http://www.w3.org/Graphics/SVG/1.1/DTD/svg11.dtd">
<svg version="1.1" id="Layer_1" xmlns="http://www.w3.org/2000/svg" xmlns:xlink="http://www.w3.org/1999/xlink" x="0px" y="0px"
	 width="140px" height="68px" viewBox="0 0 140 68" enable-background="new 0 0 140 68" xml:space="preserve">
<path fill="#444445" stroke="#FFFFFF" stroke-width="4" stroke-miterlimit="10" d="M88.423,12.062
	c-0.235-0.144-0.312-0.45-0.167-0.688l3.979-6.533l-7.604-0.843c-0.273-0.031-0.473-0.278-0.441-0.552
	c0.031-0.274,0.281-0.472,0.553-0.443l8.385,0.932c0.17,0.018,0.316,0.123,0.395,0.275c0.074,0.155,0.065,0.335-0.022,0.482
	l-4.39,7.201c-0.051,0.085-0.123,0.15-0.205,0.189C88.756,12.156,88.574,12.153,88.423,12.062"/>
<path fill="none" stroke="#FFFFFF" stroke-width="6" stroke-linecap="round" stroke-miterlimit="10" d="M91.792,5.351
	C78.627,7.06,59.627,17.935,53.579,35.792"/>
<g>
	<path fill="#444445" stroke="#FFFFFF" stroke-width="6" stroke-miterlimit="10" d="M13.839,37.498c0,1.703-0.39,3.238-1.17,4.605
		c-0.932,1.627-2.183,2.439-3.754,2.439c-0.563,0-1.051-0.119-1.462-0.357c-0.228,0.238-0.45,0.357-0.666,0.357
		c-0.13,0-0.282-0.07-0.455-0.212c-0.217-0.608-0.325-1.42-0.325-2.433c0-0.869,0.024-2.176,0.073-3.916
		c0.049-1.741,0.073-3.047,0.073-3.917c0-0.021-0.006-0.06-0.016-0.113c-0.011-0.055-0.017-0.099-0.017-0.131
		c0-0.196,0.07-0.354,0.211-0.474c0.141-0.119,0.309-0.18,0.504-0.18c0.271,0,0.512,0.098,0.723,0.293
		c0.211,0.194,0.29,0.422,0.235,0.683c0.553-0.812,1.338-1.219,2.356-1.219c1.235,0,2.183,0.466,2.844,1.4
		C13.557,35.148,13.839,36.207,13.839,37.498z M12.23,37.434c0-2.215-0.65-3.322-1.95-3.322c-0.531,0-1.056,0.271-1.576,0.814
		c-0.455,0.479-0.767,0.996-0.935,1.555c-0.168,0.56-0.252,1.176-0.252,1.849v3.499c0,1.021,0.428,1.529,1.284,1.529
		c0.77,0,1.468-0.396,2.097-1.188c0.52-0.673,0.877-1.438,1.072-2.296C12.144,39.104,12.23,38.29,12.23,37.434z"/>
	<path fill="#444445" stroke="#FFFFFF" stroke-width="6" stroke-miterlimit="10" d="M19.217,38.646c0,0.076-0.011,0.194-0.032,0.356
		c-0.228,0.325-0.466,0.487-0.715,0.487c-0.206,0-0.39-0.119-0.552-0.357c-0.022-0.486-0.195-0.73-0.52-0.73
		c-0.195,0-0.434,0.515-0.715,1.543c-0.13,0.455-0.195,1.09-0.195,1.902c0,0.77,0.035,1.234,0.106,1.396
		c0.081,0.206,0.121,0.347,0.121,0.423c0,0.185-0.083,0.333-0.25,0.446s-0.352,0.171-0.555,0.171c-0.579,0-0.869-0.271-0.869-0.812
		c0-0.055,0.014-0.131,0.041-0.229s0.041-0.168,0.041-0.211c0-0.553-0.027-1.373-0.082-2.463c-0.055-1.088-0.081-1.903-0.081-2.445
		c0-0.486,0.292-0.73,0.877-0.73c0.347,0,0.585,0.104,0.715,0.31c0.303-0.336,0.645-0.504,1.024-0.504
		c0.26,0,0.509,0.069,0.748,0.211c0.163,0.087,0.352,0.272,0.569,0.562C19.109,38.258,19.217,38.482,19.217,38.646z"/>
	<path fill="#444445" stroke="#FFFFFF" stroke-width="6" stroke-miterlimit="10" d="M26.075,41.473c0,1.397-0.043,2.385-0.13,2.959
		c-0.055,0.334-0.282,0.504-0.683,0.504c-0.607,0-0.877-0.305-0.812-0.91c-0.542,0.26-1.105,0.39-1.69,0.39
		c-0.563,0-1.1-0.142-1.609-0.423c-0.607-0.335-0.91-0.764-0.91-1.283c0-0.509,0.347-0.984,1.04-1.43
		c0.628-0.401,1.219-0.603,1.771-0.603h1.381V40.29c0.01-1.129-0.325-1.692-1.008-1.692c-0.856,0-1.284,0.396-1.284,1.189
		c0,0.268-0.152,0.402-0.455,0.402c-0.184,0-0.376-0.084-0.577-0.252c-0.201-0.168-0.301-0.345-0.301-0.528
		c0-0.606,0.217-1.104,0.65-1.495s0.953-0.585,1.56-0.585C25.057,37.329,26.075,38.71,26.075,41.473z M24.434,42.059
		c0-0.218-0.163-0.326-0.488-0.326c-1.354,0-2.031,0.32-2.031,0.959c0,0.348,0.298,0.521,0.894,0.521
		c0.368,0,0.715-0.104,1.04-0.309C24.239,42.676,24.434,42.395,24.434,42.059z"/>
	<path fill="#444445" stroke="#FFFFFF" stroke-width="6" stroke-miterlimit="10" d="M32.802,39.409
		c-0.022,0.271-0.092,0.747-0.211,1.43c-0.108,0.597-0.163,1.072-0.163,1.431c0,0.324,0.017,0.812,0.049,1.463
		c0.033,0.649,0.049,1.138,0.049,1.463c0,0.671-0.065,1.17-0.195,1.494c-0.152,0.412-0.439,0.744-0.861,1
		c-0.422,0.254-0.861,0.381-1.316,0.381c-0.477,0-1.067-0.129-1.771-0.389c-0.845-0.305-1.268-0.641-1.268-1.009
		c0-0.478,0.222-0.715,0.666-0.715c0.206,0,0.347,0.06,0.423,0.179c0.141,0.217,0.235,0.348,0.284,0.391
		c0.049,0.043,0.225,0.095,0.528,0.154c0.303,0.06,0.514,0.09,0.634,0.09c0.975,0,1.462-0.612,1.462-1.836
		c0-0.358-0.017-0.662-0.049-0.91c-0.466,0.399-1.024,0.601-1.674,0.601c-0.271,0-0.574-0.075-0.91-0.228
		c-0.336-0.151-0.59-0.33-0.764-0.537c-0.336-0.389-0.503-0.969-0.503-1.737c0-0.921,0.211-1.935,0.633-3.039
		c0.52-1.354,1.154-2.03,1.901-2.03c0.455,0,0.888,0.211,1.3,0.633c0.303,0.401,0.606,0.797,0.91,1.188
		c0.087,0.107,0.222,0.206,0.406,0.292C32.591,39.273,32.737,39.355,32.802,39.409z M31.161,40.384c0-0.161-0.076-0.298-0.228-0.405
		c-0.065-0.996-0.412-1.496-1.04-1.496c-0.357,0-0.656,0.504-0.894,1.513c-0.173,0.771-0.26,1.437-0.26,1.999
		c0,1.062,0.276,1.592,0.829,1.592c0.52,0,0.932-0.422,1.235-1.268C31.042,41.668,31.161,41.023,31.161,40.384z"/>
	<path fill="#444445" stroke="#FFFFFF" stroke-width="6" stroke-miterlimit="10" d="M44.632,44.203
		c-0.364,0.229-0.643,0.341-0.836,0.341c-0.139,0-0.354-0.076-0.643-0.228c0-0.174,0-0.471,0-0.895c0-0.379,0-0.677,0-0.895
		c0-2.881-0.237-4.321-0.709-4.321c-0.354,0-0.639,0.438-0.854,1.315c-0.161,0.64-0.242,1.229-0.242,1.771v1.495
		c0,0.076,0.027,0.188,0.082,0.333c0.055,0.146,0.081,0.258,0.081,0.333c0,0.174-0.092,0.328-0.276,0.464
		c-0.184,0.135-0.363,0.203-0.536,0.203c-0.184,0-0.368-0.093-0.552-0.276c-0.185-0.185-0.276-0.363-0.276-0.535v-3.023
		c0-1.225-0.138-1.836-0.414-1.836c-0.044,0-0.138,0.104-0.281,0.309c-0.783,1.04-1.174,2.156-1.174,3.348
		c0,0.174,0.024,0.427,0.073,0.756c0.048,0.33,0.073,0.578,0.073,0.74c0,0.217-0.068,0.396-0.203,0.535
		c-0.135,0.141-0.312,0.211-0.528,0.211c-0.25,0-0.45-0.086-0.602-0.259c-0.054-0.075-0.119-0.33-0.195-0.762
		c-0.065-0.4-0.098-0.677-0.098-0.827v-3.535c0-0.259,0.065-0.604,0.195-1.037c0.162-0.519,0.335-0.777,0.52-0.777
		c0.216,0,0.412,0.082,0.585,0.246c0.173,0.164,0.249,0.354,0.228,0.565c0.314-0.521,0.72-0.78,1.219-0.78
		c0.617,0,1.121,0.412,1.511,1.235c0.206-0.487,0.39-0.823,0.552-1.008c0.271-0.313,0.606-0.472,1.008-0.472
		c0.4,0,0.807,0.211,1.219,0.635c0.715,0.726,1.072,1.966,1.072,3.721L44.632,44.203L44.632,44.203z"/>
	<path fill="#444445" stroke="#FFFFFF" stroke-width="6" stroke-miterlimit="10" d="M51.083,42.807c0,0.541-0.369,0.963-1.105,1.268
		c-0.575,0.236-1.176,0.357-1.804,0.357c-1.668,0-2.503-0.949-2.503-2.845c0-0.78,0.189-1.646,0.569-2.601
		c0.466-1.17,1.029-1.756,1.69-1.756c0.596,0,1.238,0.267,1.926,0.797c0.688,0.531,1.032,1.084,1.032,1.658
		c0,0.715-0.319,1.282-0.958,1.705c-0.563,0.379-1.235,0.568-2.015,0.568c-0.152,0-0.396-0.092-0.731-0.275
		c0.043,1.029,0.346,1.543,0.91,1.543c0.477,0,0.945-0.135,1.406-0.406c0.46-0.271,0.755-0.405,0.886-0.405
		C50.85,42.415,51.083,42.545,51.083,42.807z M49.312,39.734c0-0.271-0.079-0.528-0.235-0.772c-0.157-0.243-0.366-0.364-0.626-0.364
		c-0.357,0-0.634,0.156-0.829,0.471c-0.163,0.271-0.244,0.591-0.244,0.959c0,0.205,0.07,0.373,0.211,0.504
		c0.141,0.13,0.319,0.195,0.536,0.195C48.917,40.727,49.312,40.396,49.312,39.734z"/>
	<path fill="#444445" stroke="#FFFFFF" stroke-width="6" stroke-miterlimit="10" d="M60.557,41.473c0,1.397-0.043,2.385-0.13,2.959
		c-0.055,0.334-0.282,0.504-0.683,0.504c-0.607,0-0.877-0.305-0.812-0.91c-0.542,0.26-1.105,0.39-1.69,0.39
		c-0.563,0-1.1-0.142-1.609-0.423c-0.607-0.335-0.91-0.764-0.91-1.283c0-0.509,0.347-0.984,1.04-1.43
		c0.628-0.401,1.219-0.603,1.771-0.603h1.381V40.29c0.01-1.129-0.325-1.692-1.008-1.692c-0.856,0-1.284,0.396-1.284,1.189
		c0,0.268-0.152,0.402-0.455,0.402c-0.184,0-0.376-0.084-0.577-0.252c-0.201-0.168-0.301-0.345-0.301-0.528
		c0-0.606,0.217-1.104,0.65-1.495s0.953-0.585,1.56-0.585C59.539,37.329,60.557,38.71,60.557,41.473z M58.916,42.059
		c0-0.218-0.163-0.326-0.488-0.326c-1.354,0-2.031,0.32-2.031,0.959c0,0.348,0.298,0.521,0.894,0.521
		c0.368,0,0.715-0.104,1.04-0.309C58.721,42.676,58.916,42.395,58.916,42.059z"/>
	<path fill="#444445" stroke="#FFFFFF" stroke-width="6" stroke-miterlimit="10" d="M67.479,44.122
		c-0.163,0.249-0.363,0.373-0.601,0.373c-0.185,0-0.488-0.108-0.91-0.325v-0.193c0-0.238,0.005-0.592,0.016-1.058
		C65.995,42.453,66,42.111,66,41.896c0-2.318-0.345-3.479-1.034-3.479c-0.194,0-0.415,0.15-0.663,0.455
		c-0.765,0.932-1.147,2.053-1.147,3.363c0,0.185,0.035,0.457,0.104,0.82c0.07,0.362,0.105,0.637,0.105,0.82
		c0,0.15-0.07,0.275-0.211,0.374c-0.141,0.097-0.292,0.146-0.455,0.146c-0.65,0-0.975-0.41-0.975-1.233v-3.396
		c0-0.088,0.011-0.215,0.033-0.383c0.021-0.168,0.032-0.295,0.032-0.382c0-0.13-0.019-0.319-0.057-0.567
		c-0.038-0.25-0.057-0.435-0.057-0.554c0-0.174,0.1-0.339,0.301-0.496c0.2-0.155,0.382-0.235,0.544-0.235
		c0.238,0,0.482,0.137,0.731,0.406l-0.048,0.65c0.4-0.641,0.894-0.959,1.479-0.959c0.379,0,0.78,0.13,1.203,0.391
		c0.423,0.26,0.731,0.553,0.926,0.877c0.444,0.823,0.666,1.906,0.666,3.25L67.479,44.122L67.479,44.122z"/>
	<path fill="#444445" stroke="#FFFFFF" stroke-width="6" stroke-miterlimit="10" d="M74.238,34.355c0,0.238-0.031,0.547-0.098,0.926
		c-0.086,0.51-0.142,0.812-0.162,0.91c-0.033,0.336-0.084,1.326-0.154,2.974s-0.105,2.558-0.105,2.729
		c0,1.041,0.113,1.82,0.342,2.34c-0.185,0.304-0.396,0.455-0.635,0.455c-0.248,0-0.471-0.094-0.666-0.283
		c-0.193-0.189-0.303-0.409-0.324-0.658c-0.51,0.466-1.028,0.697-1.561,0.697c-0.791,0-1.403-0.275-1.836-0.827
		c-0.401-0.498-0.602-1.154-0.602-1.968c0-0.952,0.195-1.922,0.585-2.907c0.498-1.246,1.148-1.869,1.951-1.869
		c0.477,0,0.965,0.211,1.463,0.634c0.053-0.509,0.08-1.809,0.08-3.9c0-0.194,0.146-0.292,0.438-0.292
		c0.347,0,0.647,0.087,0.901,0.26C74.111,33.749,74.238,34.009,74.238,34.355z M72.354,39.864c0-0.368-0.08-0.704-0.242-1.009
		c-0.207-0.367-0.479-0.553-0.812-0.553c-0.488,0-0.861,0.482-1.122,1.446c-0.195,0.692-0.292,1.376-0.292,2.048
		c0,1.008,0.292,1.512,0.879,1.512c0.605,0,1.045-0.449,1.315-1.35C72.262,41.354,72.354,40.654,72.354,39.864z"/>
	<path fill="#444445" stroke="#FFFFFF" stroke-width="6" stroke-miterlimit="10" d="M83.518,34.355c0,0.238-0.031,0.547-0.098,0.926
		c-0.086,0.51-0.141,0.812-0.162,0.91c-0.033,0.336-0.084,1.326-0.154,2.974c-0.069,1.647-0.104,2.558-0.104,2.729
		c0,1.041,0.112,1.82,0.341,2.34c-0.186,0.304-0.396,0.455-0.634,0.455c-0.249,0-0.472-0.094-0.666-0.283s-0.304-0.409-0.325-0.658
		c-0.509,0.466-1.029,0.697-1.561,0.697c-0.791,0-1.402-0.275-1.836-0.827c-0.4-0.498-0.602-1.154-0.602-1.968
		c0-0.952,0.195-1.922,0.585-2.907c0.498-1.246,1.147-1.869,1.95-1.869c0.477,0,0.964,0.211,1.462,0.634
		c0.054-0.509,0.081-1.809,0.081-3.9c0-0.194,0.146-0.292,0.439-0.292c0.346,0,0.646,0.087,0.9,0.26
		C83.391,33.749,83.518,34.009,83.518,34.355z M81.633,39.864c0-0.368-0.081-0.704-0.244-1.009
		c-0.205-0.367-0.477-0.553-0.812-0.553c-0.487,0-0.861,0.482-1.121,1.446c-0.194,0.692-0.293,1.376-0.293,2.048
		c0,1.008,0.293,1.512,0.879,1.512c0.604,0,1.045-0.449,1.315-1.35C81.541,41.354,81.633,40.654,81.633,39.864z"/>
	<path fill="#444445" stroke="#FFFFFF" stroke-width="6" stroke-miterlimit="10" d="M88.619,38.646c0,0.076-0.01,0.194-0.031,0.356
		c-0.229,0.325-0.467,0.487-0.715,0.487c-0.207,0-0.391-0.119-0.553-0.357c-0.021-0.486-0.195-0.73-0.521-0.73
		c-0.193,0-0.434,0.515-0.715,1.543c-0.13,0.455-0.195,1.09-0.195,1.902c0,0.77,0.035,1.234,0.106,1.396
		c0.08,0.206,0.121,0.347,0.121,0.423c0,0.185-0.083,0.333-0.25,0.446c-0.166,0.113-0.353,0.171-0.556,0.171
		c-0.578,0-0.869-0.271-0.869-0.812c0-0.055,0.015-0.131,0.041-0.229c0.027-0.098,0.041-0.168,0.041-0.211
		c0-0.553-0.026-1.373-0.082-2.463c-0.055-1.088-0.08-1.903-0.08-2.445c0-0.486,0.291-0.73,0.878-0.73
		c0.346,0,0.584,0.104,0.715,0.31c0.303-0.336,0.646-0.504,1.022-0.504c0.26,0,0.51,0.069,0.748,0.211
		c0.162,0.087,0.353,0.272,0.568,0.562C88.509,38.26,88.619,38.482,88.619,38.646z"/>
	<path fill="#444445" stroke="#FFFFFF" stroke-width="6" stroke-miterlimit="10" d="M95.363,41.034c0,0.975-0.244,1.81-0.731,2.502
		c-0.563,0.791-1.312,1.187-2.241,1.187c-0.955,0-1.675-0.324-2.162-0.975c-0.443-0.574-0.666-1.354-0.666-2.34
		c0-0.977,0.244-1.896,0.73-2.764c0.562-1.028,1.295-1.543,2.193-1.543c0.281,0,0.635,0.125,1.057,0.373
		C94.757,38.201,95.363,39.389,95.363,41.034z M93.934,41.002c0-1.658-0.4-2.486-1.203-2.486c-0.573,0-1.006,0.353-1.299,1.057
		c-0.218,0.531-0.326,1.133-0.326,1.804c0,1.44,0.429,2.161,1.285,2.161c0.553,0,0.963-0.297,1.233-0.895
		C93.83,42.188,93.934,41.641,93.934,41.002z"/>
	<path fill="#444445" stroke="#FFFFFF" stroke-width="6" stroke-miterlimit="10" d="M101.912,40.368
		c0,1.104-0.194,2.042-0.585,2.812c-0.487,0.996-1.226,1.494-2.21,1.494c-0.531,0-0.985-0.15-1.365-0.455c0,0.119,0,0.282,0,0.488
		c0,0.236,0,0.4,0,0.486c0,1.041,0.119,1.857,0.357,2.453c0.107,0.238,0.162,0.392,0.162,0.455c0,0.369-0.217,0.553-0.649,0.553
		c-0.325,0-0.567-0.059-0.731-0.178c-0.119-0.076-0.238-0.348-0.356-0.812c-0.097-0.412-0.146-0.727-0.146-0.941v-3.916
		c0-0.357,0.021-0.847,0.063-1.464c0.043-0.692,0.069-1.175,0.081-1.446c0.011-0.271,0.011-0.627,0-1.071c0-0.563,0-0.927,0-1.089
		c0-0.922,0.301-1.381,0.9-1.381c0.149,0,0.289,0.051,0.418,0.153s0.192,0.226,0.192,0.365c0,0.237-0.026,0.672-0.081,1.3
		c0.422-0.596,0.932-0.895,1.527-0.895c0.802,0,1.419,0.326,1.853,0.976C101.723,38.818,101.912,39.521,101.912,40.368z
		 M100.466,40.223c0-1.171-0.251-1.756-0.752-1.756c-0.218,0-0.501,0.211-0.85,0.635c-0.677,0.812-1.048,1.934-1.112,3.362
		c0.12,0.065,0.333,0.293,0.639,0.683c0.239,0.293,0.479,0.438,0.719,0.438C100.014,43.585,100.466,42.464,100.466,40.223z"/>
</g>
<g>
	<path fill="#444445" stroke="#FFFFFF" stroke-width="6" stroke-miterlimit="10" d="M11.84,57.073c0,1.397-0.043,2.384-0.13,2.958
		c-0.055,0.335-0.282,0.504-0.683,0.504c-0.607,0-0.877-0.305-0.812-0.91c-0.542,0.26-1.105,0.391-1.69,0.391
		c-0.563,0-1.1-0.142-1.609-0.424c-0.607-0.335-0.91-0.764-0.91-1.283c0-0.509,0.347-0.984,1.04-1.43
		c0.628-0.4,1.219-0.602,1.771-0.602h1.381v-0.387c0.01-1.13-0.325-1.693-1.008-1.693c-0.856,0-1.284,0.396-1.284,1.189
		c0,0.268-0.152,0.402-0.455,0.402c-0.184,0-0.376-0.084-0.577-0.252s-0.301-0.344-0.301-0.528c0-0.606,0.217-1.104,0.65-1.495
		c0.433-0.39,0.953-0.584,1.56-0.584C10.822,52.93,11.84,54.311,11.84,57.073z M10.199,57.658c0-0.217-0.163-0.325-0.488-0.325
		c-1.354,0-2.031,0.319-2.031,0.959c0,0.347,0.298,0.521,0.894,0.521c0.368,0,0.715-0.104,1.04-0.309
		C10.004,58.275,10.199,57.994,10.199,57.658z"/>
	<path fill="#444445" stroke="#FFFFFF" stroke-width="6" stroke-miterlimit="10" d="M16.927,54.02c0,0.291-0.444,0.498-1.333,0.616
		c-0.021,0.238-0.032,0.78-0.032,1.625v1.072c0,0.217,0.033,0.537,0.098,0.959c0.065,0.423,0.097,0.737,0.097,0.942
		c0,0.174-0.086,0.328-0.26,0.464c-0.173,0.135-0.347,0.202-0.52,0.202c-0.271,0-0.499-0.232-0.683-0.698
		c-0.141-0.356-0.211-0.704-0.211-1.04v-3.445c-0.499-0.074-0.786-0.124-0.861-0.146c-0.282-0.086-0.423-0.211-0.423-0.373
		c0-0.043,0.011-0.092,0.033-0.146c0.282-0.4,0.596-0.602,0.942-0.602c0.021,0,0.054,0,0.098,0c0.043,0.012,0.076,0.017,0.098,0.017
		c0.228,0,0.335-0.266,0.325-0.796v-1.188c-0.054-0.119-0.081-0.222-0.081-0.309c0-0.141,0.083-0.27,0.249-0.382
		c0.167-0.114,0.325-0.171,0.475-0.171c0.225,0,0.44,0.105,0.644,0.316s0.306,0.437,0.306,0.674c0,0.261-0.041,0.519-0.122,0.772
		c-0.081,0.255-0.117,0.517-0.105,0.788v0.064C16.504,53.325,16.927,53.585,16.927,54.02z"/>
	<path fill="#444445" stroke="#FFFFFF" stroke-width="6" stroke-miterlimit="10" d="M24.466,54.02c0,0.291-0.444,0.498-1.333,0.616
		c-0.021,0.238-0.032,0.78-0.032,1.625v1.072c0,0.217,0.033,0.537,0.098,0.959c0.065,0.423,0.097,0.737,0.097,0.942
		c0,0.174-0.086,0.328-0.26,0.464c-0.173,0.135-0.347,0.202-0.52,0.202c-0.271,0-0.499-0.232-0.683-0.698
		c-0.141-0.356-0.211-0.704-0.211-1.04v-3.445c-0.499-0.074-0.786-0.124-0.861-0.146c-0.282-0.086-0.423-0.211-0.423-0.373
		c0-0.043,0.011-0.092,0.033-0.146c0.282-0.4,0.596-0.602,0.942-0.602c0.021,0,0.054,0,0.098,0c0.043,0.012,0.076,0.017,0.098,0.017
		c0.228,0,0.335-0.266,0.325-0.796v-1.188c-0.054-0.119-0.081-0.222-0.081-0.309c0-0.141,0.083-0.27,0.249-0.382
		c0.167-0.114,0.325-0.171,0.475-0.171c0.225,0,0.44,0.105,0.644,0.316s0.306,0.437,0.306,0.674c0,0.261-0.041,0.519-0.122,0.772
		c-0.081,0.255-0.117,0.517-0.105,0.788v0.064C24.043,53.325,24.466,53.585,24.466,54.02z"/>
	<path fill="#444445" stroke="#FFFFFF" stroke-width="6" stroke-miterlimit="10" d="M31.161,57.073c0,1.397-0.043,2.384-0.13,2.958
		c-0.055,0.335-0.282,0.504-0.683,0.504c-0.607,0-0.877-0.305-0.812-0.91c-0.542,0.26-1.105,0.391-1.69,0.391
		c-0.563,0-1.1-0.142-1.609-0.424c-0.607-0.335-0.91-0.764-0.91-1.283c0-0.509,0.347-0.984,1.04-1.43
		c0.628-0.4,1.219-0.602,1.771-0.602h1.381v-0.387c0.01-1.13-0.325-1.693-1.008-1.693c-0.856,0-1.284,0.396-1.284,1.189
		c0,0.268-0.152,0.402-0.455,0.402c-0.184,0-0.376-0.084-0.577-0.252c-0.201-0.168-0.301-0.344-0.301-0.528
		c0-0.606,0.217-1.104,0.65-1.495c0.433-0.39,0.953-0.584,1.56-0.584C30.143,52.93,31.161,54.311,31.161,57.073z M29.52,57.658
		c0-0.217-0.163-0.325-0.488-0.325c-1.354,0-2.031,0.319-2.031,0.959c0,0.347,0.298,0.521,0.894,0.521
		c0.368,0,0.715-0.104,1.04-0.309C29.325,58.275,29.52,57.994,29.52,57.658z"/>
	<path fill="#444445" stroke="#FFFFFF" stroke-width="6" stroke-miterlimit="10" d="M36.458,54.246c0,0.076-0.011,0.195-0.032,0.357
		c-0.228,0.324-0.466,0.486-0.715,0.486c-0.206,0-0.39-0.119-0.552-0.357c-0.022-0.486-0.195-0.73-0.52-0.73
		c-0.195,0-0.434,0.516-0.715,1.544c-0.13,0.455-0.195,1.089-0.195,1.901c0,0.77,0.035,1.234,0.106,1.396
		c0.081,0.206,0.121,0.348,0.121,0.424c0,0.184-0.083,0.332-0.25,0.445c-0.167,0.114-0.352,0.171-0.555,0.171
		c-0.579,0-0.869-0.271-0.869-0.812c0-0.055,0.014-0.131,0.041-0.229c0.027-0.098,0.041-0.168,0.041-0.211
		c0-0.553-0.027-1.373-0.082-2.462c-0.055-1.089-0.081-1.903-0.081-2.446c0-0.486,0.292-0.729,0.877-0.729
		c0.347,0,0.585,0.103,0.715,0.31c0.303-0.337,0.645-0.505,1.024-0.505c0.26,0,0.509,0.07,0.748,0.211
		c0.163,0.087,0.352,0.273,0.569,0.562C36.35,53.857,36.458,54.083,36.458,54.246z"/>
	<path fill="#444445" stroke="#FFFFFF" stroke-width="6" stroke-miterlimit="10" d="M43.088,55.01
		c-0.022,0.271-0.092,0.747-0.211,1.43c-0.108,0.597-0.163,1.072-0.163,1.432c0,0.324,0.017,0.812,0.049,1.462
		c0.033,0.649,0.049,1.138,0.049,1.463c0,0.671-0.065,1.17-0.195,1.495c-0.152,0.411-0.439,0.744-0.861,0.999
		c-0.422,0.255-0.861,0.382-1.316,0.382c-0.477,0-1.067-0.13-1.771-0.39c-0.845-0.304-1.268-0.64-1.268-1.009
		c0-0.477,0.222-0.715,0.666-0.715c0.206,0,0.347,0.061,0.423,0.18c0.141,0.217,0.235,0.347,0.284,0.39
		c0.049,0.043,0.225,0.095,0.528,0.154c0.303,0.06,0.514,0.09,0.634,0.09c0.975,0,1.462-0.612,1.462-1.836
		c0-0.358-0.017-0.661-0.049-0.91c-0.466,0.399-1.024,0.601-1.674,0.601c-0.271,0-0.574-0.074-0.91-0.228
		c-0.336-0.151-0.59-0.33-0.764-0.536c-0.336-0.39-0.503-0.969-0.503-1.738c0-0.92,0.211-1.934,0.633-3.039
		c0.52-1.354,1.154-2.031,1.901-2.031c0.455,0,0.888,0.212,1.3,0.635c0.303,0.4,0.606,0.796,0.91,1.188
		c0.087,0.107,0.222,0.205,0.406,0.291C42.877,54.874,43.023,54.956,43.088,55.01z M41.447,55.984c0-0.162-0.076-0.299-0.228-0.406
		c-0.065-0.996-0.412-1.495-1.04-1.495c-0.357,0-0.656,0.504-0.894,1.513c-0.173,0.77-0.26,1.436-0.26,1.998
		c0,1.062,0.276,1.592,0.829,1.592c0.52,0,0.932-0.422,1.235-1.268C41.328,57.27,41.447,56.624,41.447,55.984z"/>
	<path fill="#444445" stroke="#FFFFFF" stroke-width="6" stroke-miterlimit="10" d="M49.345,58.406c0,0.542-0.369,0.964-1.105,1.268
		c-0.575,0.237-1.176,0.357-1.804,0.357c-1.668,0-2.503-0.948-2.503-2.844c0-0.78,0.189-1.646,0.569-2.602
		c0.466-1.17,1.029-1.755,1.69-1.755c0.596,0,1.238,0.267,1.926,0.797s1.032,1.083,1.032,1.657c0,0.715-0.319,1.283-0.958,1.706
		c-0.563,0.379-1.235,0.567-2.015,0.567c-0.152,0-0.396-0.092-0.731-0.274c0.043,1.028,0.346,1.543,0.91,1.543
		c0.477,0,0.945-0.136,1.406-0.406c0.46-0.271,0.755-0.405,0.886-0.405C49.111,58.016,49.345,58.146,49.345,58.406z M47.573,55.335
		c0-0.271-0.079-0.528-0.235-0.772c-0.157-0.242-0.366-0.364-0.626-0.364c-0.357,0-0.634,0.157-0.829,0.471
		c-0.163,0.271-0.244,0.591-0.244,0.959c0,0.206,0.07,0.374,0.211,0.504s0.319,0.195,0.536,0.195
		C47.178,56.326,47.573,55.996,47.573,55.335z"/>
	<path fill="#444445" stroke="#FFFFFF" stroke-width="6" stroke-miterlimit="10" d="M54.236,54.02c0,0.291-0.444,0.498-1.333,0.616
		c-0.021,0.238-0.032,0.78-0.032,1.625v1.072c0,0.217,0.033,0.537,0.098,0.959c0.065,0.423,0.097,0.737,0.097,0.942
		c0,0.174-0.086,0.328-0.26,0.464c-0.173,0.135-0.347,0.202-0.52,0.202c-0.271,0-0.499-0.232-0.683-0.698
		c-0.141-0.356-0.211-0.704-0.211-1.04v-3.445c-0.499-0.074-0.786-0.124-0.861-0.146c-0.282-0.086-0.423-0.211-0.423-0.373
		c0-0.043,0.011-0.092,0.033-0.146c0.282-0.4,0.596-0.602,0.942-0.602c0.021,0,0.054,0,0.098,0c0.043,0.012,0.076,0.017,0.098,0.017
		c0.228,0,0.335-0.266,0.325-0.796v-1.188c-0.054-0.119-0.081-0.222-0.081-0.309c0-0.141,0.083-0.27,0.249-0.382
		c0.167-0.114,0.325-0.171,0.475-0.171c0.225,0,0.44,0.105,0.644,0.316s0.306,0.437,0.306,0.674c0,0.261-0.041,0.519-0.122,0.772
		c-0.081,0.255-0.117,0.517-0.105,0.788v0.064C53.813,53.325,54.236,53.585,54.236,54.02z"/>
	<path fill="#444445" stroke="#FFFFFF" stroke-width="6" stroke-miterlimit="10" d="M63.335,55.969c0,1.104-0.195,2.042-0.585,2.811
		c-0.487,0.998-1.224,1.496-2.21,1.496c-0.531,0-0.986-0.151-1.365-0.455c0,0.119,0,0.281,0,0.488c0,0.236,0,0.399,0,0.486
		c0,1.04,0.119,1.857,0.357,2.453c0.108,0.238,0.163,0.391,0.163,0.455c0,0.367-0.217,0.553-0.65,0.553
		c-0.325,0-0.569-0.061-0.731-0.179c-0.119-0.076-0.238-0.347-0.357-0.812c-0.098-0.412-0.146-0.727-0.146-0.942v-3.916
		c0-0.357,0.021-0.847,0.065-1.464c0.043-0.692,0.07-1.174,0.082-1.445c0.011-0.271,0.011-0.628,0-1.072c0-0.562,0-0.927,0-1.089
		c0-0.921,0.3-1.381,0.9-1.381c0.15,0,0.289,0.051,0.418,0.153c0.128,0.104,0.193,0.226,0.193,0.365
		c0,0.238-0.027,0.672-0.082,1.301c0.423-0.596,0.932-0.895,1.528-0.895c0.801,0,1.419,0.325,1.853,0.975
		C63.146,54.419,63.335,55.123,63.335,55.969z M61.89,55.822c0-1.17-0.251-1.756-0.752-1.756c-0.218,0-0.501,0.211-0.85,0.635
		c-0.676,0.812-1.046,1.934-1.111,3.363c0.12,0.064,0.332,0.293,0.638,0.683c0.239,0.293,0.479,0.438,0.719,0.438
		C61.437,59.186,61.89,58.064,61.89,55.822z"/>
	<path fill="#444445" stroke="#FFFFFF" stroke-width="6" stroke-miterlimit="10" d="M66.195,59.396c0,0.194-0.079,0.36-0.236,0.496
		c-0.157,0.135-0.338,0.203-0.544,0.203c-0.682,0-1.023-0.895-1.023-2.682c0-0.812,0.008-2.031,0.024-3.656s0.024-2.844,0.024-3.656
		c0-0.129-0.017-0.318-0.049-0.568c-0.033-0.249-0.049-0.434-0.049-0.553c0.357-0.237,0.639-0.357,0.845-0.357
		c0.238,0,0.466,0.079,0.683,0.236c0.217,0.156,0.325,0.354,0.325,0.593c0,0.118-0.027,0.26-0.082,0.423
		c-0.076,0.26-0.119,0.4-0.13,0.422c-0.141,0.672-0.211,1.625-0.211,2.86c0,1.961,0,2.969,0,3.022
		c0.032,1.364,0.146,2.317,0.341,2.859C66.168,59.191,66.195,59.311,66.195,59.396z"/>
	<path fill="#444445" stroke="#FFFFFF" stroke-width="6" stroke-miterlimit="10" d="M72.874,57.073c0,1.397-0.044,2.384-0.13,2.958
		c-0.055,0.335-0.282,0.504-0.684,0.504c-0.605,0-0.877-0.305-0.812-0.91c-0.542,0.26-1.105,0.391-1.69,0.391
		c-0.563,0-1.1-0.142-1.609-0.424c-0.607-0.335-0.91-0.764-0.91-1.283c0-0.509,0.347-0.984,1.04-1.43
		c0.628-0.4,1.219-0.602,1.771-0.602h1.381v-0.387c0.011-1.13-0.325-1.693-1.007-1.693c-0.856,0-1.284,0.396-1.284,1.189
		c0,0.268-0.152,0.402-0.455,0.402c-0.184,0-0.376-0.084-0.577-0.252c-0.201-0.168-0.301-0.344-0.301-0.528
		c0-0.606,0.217-1.104,0.65-1.495c0.433-0.39,0.953-0.584,1.56-0.584C71.855,52.93,72.874,54.311,72.874,57.073z M71.232,57.658
		c0-0.217-0.162-0.325-0.487-0.325c-1.354,0-2.031,0.319-2.031,0.959c0,0.347,0.298,0.521,0.894,0.521
		c0.368,0,0.715-0.104,1.041-0.309C71.037,58.275,71.232,57.994,71.232,57.658z"/>
	<path fill="#444445" stroke="#FFFFFF" stroke-width="6" stroke-miterlimit="10" d="M79.586,58c0,0.336-0.256,0.73-0.766,1.186
		c-0.453,0.424-0.863,0.688-1.227,0.797s-0.707,0.162-1.031,0.162c-0.855,0-1.525-0.271-2.008-0.812
		c-0.48-0.541-0.724-1.24-0.724-2.097c0-0.834,0.224-1.766,0.667-2.795c0.529-1.234,1.146-1.853,1.854-1.853
		c0.391,0,0.86,0.151,1.414,0.454c0.584,0.336,0.926,0.672,1.022,1.008c0.086,0.293,0.13,0.623,0.13,0.991
		c0,0.336-0.07,0.715-0.212,1.138c-0.173,0.543-0.39,0.812-0.649,0.812c-0.185,0-0.356-0.055-0.521-0.162
		c-0.194-0.118-0.292-0.264-0.292-0.438c0-0.01,0.049-0.134,0.146-0.371c0.053-0.106,0.08-0.403,0.08-0.89
		c0-0.397-0.016-0.657-0.049-0.774c-0.064-0.334-0.217-0.502-0.455-0.502c-0.531,0-0.941,0.459-1.234,1.377
		c-0.217,0.681-0.324,1.365-0.324,2.058c0,1.155,0.367,1.733,1.104,1.733c0.293,0,0.629-0.151,1.008-0.455
		c0.348-0.281,0.59-0.568,0.731-0.861c0.173-0.348,0.384-0.52,0.634-0.52c0.162,0,0.319,0.095,0.471,0.283
		C79.51,57.661,79.586,57.837,79.586,58z"/>
	<path fill="#444445" stroke="#FFFFFF" stroke-width="6" stroke-miterlimit="10" d="M85.76,58.406c0,0.542-0.367,0.964-1.104,1.268
		c-0.575,0.237-1.176,0.357-1.805,0.357c-1.668,0-2.502-0.948-2.502-2.844c0-0.78,0.188-1.646,0.568-2.602
		c0.465-1.17,1.029-1.755,1.689-1.755c0.596,0,1.238,0.267,1.926,0.797s1.031,1.083,1.031,1.657c0,0.715-0.318,1.283-0.959,1.706
		c-0.562,0.379-1.234,0.567-2.015,0.567c-0.151,0-0.396-0.092-0.731-0.274c0.043,1.028,0.348,1.543,0.91,1.543
		c0.477,0,0.944-0.136,1.405-0.406c0.462-0.271,0.757-0.405,0.886-0.405C85.527,58.016,85.76,58.146,85.76,58.406z M83.988,55.335
		c0-0.271-0.078-0.528-0.234-0.772c-0.158-0.242-0.365-0.364-0.627-0.364c-0.357,0-0.633,0.157-0.828,0.471
		c-0.162,0.271-0.244,0.591-0.244,0.959c0,0.206,0.07,0.374,0.213,0.504c0.141,0.13,0.318,0.195,0.535,0.195
		C83.594,56.326,83.988,55.996,83.988,55.335z"/>
	<path fill="#444445" stroke="#FFFFFF" stroke-width="6" stroke-miterlimit="10" d="M89.025,59.186c0,0.186-0.162,0.366-0.486,0.545
		c-0.325,0.18-0.598,0.269-0.812,0.269c-0.238,0-0.494-0.092-0.764-0.274c-0.271-0.186-0.406-0.401-0.406-0.65
		c0-0.217,0.11-0.409,0.332-0.577c0.223-0.168,0.453-0.252,0.691-0.252c0.292,0,0.596,0.087,0.91,0.261
		C88.848,58.709,89.025,58.938,89.025,59.186z"/>
</g>
<g>
	<path fill="#444445" d="M13.839,37.498c0,1.703-0.39,3.238-1.17,4.605c-0.932,1.627-2.183,2.438-3.754,2.438
		c-0.563,0-1.051-0.119-1.462-0.356c-0.228,0.237-0.45,0.356-0.666,0.356c-0.13,0-0.282-0.069-0.455-0.211
		c-0.217-0.608-0.325-1.42-0.325-2.433c0-0.871,0.024-2.176,0.073-3.918c0.049-1.739,0.073-3.045,0.073-3.917
		c0-0.021-0.006-0.06-0.016-0.113C6.126,33.896,6.12,33.852,6.12,33.82c0-0.196,0.07-0.354,0.211-0.474
		c0.141-0.119,0.309-0.18,0.504-0.18c0.271,0,0.512,0.098,0.723,0.293c0.211,0.194,0.29,0.422,0.235,0.683
		c0.553-0.812,1.338-1.219,2.356-1.219c1.235,0,2.183,0.466,2.844,1.4C13.557,35.148,13.839,36.207,13.839,37.498z M12.23,37.432
		c0-2.213-0.65-3.321-1.95-3.321c-0.531,0-1.056,0.271-1.576,0.814c-0.455,0.478-0.767,0.997-0.935,1.556
		c-0.168,0.558-0.252,1.174-0.252,1.848v3.498c0,1.021,0.428,1.531,1.284,1.531c0.77,0,1.468-0.396,2.097-1.188
		c0.52-0.674,0.877-1.438,1.072-2.297C12.144,39.104,12.23,38.289,12.23,37.432z"/>
	<path fill="#444445" d="M19.217,38.645c0,0.076-0.011,0.195-0.032,0.357c-0.228,0.326-0.466,0.488-0.715,0.488
		c-0.206,0-0.39-0.119-0.552-0.357c-0.022-0.488-0.195-0.732-0.52-0.732c-0.195,0-0.434,0.517-0.715,1.545
		c-0.13,0.455-0.195,1.089-0.195,1.9c0,0.771,0.035,1.236,0.106,1.398c0.081,0.205,0.121,0.346,0.121,0.422
		c0,0.184-0.083,0.334-0.25,0.447s-0.352,0.17-0.555,0.17c-0.579,0-0.869-0.27-0.869-0.812c0-0.053,0.014-0.129,0.041-0.227
		s0.041-0.168,0.041-0.211c0-0.553-0.027-1.373-0.082-2.463c-0.054-1.088-0.081-1.904-0.081-2.445c0-0.488,0.292-0.73,0.877-0.73
		c0.347,0,0.585,0.103,0.715,0.31c0.303-0.336,0.645-0.504,1.024-0.504c0.26,0,0.509,0.069,0.748,0.211
		c0.163,0.086,0.352,0.272,0.569,0.562C19.109,38.258,19.217,38.482,19.217,38.645z"/>
	<path fill="#444445" d="M26.075,41.473c0,1.396-0.043,2.383-0.13,2.957c-0.055,0.336-0.282,0.504-0.683,0.504
		c-0.607,0-0.877-0.303-0.812-0.91c-0.542,0.261-1.105,0.392-1.69,0.392c-0.563,0-1.1-0.142-1.609-0.424
		c-0.607-0.334-0.91-0.765-0.91-1.283c0-0.508,0.347-0.983,1.04-1.431c0.628-0.399,1.219-0.602,1.771-0.602h1.381v-0.387
		c0.01-1.129-0.325-1.693-1.008-1.693c-0.856,0-1.284,0.396-1.284,1.191c0,0.268-0.152,0.402-0.455,0.402
		c-0.184,0-0.376-0.084-0.577-0.252c-0.201-0.168-0.301-0.345-0.301-0.529c0-0.605,0.217-1.105,0.65-1.494
		c0.433-0.391,0.953-0.586,1.56-0.586C25.057,37.328,26.075,38.709,26.075,41.473z M24.434,42.057c0-0.217-0.163-0.324-0.488-0.324
		c-1.354,0-2.031,0.32-2.031,0.959c0,0.347,0.298,0.521,0.894,0.521c0.368,0,0.715-0.104,1.04-0.31
		C24.239,42.676,24.434,42.393,24.434,42.057z"/>
	<path fill="#444445" d="M32.802,39.408c-0.022,0.271-0.092,0.748-0.211,1.43c-0.108,0.596-0.163,1.072-0.163,1.432
		c0,0.324,0.017,0.812,0.049,1.461c0.033,0.65,0.049,1.14,0.049,1.463c0,0.673-0.065,1.171-0.195,1.496
		c-0.152,0.41-0.439,0.744-0.861,0.998c-0.422,0.256-0.861,0.383-1.316,0.383c-0.477,0-1.067-0.131-1.771-0.391
		c-0.845-0.303-1.268-0.639-1.268-1.008c0-0.477,0.222-0.715,0.666-0.715c0.206,0,0.347,0.061,0.423,0.18
		c0.141,0.217,0.235,0.346,0.284,0.389c0.049,0.043,0.225,0.097,0.528,0.154c0.303,0.062,0.514,0.09,0.634,0.09
		c0.975,0,1.462-0.61,1.462-1.836c0-0.356-0.017-0.66-0.049-0.91c-0.466,0.4-1.024,0.603-1.674,0.603
		c-0.271,0-0.574-0.076-0.91-0.229c-0.336-0.149-0.59-0.33-0.764-0.535c-0.336-0.391-0.503-0.969-0.503-1.737
		c0-0.922,0.211-1.935,0.633-3.039c0.52-1.354,1.154-2.03,1.901-2.03c0.455,0,0.888,0.211,1.3,0.633
		c0.303,0.401,0.606,0.797,0.91,1.188c0.087,0.107,0.222,0.205,0.406,0.291C32.591,39.273,32.737,39.355,32.802,39.408z
		 M31.161,40.383c0-0.162-0.076-0.297-0.228-0.406c-0.065-0.996-0.412-1.494-1.04-1.494c-0.357,0-0.656,0.504-0.894,1.513
		c-0.173,0.771-0.26,1.437-0.26,1.998c0,1.062,0.276,1.592,0.829,1.592c0.52,0,0.932-0.422,1.235-1.269
		C31.042,41.668,31.161,41.023,31.161,40.383z"/>
	<path fill="#444445" d="M44.632,44.203c-0.364,0.227-0.643,0.34-0.836,0.34c-0.139,0-0.354-0.076-0.643-0.227
		c0-0.174,0-0.471,0-0.896c0-0.379,0-0.676,0-0.894c0-2.883-0.237-4.321-0.709-4.321c-0.354,0-0.639,0.438-0.854,1.313
		c-0.161,0.642-0.242,1.23-0.242,1.771v1.496c0,0.076,0.027,0.186,0.082,0.332c0.055,0.146,0.081,0.258,0.081,0.334
		c0,0.174-0.092,0.328-0.276,0.463s-0.363,0.203-0.536,0.203c-0.184,0-0.368-0.092-0.552-0.275
		c-0.185-0.186-0.276-0.363-0.276-0.537v-3.022c0-1.224-0.138-1.836-0.414-1.836c-0.044,0-0.138,0.104-0.281,0.309
		c-0.783,1.041-1.174,2.156-1.174,3.349c0,0.174,0.024,0.426,0.073,0.756c0.048,0.33,0.073,0.578,0.073,0.74
		c0,0.217-0.068,0.395-0.203,0.534c-0.135,0.14-0.312,0.212-0.528,0.212c-0.25,0-0.45-0.087-0.602-0.259
		c-0.054-0.075-0.119-0.33-0.195-0.762c-0.065-0.4-0.098-0.677-0.098-0.828v-3.535c0-0.258,0.065-0.604,0.195-1.037
		c0.162-0.518,0.335-0.776,0.52-0.776c0.216,0,0.412,0.082,0.585,0.246c0.173,0.164,0.249,0.354,0.228,0.565
		c0.314-0.521,0.72-0.78,1.219-0.78c0.617,0,1.121,0.411,1.511,1.235c0.206-0.487,0.39-0.824,0.552-1.008
		c0.271-0.313,0.606-0.472,1.008-0.472c0.4,0,0.807,0.211,1.219,0.633c0.715,0.728,1.072,1.968,1.072,3.722L44.632,44.203
		L44.632,44.203z"/>
	<path fill="#444445" d="M51.083,42.805c0,0.543-0.369,0.965-1.105,1.269c-0.575,0.237-1.176,0.356-1.804,0.356
		c-1.668,0-2.503-0.947-2.503-2.844c0-0.779,0.189-1.646,0.569-2.6c0.466-1.17,1.029-1.756,1.69-1.756
		c0.596,0,1.238,0.266,1.926,0.797s1.032,1.084,1.032,1.658c0,0.715-0.319,1.282-0.958,1.705c-0.563,0.379-1.235,0.567-2.015,0.567
		c-0.152,0-0.396-0.092-0.731-0.274c0.043,1.028,0.346,1.543,0.91,1.543c0.477,0,0.945-0.136,1.406-0.406
		c0.46-0.271,0.755-0.406,0.886-0.406C50.85,42.414,51.083,42.545,51.083,42.805z M49.312,39.734c0-0.271-0.079-0.529-0.235-0.773
		c-0.157-0.242-0.366-0.365-0.626-0.365c-0.357,0-0.634,0.158-0.829,0.471c-0.163,0.271-0.244,0.593-0.244,0.959
		c0,0.207,0.07,0.375,0.211,0.504c0.141,0.132,0.319,0.195,0.536,0.195C48.917,40.725,49.312,40.395,49.312,39.734z"/>
	<path fill="#444445" d="M60.557,41.473c0,1.396-0.043,2.383-0.13,2.957c-0.055,0.336-0.282,0.504-0.683,0.504
		c-0.607,0-0.877-0.303-0.812-0.91c-0.542,0.261-1.105,0.392-1.69,0.392c-0.563,0-1.1-0.142-1.609-0.424
		c-0.607-0.334-0.91-0.765-0.91-1.283c0-0.508,0.347-0.983,1.04-1.431c0.628-0.399,1.219-0.602,1.771-0.602h1.381v-0.387
		c0.01-1.129-0.325-1.693-1.008-1.693c-0.856,0-1.284,0.396-1.284,1.191c0,0.268-0.152,0.402-0.455,0.402
		c-0.184,0-0.376-0.084-0.577-0.252c-0.201-0.168-0.301-0.345-0.301-0.529c0-0.605,0.217-1.105,0.65-1.494
		c0.433-0.391,0.953-0.586,1.56-0.586C59.539,37.328,60.557,38.709,60.557,41.473z M58.916,42.057c0-0.217-0.163-0.324-0.488-0.324
		c-1.354,0-2.031,0.32-2.031,0.959c0,0.347,0.298,0.521,0.894,0.521c0.368,0,0.715-0.104,1.04-0.31
		C58.721,42.676,58.916,42.393,58.916,42.057z"/>
	<path fill="#444445" d="M67.479,44.121c-0.162,0.25-0.362,0.373-0.601,0.373c-0.185,0-0.487-0.107-0.91-0.324v-0.195
		c0-0.238,0.005-0.59,0.017-1.057C65.994,42.453,66,42.111,66,41.895c0-2.317-0.344-3.477-1.033-3.477
		c-0.194,0-0.415,0.15-0.663,0.455c-0.765,0.932-1.147,2.053-1.147,3.363c0,0.184,0.035,0.457,0.105,0.82
		c0.07,0.362,0.105,0.637,0.105,0.819c0,0.151-0.07,0.276-0.211,0.375c-0.141,0.097-0.292,0.146-0.455,0.146
		c-0.649,0-0.975-0.41-0.975-1.234v-3.396c0-0.086,0.011-0.213,0.033-0.381c0.021-0.168,0.031-0.295,0.031-0.383
		c0-0.129-0.019-0.318-0.057-0.568c-0.037-0.25-0.057-0.434-0.057-0.553c0-0.174,0.1-0.338,0.301-0.496
		c0.2-0.156,0.382-0.234,0.545-0.234c0.238,0,0.481,0.136,0.73,0.406l-0.049,0.65c0.4-0.641,0.895-0.959,1.479-0.959
		c0.379,0,0.781,0.129,1.203,0.389c0.422,0.26,0.73,0.553,0.926,0.879c0.444,0.822,0.666,1.906,0.666,3.25v2.355H67.479z"/>
	<path fill="#444445" d="M74.238,34.355c0,0.238-0.031,0.547-0.098,0.926c-0.086,0.51-0.142,0.812-0.162,0.91
		c-0.033,0.336-0.084,1.326-0.154,2.973c-0.07,1.648-0.105,2.559-0.105,2.73c0,1.041,0.113,1.819,0.342,2.34
		c-0.185,0.303-0.396,0.455-0.635,0.455c-0.248,0-0.471-0.094-0.666-0.283c-0.193-0.189-0.303-0.41-0.324-0.658
		c-0.51,0.465-1.028,0.697-1.561,0.697c-0.791,0-1.402-0.275-1.836-0.828c-0.4-0.498-0.602-1.154-0.602-1.967
		c0-0.953,0.195-1.922,0.586-2.908c0.498-1.246,1.147-1.869,1.95-1.869c0.477,0,0.965,0.211,1.463,0.635
		c0.053-0.51,0.08-1.809,0.08-3.901c0-0.194,0.146-0.292,0.438-0.292c0.347,0,0.647,0.087,0.901,0.26
		C74.111,33.749,74.238,34.008,74.238,34.355z M72.354,39.863c0-0.367-0.08-0.703-0.242-1.008c-0.207-0.367-0.479-0.554-0.812-0.554
		c-0.486,0-0.861,0.482-1.122,1.447c-0.194,0.692-0.292,1.375-0.292,2.047c0,1.009,0.292,1.513,0.879,1.513
		c0.605,0,1.045-0.449,1.315-1.351C72.262,41.354,72.354,40.654,72.354,39.863z"/>
	<path fill="#444445" d="M83.518,34.355c0,0.238-0.031,0.547-0.098,0.926c-0.086,0.51-0.141,0.812-0.162,0.91
		c-0.033,0.336-0.084,1.326-0.154,2.973c-0.069,1.648-0.104,2.559-0.104,2.73c0,1.041,0.112,1.819,0.341,2.34
		c-0.186,0.303-0.396,0.455-0.634,0.455c-0.249,0-0.472-0.094-0.666-0.283s-0.304-0.41-0.325-0.658
		c-0.509,0.465-1.029,0.697-1.561,0.697c-0.791,0-1.402-0.275-1.836-0.828c-0.4-0.498-0.602-1.154-0.602-1.967
		c0-0.953,0.195-1.922,0.585-2.908c0.498-1.246,1.147-1.869,1.95-1.869c0.477,0,0.964,0.211,1.462,0.635
		c0.054-0.51,0.081-1.809,0.081-3.901c0-0.194,0.146-0.292,0.439-0.292c0.346,0,0.646,0.087,0.9,0.26
		C83.391,33.749,83.518,34.008,83.518,34.355z M81.633,39.863c0-0.367-0.081-0.703-0.244-1.008
		c-0.205-0.367-0.477-0.554-0.812-0.554c-0.487,0-0.861,0.482-1.121,1.447c-0.194,0.692-0.293,1.375-0.293,2.047
		c0,1.009,0.293,1.513,0.879,1.513c0.604,0,1.045-0.449,1.315-1.351C81.541,41.354,81.633,40.654,81.633,39.863z"/>
	<path fill="#444445" d="M88.619,38.645c0,0.076-0.01,0.195-0.031,0.357c-0.229,0.326-0.467,0.488-0.715,0.488
		c-0.207,0-0.391-0.119-0.553-0.357C87.299,38.645,87.125,38.4,86.8,38.4c-0.194,0-0.434,0.516-0.715,1.545
		c-0.13,0.455-0.194,1.088-0.194,1.9c0,0.77,0.034,1.235,0.105,1.397c0.08,0.205,0.121,0.346,0.121,0.422
		c0,0.185-0.083,0.334-0.25,0.446c-0.166,0.113-0.352,0.171-0.555,0.171c-0.58,0-0.869-0.271-0.869-0.812
		c0-0.054,0.014-0.13,0.041-0.228c0.027-0.099,0.041-0.168,0.041-0.211c0-0.554-0.027-1.373-0.082-2.464
		c-0.055-1.088-0.082-1.903-0.082-2.444c0-0.488,0.293-0.729,0.879-0.729c0.346,0,0.584,0.102,0.715,0.309
		c0.303-0.336,0.645-0.504,1.023-0.504c0.26,0,0.51,0.07,0.748,0.211c0.162,0.086,0.352,0.273,0.567,0.561
		C88.51,38.259,88.619,38.482,88.619,38.645z"/>
	<path fill="#444445" d="M95.363,41.033c0,0.975-0.244,1.811-0.731,2.502c-0.563,0.791-1.312,1.188-2.241,1.188
		c-0.955,0-1.675-0.326-2.162-0.975c-0.443-0.574-0.666-1.355-0.666-2.34c0-0.977,0.244-1.896,0.73-2.764
		c0.562-1.029,1.295-1.543,2.193-1.543c0.281,0,0.635,0.125,1.057,0.373C94.757,38.201,95.363,39.387,95.363,41.033z M93.934,41.002
		c0-1.658-0.4-2.486-1.203-2.486c-0.573,0-1.006,0.353-1.299,1.055c-0.218,0.531-0.326,1.134-0.326,1.806
		c0,1.44,0.429,2.16,1.285,2.16c0.553,0,0.963-0.297,1.233-0.894C93.83,42.188,93.934,41.641,93.934,41.002z"/>
	<path fill="#444445" d="M101.912,40.367c0,1.105-0.194,2.043-0.585,2.811c-0.487,0.998-1.226,1.496-2.21,1.496
		c-0.531,0-0.985-0.152-1.365-0.455c0,0.119,0,0.281,0,0.488c0,0.236,0,0.4,0,0.486c0,1.041,0.119,1.856,0.357,2.453
		c0.107,0.237,0.162,0.391,0.162,0.455c0,0.369-0.217,0.553-0.649,0.553c-0.325,0-0.567-0.059-0.731-0.178
		c-0.119-0.076-0.238-0.349-0.356-0.812c-0.097-0.412-0.146-0.727-0.146-0.943v-3.916c0-0.356,0.021-0.846,0.063-1.463
		c0.043-0.693,0.069-1.174,0.081-1.445c0.011-0.271,0.011-0.629,0-1.071c0-0.564,0-0.929,0-1.091c0-0.92,0.301-1.381,0.9-1.381
		c0.149,0,0.289,0.051,0.418,0.154s0.192,0.225,0.192,0.365c0,0.238-0.026,0.672-0.081,1.301c0.422-0.596,0.932-0.895,1.527-0.895
		c0.802,0,1.419,0.326,1.853,0.975C101.723,38.818,101.912,39.521,101.912,40.367z M100.466,40.221c0-1.17-0.251-1.754-0.752-1.754
		c-0.218,0-0.501,0.211-0.85,0.633c-0.677,0.812-1.048,1.935-1.112,3.363c0.12,0.066,0.333,0.293,0.639,0.684
		c0.239,0.293,0.479,0.438,0.719,0.438C100.014,43.584,100.466,42.463,100.466,40.221z"/>
</g>
<g>
	<path fill="#444445" d="M11.84,57.072c0,1.398-0.043,2.385-0.13,2.959c-0.055,0.334-0.282,0.504-0.683,0.504
		c-0.607,0-0.877-0.305-0.812-0.91c-0.542,0.26-1.105,0.389-1.69,0.389c-0.563,0-1.1-0.141-1.609-0.422
		c-0.607-0.336-0.91-0.764-0.91-1.283c0-0.51,0.347-0.985,1.04-1.43c0.628-0.402,1.219-0.602,1.771-0.602h1.381v-0.387
		c0.01-1.13-0.325-1.693-1.008-1.693c-0.856,0-1.284,0.396-1.284,1.188c0,0.269-0.152,0.402-0.455,0.402
		c-0.184,0-0.376-0.084-0.577-0.252s-0.301-0.345-0.301-0.527c0-0.606,0.217-1.104,0.65-1.495c0.433-0.39,0.953-0.584,1.56-0.584
		C10.822,52.93,11.84,54.311,11.84,57.072z M10.199,57.658c0-0.217-0.163-0.326-0.488-0.326c-1.354,0-2.031,0.32-2.031,0.959
		c0,0.348,0.298,0.521,0.894,0.521c0.368,0,0.715-0.104,1.04-0.31C10.004,58.275,10.199,57.994,10.199,57.658z"/>
	<path fill="#444445" d="M16.927,54.018c0,0.293-0.444,0.498-1.333,0.617c-0.021,0.238-0.032,0.781-0.032,1.625v1.072
		c0,0.217,0.033,0.537,0.098,0.959c0.065,0.424,0.097,0.738,0.097,0.943c0,0.174-0.086,0.328-0.26,0.463S15.15,59.9,14.977,59.9
		c-0.271,0-0.499-0.232-0.683-0.699c-0.141-0.357-0.211-0.703-0.211-1.039v-3.445c-0.499-0.076-0.786-0.125-0.861-0.146
		c-0.282-0.086-0.423-0.211-0.423-0.372c0-0.044,0.011-0.093,0.033-0.146c0.282-0.399,0.596-0.602,0.942-0.602
		c0.021,0,0.054,0,0.098,0c0.043,0.012,0.076,0.016,0.098,0.016c0.228,0,0.335-0.266,0.325-0.795v-1.188
		c-0.054-0.118-0.081-0.221-0.081-0.309c0-0.141,0.083-0.268,0.249-0.381c0.167-0.115,0.325-0.172,0.475-0.172
		c0.225,0,0.44,0.105,0.644,0.318c0.204,0.211,0.306,0.436,0.306,0.674c0,0.26-0.041,0.518-0.122,0.771s-0.117,0.519-0.105,0.789
		v0.063C16.504,53.324,16.927,53.584,16.927,54.018z"/>
	<path fill="#444445" d="M24.466,54.018c0,0.293-0.444,0.498-1.333,0.617c-0.021,0.238-0.032,0.781-0.032,1.625v1.072
		c0,0.217,0.033,0.537,0.098,0.959c0.065,0.424,0.097,0.738,0.097,0.943c0,0.174-0.086,0.328-0.26,0.463
		c-0.174,0.135-0.347,0.203-0.52,0.203c-0.271,0-0.499-0.232-0.683-0.699c-0.141-0.357-0.211-0.703-0.211-1.039v-3.445
		c-0.499-0.076-0.786-0.125-0.861-0.146c-0.282-0.086-0.423-0.211-0.423-0.372c0-0.044,0.011-0.093,0.033-0.146
		c0.282-0.399,0.596-0.602,0.942-0.602c0.021,0,0.054,0,0.098,0c0.043,0.012,0.076,0.016,0.098,0.016
		c0.228,0,0.335-0.266,0.325-0.795v-1.188c-0.054-0.118-0.081-0.221-0.081-0.309c0-0.141,0.083-0.268,0.249-0.381
		c0.167-0.115,0.325-0.172,0.475-0.172c0.225,0,0.44,0.105,0.644,0.318c0.204,0.211,0.306,0.436,0.306,0.674
		c0,0.26-0.041,0.518-0.122,0.771c-0.081,0.253-0.117,0.519-0.105,0.789v0.063C24.043,53.324,24.466,53.584,24.466,54.018z"/>
	<path fill="#444445" d="M31.161,57.072c0,1.398-0.043,2.385-0.13,2.959c-0.055,0.334-0.282,0.504-0.683,0.504
		c-0.607,0-0.877-0.305-0.812-0.91c-0.542,0.26-1.105,0.389-1.69,0.389c-0.563,0-1.1-0.141-1.609-0.422
		c-0.607-0.336-0.91-0.764-0.91-1.283c0-0.51,0.347-0.985,1.04-1.43c0.628-0.402,1.219-0.602,1.771-0.602h1.381v-0.387
		c0.01-1.13-0.325-1.693-1.008-1.693c-0.856,0-1.284,0.396-1.284,1.188c0,0.269-0.152,0.402-0.455,0.402
		c-0.184,0-0.376-0.084-0.577-0.252c-0.201-0.168-0.301-0.345-0.301-0.527c0-0.606,0.217-1.104,0.65-1.495
		c0.433-0.39,0.953-0.584,1.56-0.584C30.143,52.93,31.161,54.311,31.161,57.072z M29.52,57.658c0-0.217-0.163-0.326-0.488-0.326
		c-1.354,0-2.031,0.32-2.031,0.959c0,0.348,0.298,0.521,0.894,0.521c0.368,0,0.715-0.104,1.04-0.31
		C29.325,58.275,29.52,57.994,29.52,57.658z"/>
	<path fill="#444445" d="M36.458,54.246c0,0.076-0.011,0.195-0.032,0.357c-0.228,0.323-0.466,0.485-0.715,0.485
		c-0.206,0-0.39-0.118-0.552-0.356c-0.022-0.486-0.195-0.73-0.52-0.73c-0.195,0-0.434,0.514-0.715,1.543
		c-0.13,0.455-0.195,1.09-0.195,1.902c0,0.77,0.035,1.234,0.106,1.396c0.081,0.207,0.121,0.349,0.121,0.425
		c0,0.184-0.083,0.332-0.25,0.444c-0.167,0.115-0.352,0.172-0.555,0.172c-0.579,0-0.869-0.271-0.869-0.812
		c0-0.055,0.014-0.131,0.041-0.229c0.027-0.098,0.041-0.168,0.041-0.211c0-0.553-0.027-1.373-0.082-2.461
		c-0.054-1.09-0.081-1.903-0.081-2.446c0-0.486,0.292-0.73,0.877-0.73c0.347,0,0.585,0.104,0.715,0.309
		c0.303-0.336,0.645-0.504,1.024-0.504c0.26,0,0.509,0.07,0.748,0.211c0.163,0.088,0.352,0.273,0.569,0.561
		C36.35,53.857,36.458,54.082,36.458,54.246z"/>
	<path fill="#444445" d="M43.088,55.01c-0.022,0.27-0.092,0.746-0.211,1.43c-0.108,0.597-0.163,1.072-0.163,1.431
		c0,0.323,0.017,0.812,0.049,1.463c0.033,0.649,0.049,1.138,0.049,1.463c0,0.67-0.065,1.17-0.195,1.494
		c-0.152,0.412-0.439,0.744-0.861,1c-0.422,0.254-0.861,0.381-1.316,0.381c-0.477,0-1.067-0.129-1.771-0.389
		c-0.845-0.306-1.268-0.642-1.268-1.009c0-0.477,0.222-0.715,0.666-0.715c0.206,0,0.347,0.06,0.423,0.178
		c0.141,0.218,0.235,0.349,0.284,0.392c0.049,0.043,0.225,0.095,0.528,0.154c0.303,0.059,0.514,0.09,0.634,0.09
		c0.975,0,1.462-0.613,1.462-1.836c0-0.359-0.017-0.662-0.049-0.91c-0.466,0.399-1.024,0.601-1.674,0.601
		c-0.271,0-0.574-0.074-0.91-0.228s-0.59-0.33-0.764-0.537c-0.336-0.389-0.503-0.969-0.503-1.737c0-0.92,0.211-1.935,0.633-3.039
		c0.52-1.354,1.154-2.031,1.901-2.031c0.455,0,0.888,0.211,1.3,0.635c0.303,0.4,0.606,0.795,0.91,1.186
		c0.087,0.109,0.222,0.207,0.406,0.293C42.877,54.873,43.023,54.955,43.088,55.01z M41.447,55.984c0-0.162-0.076-0.299-0.228-0.406
		c-0.065-0.996-0.412-1.496-1.04-1.496c-0.357,0-0.656,0.504-0.894,1.512c-0.173,0.771-0.26,1.436-0.26,2
		c0,1.061,0.276,1.592,0.829,1.592c0.52,0,0.932-0.422,1.235-1.268C41.328,57.268,41.447,56.623,41.447,55.984z"/>
	<path fill="#444445" d="M49.345,58.406c0,0.541-0.369,0.963-1.105,1.268c-0.575,0.236-1.176,0.357-1.804,0.357
		c-1.668,0-2.503-0.949-2.503-2.844c0-0.781,0.189-1.646,0.569-2.603c0.466-1.17,1.029-1.754,1.69-1.754
		c0.596,0,1.238,0.267,1.926,0.797c0.688,0.529,1.032,1.082,1.032,1.656c0,0.715-0.319,1.282-0.958,1.707
		c-0.563,0.379-1.235,0.567-2.015,0.567c-0.152,0-0.396-0.092-0.731-0.274c0.043,1.028,0.346,1.543,0.91,1.543
		c0.477,0,0.945-0.136,1.406-0.406c0.461-0.271,0.755-0.405,0.886-0.405C49.111,58.016,49.345,58.145,49.345,58.406z M47.573,55.334
		c0-0.27-0.079-0.527-0.235-0.771c-0.157-0.244-0.366-0.364-0.626-0.364c-0.357,0-0.634,0.155-0.829,0.471
		c-0.163,0.271-0.244,0.59-0.244,0.959c0,0.205,0.07,0.373,0.211,0.504c0.141,0.129,0.319,0.195,0.536,0.195
		C47.178,56.326,47.573,55.996,47.573,55.334z"/>
	<path fill="#444445" d="M54.236,54.018c0,0.293-0.444,0.498-1.333,0.617c-0.021,0.238-0.032,0.781-0.032,1.625v1.072
		c0,0.217,0.033,0.537,0.098,0.959c0.065,0.424,0.097,0.738,0.097,0.943c0,0.174-0.086,0.328-0.26,0.463
		c-0.174,0.135-0.347,0.203-0.52,0.203c-0.271,0-0.499-0.232-0.683-0.699c-0.141-0.357-0.211-0.703-0.211-1.039v-3.445
		c-0.499-0.076-0.786-0.125-0.861-0.146c-0.282-0.086-0.423-0.211-0.423-0.372c0-0.044,0.011-0.093,0.033-0.146
		c0.282-0.399,0.596-0.602,0.942-0.602c0.021,0,0.054,0,0.098,0c0.043,0.012,0.076,0.016,0.098,0.016
		c0.228,0,0.335-0.266,0.325-0.795v-1.188c-0.054-0.118-0.081-0.221-0.081-0.309c0-0.141,0.083-0.268,0.249-0.381
		c0.167-0.115,0.325-0.172,0.475-0.172c0.225,0,0.44,0.105,0.644,0.318c0.204,0.211,0.306,0.436,0.306,0.674
		c0,0.26-0.041,0.518-0.122,0.771s-0.117,0.519-0.105,0.789v0.063C53.813,53.324,54.236,53.584,54.236,54.018z"/>
	<path fill="#444445" d="M63.336,55.969c0,1.104-0.195,2.041-0.586,2.811c-0.486,0.996-1.224,1.494-2.209,1.494
		c-0.531,0-0.986-0.149-1.365-0.455c0,0.119,0,0.283,0,0.488c0,0.238,0,0.4,0,0.488c0,1.039,0.119,1.857,0.357,2.453
		c0.108,0.238,0.163,0.391,0.163,0.455c0,0.367-0.217,0.553-0.65,0.553c-0.325,0-0.569-0.061-0.731-0.18
		c-0.119-0.076-0.238-0.346-0.357-0.812c-0.098-0.412-0.146-0.725-0.146-0.94v-3.916c0-0.357,0.021-0.847,0.065-1.464
		c0.043-0.692,0.07-1.176,0.082-1.446c0.011-0.271,0.011-0.627,0-1.072c0-0.562,0-0.926,0-1.088c0-0.922,0.3-1.381,0.9-1.381
		c0.15,0,0.289,0.051,0.418,0.153c0.128,0.103,0.193,0.226,0.193,0.365c0,0.238-0.027,0.672-0.082,1.299
		c0.423-0.596,0.932-0.893,1.528-0.893c0.801,0,1.419,0.324,1.853,0.975C63.146,54.418,63.336,55.123,63.336,55.969z M61.89,55.822
		c0-1.17-0.251-1.756-0.753-1.756c-0.217,0-0.5,0.211-0.85,0.635c-0.676,0.812-1.046,1.934-1.111,3.363
		c0.12,0.063,0.332,0.293,0.638,0.682c0.239,0.293,0.479,0.439,0.719,0.439C61.438,59.186,61.89,58.064,61.89,55.822z"/>
	<path fill="#444445" d="M66.195,59.396c0,0.194-0.078,0.36-0.236,0.496c-0.156,0.135-0.338,0.203-0.544,0.203
		c-0.683,0-1.023-0.896-1.023-2.683c0-0.812,0.008-2.031,0.024-3.656s0.024-2.844,0.024-3.655c0-0.129-0.017-0.318-0.049-0.568
		c-0.032-0.25-0.049-0.434-0.049-0.553c0.357-0.238,0.64-0.357,0.845-0.357c0.238,0,0.466,0.078,0.683,0.236
		c0.217,0.156,0.325,0.354,0.325,0.592c0,0.119-0.027,0.26-0.082,0.424c-0.075,0.26-0.119,0.4-0.129,0.422
		c-0.141,0.672-0.211,1.625-0.211,2.859c0,1.961,0,2.969,0,3.023c0.031,1.364,0.146,2.317,0.34,2.858
		C66.168,59.191,66.195,59.311,66.195,59.396z"/>
	<path fill="#444445" d="M72.874,57.072c0,1.398-0.044,2.385-0.13,2.959c-0.055,0.334-0.282,0.504-0.684,0.504
		c-0.605,0-0.877-0.305-0.812-0.91c-0.542,0.26-1.104,0.389-1.69,0.389c-0.562,0-1.1-0.141-1.608-0.422
		c-0.606-0.336-0.91-0.764-0.91-1.283c0-0.51,0.347-0.985,1.04-1.43c0.629-0.402,1.219-0.602,1.771-0.602h1.38v-0.387
		c0.012-1.13-0.323-1.693-1.007-1.693c-0.855,0-1.283,0.396-1.283,1.188c0,0.269-0.152,0.402-0.455,0.402
		c-0.184,0-0.377-0.084-0.576-0.252c-0.201-0.168-0.301-0.345-0.301-0.527c0-0.606,0.217-1.104,0.649-1.495
		c0.433-0.39,0.953-0.584,1.56-0.584C71.855,52.93,72.874,54.311,72.874,57.072z M71.232,57.658c0-0.217-0.162-0.326-0.487-0.326
		c-1.354,0-2.031,0.32-2.031,0.959c0,0.348,0.298,0.521,0.894,0.521c0.369,0,0.715-0.104,1.041-0.31
		C71.037,58.275,71.232,57.994,71.232,57.658z"/>
	<path fill="#444445" d="M79.586,58c0,0.336-0.256,0.73-0.766,1.186c-0.453,0.422-0.863,0.688-1.227,0.797
		c-0.363,0.107-0.707,0.162-1.031,0.162c-0.855,0-1.525-0.271-2.008-0.812c-0.481-0.541-0.724-1.24-0.724-2.097
		c0-0.834,0.224-1.766,0.667-2.795c0.529-1.235,1.146-1.854,1.854-1.854c0.391,0,0.86,0.152,1.414,0.455
		c0.584,0.336,0.926,0.672,1.022,1.008c0.086,0.293,0.13,0.623,0.13,0.99c0,0.336-0.07,0.715-0.212,1.139
		c-0.173,0.541-0.39,0.812-0.649,0.812c-0.185,0-0.356-0.055-0.521-0.162c-0.194-0.119-0.292-0.264-0.292-0.438
		c0-0.011,0.049-0.134,0.146-0.371c0.053-0.107,0.08-0.404,0.08-0.89c0-0.397-0.016-0.657-0.049-0.774
		c-0.064-0.334-0.217-0.502-0.455-0.502c-0.531,0-0.941,0.459-1.234,1.377c-0.217,0.68-0.324,1.365-0.324,2.057
		c0,1.156,0.367,1.734,1.104,1.734c0.293,0,0.629-0.152,1.008-0.455c0.348-0.281,0.59-0.568,0.731-0.861
		c0.173-0.348,0.384-0.52,0.634-0.52c0.162,0,0.319,0.094,0.471,0.283C79.51,57.66,79.586,57.836,79.586,58z"/>
	<path fill="#444445" d="M85.76,58.406c0,0.541-0.367,0.963-1.104,1.268c-0.575,0.236-1.176,0.357-1.805,0.357
		c-1.668,0-2.502-0.949-2.502-2.844c0-0.781,0.188-1.646,0.568-2.603c0.465-1.17,1.029-1.754,1.689-1.754
		c0.596,0,1.238,0.267,1.926,0.797c0.688,0.529,1.031,1.082,1.031,1.656c0,0.715-0.318,1.282-0.959,1.707
		c-0.562,0.379-1.234,0.567-2.015,0.567c-0.151,0-0.396-0.092-0.731-0.274c0.043,1.028,0.348,1.543,0.91,1.543
		c0.477,0,0.944-0.136,1.405-0.406c0.462-0.271,0.757-0.405,0.886-0.405C85.527,58.016,85.76,58.145,85.76,58.406z M83.988,55.334
		c0-0.27-0.078-0.527-0.234-0.771c-0.158-0.244-0.365-0.364-0.627-0.364c-0.357,0-0.633,0.155-0.828,0.471
		c-0.162,0.271-0.244,0.59-0.244,0.959c0,0.205,0.07,0.373,0.213,0.504c0.141,0.129,0.318,0.195,0.535,0.195
		C83.594,56.326,83.988,55.996,83.988,55.334z"/>
	<path fill="#444445" d="M89.025,59.186c0,0.185-0.162,0.365-0.486,0.545c-0.325,0.179-0.598,0.269-0.812,0.269
		c-0.238,0-0.494-0.092-0.764-0.274c-0.271-0.187-0.406-0.402-0.406-0.65c0-0.217,0.11-0.41,0.332-0.578
		c0.223-0.168,0.453-0.252,0.691-0.252c0.292,0,0.596,0.088,0.91,0.262C88.848,58.709,89.025,58.936,89.025,59.186z"/>
</g>
<path fill="none" stroke="#444445" stroke-linecap="round" stroke-miterlimit="10" d="M91.792,5.351
	C78.627,7.06,59.627,17.935,53.579,35.792"/>
<path fill="#444445" d="M88.423,12.062c-0.235-0.144-0.312-0.45-0.167-0.688l3.979-6.533l-7.604-0.843
	c-0.273-0.031-0.473-0.278-0.441-0.552c0.031-0.274,0.281-0.472,0.553-0.443l8.385,0.932c0.17,0.018,0.316,0.123,0.395,0.275
	c0.074,0.155,0.065,0.335-0.022,0.482l-4.39,7.202c-0.051,0.084-0.123,0.15-0.205,0.188C88.756,12.156,88.574,12.153,88.423,12.062"
	/>
</svg>
