<?xml version="1.0" encoding="utf-8"?>
<!-- Generator: Adobe Illustrator 16.0.0, SVG Export Plug-In . SVG Version: 6.00 Build 0)  -->
<!DOCTYPE svg PUBLIC "-//W3C//DTD SVG 1.1//EN" "http://www.w3.org/Graphics/SVG/1.1/DTD/svg11.dtd">
<svg version="1.1" id="Layer_1" xmlns="http://www.w3.org/2000/svg" xmlns:xlink="http://www.w3.org/1999/xlink" x="0px" y="0px"
	 width="308px" height="48px" viewBox="0 0 308 48" enable-background="new 0 0 308 48" xml:space="preserve">
<rect x="75.961" y="-0.009" fill="none" width="156.078" height="48.018"/>
<g>
	<path fill="#444445" d="M84.313,39.686c0,0.205-0.054,0.453-0.163,0.744c-0.271,0.713-0.78,1.272-1.527,1.684
		c-0.683,0.365-1.43,0.55-2.243,0.55c-1.333,0-2.356-0.503-3.071-1.509c-0.617-0.877-0.926-2.008-0.926-3.393
		c0-1.146,0.179-2.223,0.537-3.229c0.4-1.146,0.991-2.045,1.771-2.693c0.618-0.509,1.246-0.763,1.885-0.763
		c0.92,0,1.619,0.399,2.096,1.202c0.39,0.65,0.585,1.469,0.585,2.453c0,0.444-0.114,1.002-0.341,1.675
		c-0.271,0.823-0.574,1.233-0.91,1.233c-0.379,0-0.666-0.236-0.861-0.715c0.108-0.074,0.26-0.199,0.455-0.373
		c0.217-0.238,0.325-0.703,0.325-1.398c0-0.67-0.071-1.239-0.211-1.705c-0.217-0.704-0.574-1.057-1.072-1.057
		c-0.347,0-0.726,0.223-1.138,0.666c-0.314,0.334-0.58,0.707-0.796,1.118c-0.531,1.038-0.796,2.33-0.796,3.878
		c0,2.248,0.845,3.373,2.535,3.373c0.726,0,1.3-0.205,1.723-0.613c0.173-0.184,0.428-0.564,0.764-1.146
		c0.228-0.42,0.471-0.63,0.731-0.63c0.173,0,0.325,0.067,0.455,0.203C84.249,39.376,84.313,39.523,84.313,39.686z"/>
	<path fill="#444445" d="M87.287,41.915c0,0.194-0.079,0.36-0.236,0.495c-0.157,0.136-0.338,0.203-0.544,0.203
		c-0.682,0-1.023-0.895-1.023-2.682c0-0.812,0.008-2.031,0.024-3.656c0.016-1.625,0.024-2.844,0.024-3.655
		c0-0.13-0.017-0.319-0.049-0.569c-0.033-0.249-0.049-0.433-0.049-0.553c0.357-0.236,0.639-0.357,0.845-0.357
		c0.238,0,0.466,0.08,0.683,0.236c0.217,0.157,0.325,0.354,0.325,0.594c0,0.118-0.027,0.26-0.082,0.422
		c-0.076,0.26-0.119,0.4-0.13,0.422c-0.141,0.672-0.211,1.625-0.211,2.86c0,1.961,0,2.97,0,3.022
		c0.032,1.365,0.146,2.318,0.341,2.859C87.26,41.709,87.287,41.828,87.287,41.915z"/>
	<path fill="#444445" d="M89.988,36.098c0,0.194-0.043,0.471-0.13,0.828s-0.13,0.635-0.13,0.829v3.349
		c0,0.205,0.065,0.529,0.195,0.975c-0.164,0.249-0.345,0.374-0.542,0.374c-0.689,0-1.067-0.343-1.132-1.022
		c-0.108-1.269-0.163-2.222-0.163-2.861c0-1.071,0.043-1.971,0.13-2.696c0-0.056,0-0.108,0-0.163c0-0.193,0.15-0.292,0.451-0.292
		c0.268,0,0.537,0.054,0.805,0.162C89.816,35.695,89.988,35.87,89.988,36.098z M90.134,33.822c0,0.238-0.082,0.434-0.244,0.585
		c-0.163,0.151-0.363,0.228-0.602,0.228c-0.282,0-0.544-0.098-0.788-0.293c-0.244-0.193-0.366-0.433-0.366-0.715
		c0-0.238,0.084-0.434,0.252-0.585c0.168-0.151,0.376-0.228,0.625-0.228c0.292,0,0.553,0.096,0.78,0.285
		C90.018,33.288,90.134,33.529,90.134,33.822z"/>
	<path fill="#444445" d="M96.488,40.518c0,0.336-0.255,0.73-0.764,1.187c-0.455,0.423-0.864,0.688-1.227,0.797
		c-0.363,0.108-0.707,0.162-1.032,0.162c-0.856,0-1.525-0.271-2.007-0.812s-0.723-1.24-0.723-2.097c0-0.834,0.222-1.766,0.667-2.795
		c0.531-1.235,1.148-1.853,1.853-1.853c0.39,0,0.861,0.15,1.414,0.453c0.585,0.336,0.926,0.672,1.024,1.008
		c0.086,0.293,0.13,0.623,0.13,0.992c0,0.336-0.07,0.715-0.211,1.138c-0.173,0.542-0.39,0.812-0.65,0.812
		c-0.184,0-0.357-0.054-0.52-0.162c-0.195-0.117-0.292-0.264-0.292-0.437c0-0.011,0.049-0.134,0.146-0.371
		c0.054-0.106,0.081-0.404,0.081-0.89c0-0.398-0.016-0.657-0.049-0.775c-0.065-0.334-0.217-0.502-0.455-0.502
		c-0.531,0-0.943,0.46-1.235,1.377c-0.217,0.682-0.325,1.366-0.325,2.059c0,1.154,0.368,1.732,1.105,1.732
		c0.292,0,0.628-0.15,1.007-0.455c0.347-0.281,0.59-0.568,0.731-0.861c0.173-0.347,0.384-0.52,0.634-0.52
		c0.162,0,0.319,0.095,0.471,0.284C96.412,40.18,96.488,40.354,96.488,40.518z"/>
	<path fill="#444445" d="M103.67,42.857c-0.412,0.303-0.737,0.455-0.975,0.455c-0.314,0-0.769-0.326-1.365-0.977
		c-0.423-0.455-0.84-0.915-1.251-1.381c-0.238-0.281-0.617-0.678-1.137-1.188l-0.049,0.033v1.43c0,0.088,0.035,0.215,0.105,0.383
		s0.105,0.301,0.105,0.397c0,0.151-0.079,0.284-0.235,0.397c-0.157,0.113-0.317,0.171-0.479,0.171c-0.282,0-0.515-0.093-0.699-0.276
		s-0.276-0.417-0.276-0.697v-2.146c0-0.13,0.017-0.327,0.049-0.593c0.033-0.267,0.049-0.464,0.049-0.595V33.9
		c0-0.659-0.045-1.19-0.135-1.592c-0.04-0.185-0.06-0.324-0.06-0.423c0-0.206,0.124-0.391,0.374-0.553
		c0.217-0.151,0.433-0.228,0.65-0.228c0.163,0,0.338,0.062,0.528,0.187c0.189,0.125,0.284,0.265,0.284,0.415
		c0,0.043-0.035,0.193-0.104,0.455c-0.069,0.26-0.104,0.661-0.104,1.202c0,0.174-0.018,1.62-0.052,4.339
		c0.043-0.043,0.63-0.579,1.762-1.607c0.935-0.867,1.484-1.302,1.647-1.302c0.576,0,0.854,0.353,0.832,1.058v0.162
		c-0.468,0.271-1.073,0.698-1.813,1.283c-0.937,0.727-1.405,1.208-1.405,1.446c0,0.021,0.294,0.362,0.881,1.022
		c0.555,0.629,0.903,1.02,1.045,1.17c0.653,0.684,1.262,1.148,1.828,1.397V42.857L103.67,42.857z"/>
	<path fill="#444445" d="M108.675,36.098c0,0.194-0.043,0.471-0.13,0.828s-0.13,0.635-0.13,0.829v3.349
		c0,0.205,0.065,0.529,0.195,0.975c-0.164,0.249-0.345,0.374-0.542,0.374c-0.689,0-1.067-0.343-1.132-1.022
		c-0.108-1.269-0.163-2.222-0.163-2.861c0-1.071,0.043-1.971,0.13-2.696c0-0.056,0-0.108,0-0.163c0-0.193,0.15-0.292,0.451-0.292
		c0.268,0,0.537,0.054,0.805,0.162C108.503,35.695,108.675,35.87,108.675,36.098z M108.821,33.822c0,0.238-0.082,0.434-0.244,0.585
		c-0.163,0.151-0.363,0.228-0.602,0.228c-0.282,0-0.544-0.098-0.788-0.293c-0.244-0.193-0.366-0.433-0.366-0.715
		c0-0.238,0.084-0.434,0.252-0.585c0.168-0.151,0.376-0.228,0.625-0.228c0.292,0,0.553,0.096,0.78,0.285
		C108.705,33.288,108.821,33.529,108.821,33.822z"/>
	<path fill="#444445" d="M115.175,40.518c0,0.336-0.255,0.73-0.764,1.187c-0.455,0.423-0.864,0.688-1.227,0.797
		c-0.363,0.108-0.707,0.162-1.032,0.162c-0.856,0-1.525-0.271-2.007-0.812s-0.723-1.24-0.723-2.097c0-0.834,0.222-1.766,0.667-2.795
		c0.531-1.235,1.148-1.853,1.853-1.853c0.39,0,0.861,0.15,1.414,0.453c0.585,0.336,0.926,0.672,1.024,1.008
		c0.086,0.293,0.13,0.623,0.13,0.992c0,0.336-0.07,0.715-0.211,1.138c-0.173,0.542-0.39,0.812-0.65,0.812
		c-0.184,0-0.357-0.054-0.52-0.162c-0.195-0.117-0.292-0.264-0.292-0.437c0-0.011,0.049-0.134,0.146-0.371
		c0.054-0.106,0.081-0.404,0.081-0.89c0-0.398-0.016-0.657-0.049-0.775c-0.065-0.334-0.217-0.502-0.455-0.502
		c-0.531,0-0.943,0.46-1.235,1.377c-0.217,0.682-0.325,1.366-0.325,2.059c0,1.154,0.368,1.732,1.105,1.732
		c0.292,0,0.628-0.15,1.007-0.455c0.347-0.281,0.59-0.568,0.731-0.861c0.173-0.347,0.384-0.52,0.634-0.52
		c0.162,0,0.319,0.095,0.471,0.284C115.099,40.18,115.175,40.354,115.175,40.518z"/>
	<path fill="#444445" d="M121.821,39.152c0,0.975-0.244,1.81-0.731,2.502c-0.563,0.791-1.311,1.187-2.242,1.187
		c-0.954,0-1.674-0.325-2.162-0.975c-0.444-0.574-0.666-1.354-0.666-2.341c0-0.976,0.244-1.896,0.731-2.762
		c0.563-1.029,1.294-1.545,2.194-1.545c0.282,0,0.634,0.125,1.056,0.374C121.214,36.318,121.821,37.506,121.821,39.152z
		 M120.391,39.12c0-1.658-0.401-2.486-1.203-2.486c-0.574,0-1.007,0.353-1.3,1.056c-0.217,0.531-0.325,1.134-0.325,1.805
		c0,1.441,0.428,2.16,1.284,2.16c0.552,0,0.964-0.297,1.235-0.894C120.288,40.307,120.391,39.759,120.391,39.12z"/>
	<path fill="#444445" d="M128.646,42.24c-0.163,0.249-0.363,0.373-0.601,0.373c-0.185,0-0.488-0.108-0.91-0.325v-0.194
		c0-0.238,0.005-0.591,0.016-1.057c0.011-0.467,0.017-0.807,0.017-1.023c0-2.318-0.345-3.478-1.034-3.478
		c-0.194,0-0.415,0.151-0.663,0.455c-0.765,0.932-1.147,2.053-1.147,3.362c0,0.186,0.035,0.459,0.105,0.821
		c0.07,0.362,0.105,0.636,0.105,0.82c0,0.151-0.07,0.276-0.211,0.374c-0.141,0.097-0.292,0.146-0.455,0.146
		c-0.65,0-0.975-0.412-0.975-1.234v-3.396c0-0.087,0.011-0.214,0.033-0.382c0.021-0.168,0.032-0.295,0.032-0.382
		c0-0.13-0.019-0.319-0.057-0.568c-0.038-0.25-0.057-0.434-0.057-0.553c0-0.174,0.1-0.339,0.301-0.496
		c0.2-0.156,0.382-0.234,0.544-0.234c0.238,0,0.482,0.135,0.731,0.405l-0.048,0.65c0.4-0.64,0.894-0.959,1.479-0.959
		c0.379,0,0.78,0.13,1.203,0.39c0.423,0.26,0.731,0.553,0.926,0.878c0.444,0.823,0.666,1.906,0.666,3.25V42.24z"/>
	<path fill="#444445" d="M136.445,36.536c0,0.292-0.444,0.498-1.333,0.616c-0.021,0.238-0.032,0.781-0.032,1.625v1.072
		c0,0.217,0.033,0.537,0.098,0.959c0.065,0.424,0.097,0.737,0.097,0.942c0,0.174-0.086,0.328-0.26,0.464
		c-0.173,0.135-0.347,0.203-0.52,0.203c-0.271,0-0.499-0.232-0.683-0.699c-0.141-0.357-0.211-0.703-0.211-1.039v-3.445
		c-0.499-0.075-0.786-0.125-0.861-0.146c-0.282-0.087-0.423-0.212-0.423-0.374c0-0.043,0.011-0.092,0.033-0.146
		c0.282-0.4,0.596-0.603,0.942-0.603c0.021,0,0.054,0,0.098,0c0.043,0.013,0.076,0.017,0.098,0.017c0.228,0,0.335-0.266,0.325-0.795
		V34c-0.054-0.119-0.081-0.223-0.081-0.309c0-0.142,0.083-0.27,0.249-0.383c0.167-0.113,0.325-0.17,0.475-0.17
		c0.225,0,0.44,0.104,0.644,0.316c0.204,0.211,0.306,0.436,0.306,0.674c0,0.26-0.041,0.518-0.122,0.771s-0.117,0.518-0.105,0.789
		v0.063C136.022,35.843,136.445,36.104,136.445,36.536z"/>
	<path fill="#444445" d="M142.52,39.152c0,0.975-0.244,1.81-0.731,2.502c-0.563,0.791-1.311,1.187-2.242,1.187
		c-0.954,0-1.674-0.325-2.162-0.975c-0.444-0.574-0.666-1.354-0.666-2.341c0-0.976,0.244-1.896,0.731-2.762
		c0.563-1.029,1.294-1.545,2.194-1.545c0.282,0,0.634,0.125,1.056,0.374C141.913,36.318,142.52,37.506,142.52,39.152z
		 M141.089,39.12c0-1.658-0.401-2.486-1.203-2.486c-0.574,0-1.007,0.353-1.3,1.056c-0.217,0.531-0.325,1.134-0.325,1.805
		c0,1.441,0.428,2.16,1.284,2.16c0.552,0,0.964-0.297,1.235-0.894C140.986,40.307,141.089,39.759,141.089,39.12z"/>
	<path fill="#444445" d="M151.733,40.712c0,0.511-0.217,0.954-0.65,1.333c-0.477,0.411-1.116,0.617-1.917,0.617
		c-0.347,0.011-0.72-0.061-1.121-0.211c-1.3-0.487-1.95-0.883-1.95-1.188c0-0.477,0.341-0.715,1.024-0.715
		c0.098,0,0.2,0.006,0.309,0.018c0.033,0.324,0.292,0.584,0.78,0.779c0.422,0.174,0.829,0.243,1.219,0.211
		c0.314-0.021,0.471-0.136,0.471-0.342c0-0.031-0.008-0.081-0.024-0.146c-0.016-0.063-0.024-0.115-0.024-0.153
		c0-0.037-0.206-0.121-0.617-0.252c-0.466-0.142-0.726-0.222-0.78-0.243c-1.235-0.736-1.853-1.625-1.853-2.665
		c0-0.628,0.179-1.208,0.536-1.739c0.401-0.584,0.899-0.877,1.495-0.877c0.444,0,0.951,0.174,1.52,0.521
		c0.569,0.347,0.918,0.721,1.048,1.12c0.087,0.283,0.13,0.517,0.13,0.699c0,0.195-0.027,0.357-0.082,0.487
		c-0.065,0.163-0.13,0.325-0.195,0.487c-0.206,0.143-0.412,0.212-0.618,0.212c-0.108,0-0.29-0.067-0.544-0.203
		c-0.254-0.136-0.382-0.252-0.382-0.351c0-0.043,0.065-0.185,0.195-0.422c0.076-0.142,0.114-0.26,0.114-0.357
		c0-0.648-0.255-0.975-0.764-0.975c-0.303,0-0.536,0.194-0.699,0.584c-0.119,0.305-0.179,0.629-0.179,0.976
		c0,0.435,0.309,0.823,0.926,1.17c0.563,0.25,1.132,0.504,1.707,0.765C151.424,40.133,151.733,40.42,151.733,40.712z"/>
	<path fill="#444445" d="M156.624,36.536c0,0.292-0.444,0.498-1.333,0.616c-0.021,0.238-0.032,0.781-0.032,1.625v1.072
		c0,0.217,0.032,0.537,0.099,0.959c0.063,0.424,0.098,0.737,0.098,0.942c0,0.174-0.087,0.328-0.262,0.464
		c-0.172,0.135-0.346,0.203-0.52,0.203c-0.271,0-0.498-0.232-0.683-0.699c-0.141-0.357-0.211-0.703-0.211-1.039v-3.445
		c-0.499-0.075-0.786-0.125-0.861-0.146c-0.282-0.087-0.423-0.212-0.423-0.374c0-0.043,0.011-0.092,0.033-0.146
		c0.282-0.4,0.596-0.603,0.942-0.603c0.021,0,0.054,0,0.098,0c0.043,0.013,0.076,0.017,0.098,0.017c0.228,0,0.335-0.266,0.325-0.795
		V34c-0.054-0.119-0.081-0.223-0.081-0.309c0-0.142,0.083-0.27,0.249-0.383c0.167-0.113,0.325-0.17,0.475-0.17
		c0.227,0,0.44,0.104,0.646,0.316c0.202,0.211,0.306,0.436,0.306,0.674c0,0.26-0.041,0.518-0.122,0.771s-0.116,0.518-0.104,0.789
		v0.063C156.201,35.843,156.624,36.104,156.624,36.536z"/>
	<path fill="#444445" d="M162.447,39.591c0,1.397-0.043,2.384-0.131,2.958c-0.053,0.335-0.28,0.504-0.683,0.504
		c-0.606,0-0.877-0.304-0.812-0.91c-0.541,0.26-1.104,0.391-1.689,0.391c-0.562,0-1.1-0.141-1.609-0.424
		c-0.605-0.334-0.908-0.764-0.908-1.282c0-0.509,0.347-0.985,1.039-1.431c0.629-0.4,1.22-0.602,1.771-0.602h1.383v-0.387
		c0.01-1.129-0.326-1.693-1.009-1.693c-0.854,0-1.282,0.396-1.282,1.189c0,0.269-0.152,0.402-0.455,0.402
		c-0.186,0-0.377-0.084-0.578-0.252c-0.2-0.168-0.301-0.344-0.301-0.527c0-0.606,0.217-1.105,0.65-1.495s0.953-0.585,1.561-0.585
		C161.43,35.447,162.447,36.828,162.447,39.591z M160.807,40.176c0-0.217-0.162-0.324-0.486-0.324c-1.354,0-2.031,0.319-2.031,0.959
		c0,0.347,0.298,0.521,0.895,0.521c0.367,0,0.715-0.104,1.039-0.31C160.611,40.794,160.807,40.512,160.807,40.176z"/>
	<path fill="#444445" d="M167.979,36.764c0,0.076-0.011,0.195-0.031,0.357c-0.229,0.324-0.467,0.486-0.715,0.486
		c-0.207,0-0.392-0.118-0.553-0.356c-0.021-0.487-0.195-0.731-0.521-0.731c-0.194,0-0.434,0.516-0.715,1.545
		c-0.131,0.455-0.194,1.088-0.194,1.9c0,0.77,0.035,1.235,0.104,1.396c0.082,0.207,0.123,0.348,0.123,0.424
		c0,0.184-0.084,0.333-0.25,0.445c-0.166,0.115-0.353,0.172-0.556,0.172c-0.58,0-0.868-0.271-0.868-0.812
		c0-0.054,0.012-0.13,0.039-0.229c0.027-0.098,0.041-0.168,0.041-0.211c0-0.553-0.027-1.373-0.08-2.461
		c-0.056-1.09-0.082-1.904-0.082-2.446c0-0.487,0.293-0.729,0.877-0.729c0.348,0,0.586,0.103,0.715,0.309
		c0.305-0.336,0.646-0.504,1.023-0.504c0.262,0,0.51,0.07,0.748,0.211c0.162,0.087,0.352,0.272,0.568,0.561
		C167.868,36.378,167.979,36.602,167.979,36.764z"/>
	<path fill="#444445" d="M172.344,36.536c0,0.292-0.443,0.498-1.332,0.616c-0.021,0.238-0.033,0.781-0.033,1.625v1.072
		c0,0.217,0.033,0.537,0.099,0.959c0.063,0.424,0.098,0.737,0.098,0.942c0,0.174-0.087,0.328-0.261,0.464
		c-0.173,0.135-0.348,0.203-0.52,0.203c-0.271,0-0.498-0.232-0.684-0.699c-0.141-0.357-0.211-0.703-0.211-1.039v-3.445
		c-0.499-0.075-0.786-0.125-0.861-0.146c-0.281-0.087-0.423-0.212-0.423-0.374c0-0.043,0.011-0.092,0.033-0.146
		c0.281-0.4,0.595-0.603,0.942-0.603c0.021,0,0.054,0,0.097,0c0.044,0.013,0.076,0.017,0.099,0.017c0.228,0,0.336-0.266,0.324-0.795
		V34c-0.055-0.119-0.081-0.223-0.081-0.309c0-0.142,0.083-0.27,0.249-0.383c0.167-0.113,0.325-0.17,0.475-0.17
		c0.227,0,0.44,0.104,0.646,0.316c0.203,0.211,0.306,0.436,0.306,0.674c0,0.26-0.041,0.518-0.121,0.771
		c-0.082,0.254-0.117,0.518-0.105,0.789v0.063C171.921,35.843,172.344,36.104,172.344,36.536z"/>
	<path fill="#444445" d="M181.752,39.591c0,1.397-0.043,2.384-0.13,2.958c-0.054,0.335-0.281,0.504-0.683,0.504
		c-0.606,0-0.877-0.304-0.812-0.91c-0.541,0.26-1.104,0.391-1.689,0.391c-0.562,0-1.1-0.141-1.608-0.424
		c-0.606-0.334-0.909-0.764-0.909-1.282c0-0.509,0.348-0.985,1.04-1.431c0.628-0.4,1.22-0.602,1.771-0.602h1.383v-0.387
		c0.011-1.129-0.325-1.693-1.008-1.693c-0.855,0-1.283,0.396-1.283,1.189c0,0.269-0.152,0.402-0.455,0.402
		c-0.186,0-0.377-0.084-0.577-0.252c-0.201-0.168-0.301-0.344-0.301-0.527c0-0.606,0.217-1.105,0.649-1.495
		c0.434-0.39,0.953-0.585,1.561-0.585C180.734,35.447,181.752,36.828,181.752,39.591z M180.111,40.176
		c0-0.217-0.163-0.324-0.487-0.324c-1.354,0-2.031,0.319-2.031,0.959c0,0.347,0.298,0.521,0.894,0.521
		c0.369,0,0.716-0.104,1.041-0.31C179.916,40.794,180.111,40.512,180.111,40.176z"/>
	<path fill="#444445" d="M191.389,42.24c-0.162,0.249-0.363,0.373-0.602,0.373c-0.184,0-0.487-0.108-0.909-0.325v-0.194
		c0-0.238,0.005-0.591,0.017-1.057c0.01-0.467,0.017-0.807,0.017-1.023c0-2.318-0.345-3.478-1.034-3.478
		c-0.193,0-0.415,0.151-0.662,0.455c-0.766,0.932-1.146,2.053-1.146,3.362c0,0.186,0.035,0.459,0.104,0.821
		c0.07,0.362,0.104,0.636,0.104,0.82c0,0.151-0.069,0.276-0.211,0.374c-0.141,0.097-0.293,0.146-0.455,0.146
		c-0.649,0-0.975-0.412-0.975-1.234v-3.396c0-0.087,0.01-0.214,0.032-0.382c0.021-0.168,0.032-0.295,0.032-0.382
		c0-0.13-0.02-0.319-0.057-0.568c-0.039-0.25-0.058-0.434-0.058-0.553c0-0.174,0.101-0.339,0.3-0.496
		c0.201-0.156,0.383-0.234,0.545-0.234c0.238,0,0.481,0.135,0.731,0.405l-0.05,0.65c0.4-0.64,0.895-0.959,1.479-0.959
		c0.38,0,0.78,0.13,1.202,0.39c0.423,0.26,0.73,0.553,0.928,0.878c0.443,0.823,0.666,1.906,0.666,3.25V42.24L191.389,42.24z"/>
	<path fill="#444445" d="M197.836,40.924c0,0.542-0.368,0.965-1.104,1.268c-0.574,0.238-1.176,0.357-1.805,0.357
		c-1.669,0-2.503-0.947-2.503-2.844c0-0.78,0.188-1.646,0.569-2.602c0.465-1.17,1.027-1.754,1.689-1.754
		c0.596,0,1.236,0.266,1.926,0.797c0.688,0.529,1.031,1.082,1.031,1.656c0,0.715-0.32,1.283-0.959,1.706
		c-0.562,0.38-1.234,0.568-2.015,0.568c-0.151,0-0.396-0.093-0.731-0.275c0.043,1.029,0.348,1.544,0.91,1.544
		c0.477,0,0.944-0.136,1.405-0.406c0.46-0.271,0.756-0.406,0.886-0.406C197.604,40.533,197.836,40.663,197.836,40.924z
		 M196.064,37.854c0-0.271-0.078-0.528-0.235-0.772c-0.157-0.243-0.365-0.365-0.625-0.365c-0.356,0-0.634,0.157-0.829,0.472
		c-0.162,0.271-0.244,0.59-0.244,0.959c0,0.205,0.07,0.373,0.212,0.504c0.142,0.129,0.319,0.195,0.536,0.195
		C195.67,38.844,196.064,38.514,196.064,37.854z"/>
	<path fill="#444445" d="M206.854,37.316c0,0.975-0.179,1.981-0.535,3.021c-0.467,1.364-1.084,2.047-1.854,2.047
		c-0.726,0-1.326-0.449-1.804-1.349c-0.325,0.953-0.841,1.43-1.544,1.43c-0.899,0-1.555-0.616-1.967-1.852
		c-0.281-0.847-0.422-1.837-0.422-2.976c0-0.715,0.026-1.293,0.08-1.738c0.152-0.237,0.354-0.356,0.603-0.356
		c0.217,0,0.437,0.07,0.657,0.211c0.222,0.142,0.334,0.31,0.334,0.504c0,0.142-0.032,0.351-0.098,0.626
		c-0.064,0.276-0.099,0.484-0.099,0.625c0,2.385,0.251,3.575,0.751,3.575c0.521,0,0.861-0.66,1.021-1.981
		c0.054-0.498,0.08-1.371,0.08-2.617c0-0.41,0.237-0.616,0.715-0.616c0.531,0,0.797,0.298,0.797,0.894
		c0,0.055-0.006,0.131-0.018,0.229c-0.011,0.098-0.016,0.168-0.016,0.211v1.836c0,1.365,0.249,2.048,0.747,2.048
		c0.423,0,0.741-0.498,0.959-1.495c0.161-0.693,0.243-1.369,0.243-2.031c0-0.562-0.026-0.894-0.082-0.99
		c-0.01-0.021-0.069-0.086-0.178-0.195c-0.064-0.086-0.099-0.167-0.099-0.243c0-0.194,0.087-0.37,0.261-0.528
		c0.174-0.156,0.357-0.234,0.553-0.234c0.293,0,0.524,0.26,0.699,0.779C206.784,36.547,206.854,36.938,206.854,37.316z"/>
	<path fill="#444445" d="M214.573,36.536c0,0.292-0.444,0.498-1.333,0.616c-0.021,0.238-0.032,0.781-0.032,1.625v1.072
		c0,0.217,0.032,0.537,0.099,0.959c0.063,0.424,0.098,0.737,0.098,0.942c0,0.174-0.088,0.328-0.262,0.464
		c-0.172,0.135-0.347,0.203-0.52,0.203c-0.271,0-0.498-0.232-0.684-0.699c-0.141-0.357-0.211-0.703-0.211-1.039v-3.445
		c-0.498-0.075-0.785-0.125-0.86-0.146c-0.282-0.087-0.423-0.212-0.423-0.374c0-0.043,0.011-0.092,0.033-0.146
		c0.28-0.4,0.595-0.603,0.941-0.603c0.021,0,0.055,0,0.098,0c0.043,0.013,0.076,0.017,0.098,0.017c0.229,0,0.336-0.266,0.324-0.795
		V34c-0.055-0.119-0.08-0.223-0.08-0.309c0-0.142,0.082-0.27,0.248-0.383c0.168-0.113,0.326-0.17,0.476-0.17
		c0.226,0,0.44,0.104,0.646,0.316c0.203,0.211,0.306,0.436,0.306,0.674c0,0.26-0.041,0.518-0.122,0.771s-0.116,0.518-0.105,0.789
		v0.063C214.15,35.843,214.573,36.104,214.573,36.536z"/>
	<path fill="#444445" d="M219.609,36.764c0,0.076-0.01,0.195-0.031,0.357c-0.229,0.324-0.467,0.486-0.715,0.486
		c-0.206,0-0.391-0.118-0.553-0.356c-0.021-0.487-0.195-0.731-0.521-0.731c-0.193,0-0.434,0.516-0.715,1.545
		c-0.131,0.455-0.194,1.088-0.194,1.9c0,0.77,0.035,1.235,0.104,1.396c0.082,0.207,0.123,0.348,0.123,0.424
		c0,0.184-0.084,0.333-0.25,0.445c-0.166,0.115-0.353,0.172-0.555,0.172c-0.58,0-0.869-0.271-0.869-0.812
		c0-0.054,0.012-0.13,0.039-0.229c0.027-0.098,0.041-0.168,0.041-0.211c0-0.553-0.027-1.373-0.08-2.461
		c-0.056-1.09-0.082-1.904-0.082-2.446c0-0.487,0.293-0.729,0.877-0.729c0.348,0,0.586,0.103,0.715,0.309
		c0.305-0.336,0.646-0.504,1.023-0.504c0.262,0,0.51,0.07,0.748,0.211c0.162,0.087,0.352,0.272,0.568,0.561
		C219.499,36.378,219.609,36.602,219.609,36.764z"/>
	<path fill="#444445" d="M225.363,40.924c0,0.542-0.368,0.965-1.104,1.268c-0.573,0.238-1.176,0.357-1.804,0.357
		c-1.669,0-2.503-0.947-2.503-2.844c0-0.78,0.188-1.646,0.569-2.602c0.465-1.17,1.027-1.754,1.688-1.754
		c0.597,0,1.237,0.266,1.926,0.797c0.688,0.529,1.032,1.082,1.032,1.656c0,0.715-0.32,1.283-0.959,1.706
		c-0.562,0.38-1.234,0.568-2.016,0.568c-0.151,0-0.396-0.093-0.73-0.275c0.043,1.029,0.348,1.544,0.91,1.544
		c0.477,0,0.943-0.136,1.404-0.406c0.461-0.271,0.757-0.406,0.887-0.406C225.131,40.533,225.363,40.663,225.363,40.924z
		 M223.593,37.854c0-0.271-0.079-0.528-0.235-0.772c-0.157-0.243-0.365-0.365-0.625-0.365c-0.357,0-0.635,0.157-0.83,0.472
		c-0.161,0.271-0.243,0.59-0.243,0.959c0,0.205,0.069,0.373,0.212,0.504c0.141,0.129,0.318,0.195,0.536,0.195
		C223.197,38.844,223.593,38.514,223.593,37.854z"/>
	<path fill="#444445" d="M231.538,40.924c0,0.542-0.368,0.965-1.104,1.268c-0.574,0.238-1.176,0.357-1.804,0.357
		c-1.669,0-2.503-0.947-2.503-2.844c0-0.78,0.189-1.646,0.568-2.602c0.466-1.17,1.029-1.754,1.689-1.754
		c0.596,0,1.237,0.266,1.926,0.797c0.688,0.529,1.032,1.082,1.032,1.656c0,0.715-0.319,1.283-0.959,1.706
		c-0.563,0.38-1.235,0.568-2.015,0.568c-0.152,0-0.396-0.093-0.73-0.275c0.043,1.029,0.346,1.544,0.909,1.544
		c0.478,0,0.944-0.136,1.405-0.406c0.46-0.271,0.756-0.406,0.886-0.406C231.307,40.533,231.538,40.663,231.538,40.924z
		 M229.768,37.854c0-0.271-0.078-0.528-0.235-0.772c-0.157-0.243-0.365-0.365-0.625-0.365c-0.357,0-0.634,0.157-0.829,0.472
		c-0.162,0.271-0.244,0.59-0.244,0.959c0,0.205,0.07,0.373,0.212,0.504c0.142,0.129,0.319,0.195,0.536,0.195
		C229.372,38.844,229.768,38.514,229.768,37.854z"/>
</g>
<line fill="none" stroke="#444445" stroke-linecap="round" stroke-miterlimit="10" x1="154" y1="20.49" x2="154" y2="1.19"/>
<rect x="75.961" y="-0.009" fill="none" width="156.078" height="48.018"/>
<path fill="#444445" d="M158.8,8.028c-0.231,0.147-0.542,0.08-0.69-0.153L154,1.422l-4.109,6.453
	c-0.149,0.233-0.458,0.301-0.691,0.153c-0.232-0.148-0.299-0.459-0.153-0.69l4.531-7.115c0.092-0.144,0.251-0.231,0.422-0.231
	s0.329,0.088,0.422,0.231l4.53,7.115c0.054,0.083,0.077,0.176,0.077,0.269C159.029,7.771,158.948,7.932,158.8,8.028"/>
</svg>
