<?xml version="1.0" encoding="utf-8"?>
<!-- Generator: Adobe Illustrator 16.0.0, SVG Export Plug-In . SVG Version: 6.00 Build 0)  -->
<!DOCTYPE svg PUBLIC "-//W3C//DTD SVG 1.1//EN" "http://www.w3.org/Graphics/SVG/1.1/DTD/svg11.dtd">
<svg version="1.1" id="Layer_1" xmlns="http://www.w3.org/2000/svg" xmlns:xlink="http://www.w3.org/1999/xlink" x="0px" y="0px"
	 width="98px" height="24px" viewBox="0 0 98 24" enable-background="new 0 0 98 24" xml:space="preserve">
<g>
	<path fill="none" stroke="#000000" stroke-width="0.0608" stroke-miterlimit="2.6131" d="M32.34,17.529"/>
	<path fill-rule="evenodd" clip-rule="evenodd" fill="#006FB5" d="M4.488,12.537l-0.692,4.037H0L2.011,4.995h5.471
		c0.845,0,1.562,0.051,2.146,0.151c0.584,0.104,1.061,0.259,1.431,0.468c0.372,0.208,0.639,0.468,0.803,0.779
		c0.169,0.312,0.252,0.68,0.252,1.109c0,0.225-0.026,0.489-0.082,0.789c-0.116,0.664-0.375,1.257-0.78,1.778
		c-0.4,0.519-0.955,0.869-1.663,1.051c0.234,0.088,0.448,0.176,0.636,0.268c0.188,0.092,0.349,0.205,0.484,0.346
		c0.132,0.141,0.236,0.311,0.311,0.516c0.076,0.203,0.114,0.465,0.114,0.787c0,0.332-0.038,0.717-0.114,1.156
		c-0.074,0.408-0.133,0.748-0.175,1.014c-0.045,0.27-0.065,0.479-0.065,0.629c0,0.258,0.096,0.385,0.29,0.385l-0.05,0.354H7.174
		c-0.021-0.107-0.032-0.23-0.032-0.367c0-0.186,0.014-0.416,0.04-0.703c0.027-0.281,0.074-0.602,0.138-0.955
		c0.064-0.355,0.097-0.654,0.097-0.9c0-0.408-0.126-0.693-0.379-0.863c-0.252-0.164-0.716-0.248-1.391-0.248H4.488z M4.938,9.998
		h1.495c0.59,0,1.052-0.082,1.384-0.242C8.15,9.595,8.349,9.311,8.412,8.902C8.424,8.85,8.43,8.77,8.43,8.662
		c0-0.332-0.124-0.576-0.37-0.732C7.813,7.775,7.491,7.697,7.092,7.697H5.324L4.938,9.998z"/>
	<path fill-rule="evenodd" clip-rule="evenodd" fill="#006FB5" d="M17.44,8.146h3.056l-0.226,1.319
		c0.474-0.515,0.95-0.901,1.431-1.165c0.485-0.264,1.048-0.395,1.69-0.395c0.944,0,1.637,0.221,2.075,0.658
		c0.439,0.439,0.658,1.079,0.658,1.915c0,0.332-0.03,0.681-0.095,1.046l-0.868,5.049h-3.346l0.772-4.453
		c0.03-0.193,0.05-0.381,0.05-0.564c0-0.289-0.069-0.531-0.205-0.723c-0.133-0.194-0.383-0.291-0.747-0.291
		c-0.514,0-0.891,0.153-1.125,0.459c-0.237,0.305-0.399,0.732-0.483,1.279l-0.739,4.293h-3.347L17.44,8.146z"/>
	<path fill-rule="evenodd" clip-rule="evenodd" fill="#006FB5" d="M29.256,16.805v0.049c0,0.117,0.05,0.223,0.146,0.322
		c0.116,0.139,0.348,0.207,0.69,0.207c0.482,0,0.845-0.123,1.095-0.369c0.245-0.246,0.422-0.67,0.53-1.271l0.128-0.691
		c-0.278,0.246-0.624,0.461-1.037,0.645c-0.412,0.182-0.926,0.271-1.536,0.271c-0.504,0-0.946-0.08-1.328-0.24
		c-0.379-0.16-0.697-0.381-0.955-0.658c-0.258-0.279-0.452-0.611-0.58-0.998s-0.192-0.797-0.192-1.238
		c0-0.139,0.01-0.279,0.024-0.418c0.016-0.141,0.032-0.283,0.056-0.436c0.086-0.514,0.238-1.027,0.458-1.543
		c0.219-0.515,0.515-0.973,0.885-1.375s0.814-0.729,1.335-0.982c0.521-0.251,1.128-0.377,1.826-0.377
		c0.515,0,0.973,0.123,1.373,0.366c0.404,0.245,0.723,0.571,0.96,0.976l0.177-1.101h2.943l-1.175,6.788
		c-0.108,0.631-0.244,1.221-0.41,1.768s-0.433,1.023-0.797,1.432c-0.365,0.408-0.862,0.729-1.496,0.959
		c-0.633,0.229-1.469,0.344-2.509,0.344c-0.729,0-1.344-0.064-1.85-0.193c-0.504-0.129-0.912-0.299-1.223-0.512
		c-0.311-0.217-0.538-0.463-0.684-0.744c-0.145-0.275-0.217-0.566-0.217-0.867v-0.111H29.256z M31.251,10.081
		c-0.246,0-0.462,0.048-0.644,0.146c-0.183,0.098-0.339,0.232-0.467,0.404c-0.13,0.172-0.233,0.377-0.312,0.613
		c-0.08,0.238-0.146,0.49-0.186,0.76c-0.012,0.074-0.019,0.146-0.024,0.209c-0.006,0.066-0.008,0.131-0.008,0.193
		c0,0.336,0.084,0.625,0.248,0.867c0.168,0.242,0.437,0.369,0.814,0.379h0.08c0.234,0,0.446-0.049,0.635-0.146
		c0.188-0.096,0.348-0.227,0.483-0.387c0.133-0.162,0.244-0.348,0.33-0.559c0.083-0.209,0.15-0.428,0.192-0.654
		c0.03-0.172,0.047-0.35,0.047-0.533c0-0.355-0.085-0.66-0.257-0.912s-0.474-0.38-0.9-0.38H31.251z"/>
	<path fill-rule="evenodd" clip-rule="evenodd" fill="#FF8B00" d="M44.096,9.519c0-0.04,0.002-0.075,0.008-0.107
		c0.006-0.028,0.008-0.065,0.008-0.105c0-0.507-0.146-0.897-0.436-1.171c-0.288-0.273-0.696-0.41-1.223-0.41
		c-0.639,0-1.183,0.266-1.627,0.798c-0.446,0.533-0.761,1.332-0.944,2.395c-0.04,0.204-0.07,0.399-0.09,0.587
		c-0.021,0.188-0.03,0.367-0.03,0.539c0,0.266,0.027,0.508,0.082,0.73c0.056,0.223,0.153,0.418,0.29,0.586
		c0.138,0.166,0.316,0.299,0.54,0.395c0.224,0.098,0.508,0.145,0.851,0.145c0.578,0,1.041-0.176,1.393-0.533
		c0.351-0.354,0.606-0.793,0.769-1.322h3.452c-0.204,0.711-0.495,1.344-0.875,1.902c-0.38,0.557-0.831,1.031-1.354,1.422
		c-0.521,0.391-1.104,0.689-1.747,0.896c-0.645,0.207-1.326,0.311-2.047,0.311c-0.791,0-1.489-0.1-2.098-0.303
		c-0.609-0.203-1.124-0.496-1.546-0.883c-0.419-0.385-0.74-0.855-0.957-1.406c-0.22-0.553-0.326-1.178-0.326-1.879
		c0-0.201,0.01-0.412,0.03-0.631c0.02-0.217,0.05-0.441,0.092-0.676c0.152-0.881,0.429-1.678,0.835-2.389
		c0.406-0.71,0.898-1.312,1.477-1.809c0.578-0.498,1.223-0.881,1.938-1.15c0.715-0.268,1.453-0.401,2.213-0.401
		c1.592,0,2.78,0.35,3.566,1.05c0.786,0.699,1.179,1.688,1.179,2.965c0,0.08,0,0.157,0,0.229s-0.006,0.146-0.015,0.228H44.096z"/>
	<path fill-rule="evenodd" clip-rule="evenodd" fill="#FF8B00" d="M51.001,12.877c-0.01,0.051-0.018,0.107-0.022,0.16
		c-0.006,0.053-0.009,0.107-0.009,0.162c0,0.408,0.134,0.73,0.401,0.971c0.269,0.242,0.603,0.363,0.997,0.363
		c0.269,0,0.526-0.062,0.772-0.186s0.45-0.307,0.61-0.555h3.201c-0.234,0.525-0.544,0.963-0.923,1.32
		c-0.382,0.352-0.802,0.639-1.265,0.859c-0.462,0.219-0.946,0.375-1.454,0.467c-0.511,0.092-1.011,0.135-1.505,0.135
		c-0.602,0-1.152-0.074-1.657-0.225c-0.504-0.148-0.937-0.375-1.301-0.676c-0.366-0.299-0.649-0.666-0.854-1.102
		c-0.204-0.434-0.306-0.934-0.306-1.504c0-0.141,0.009-0.283,0.023-0.426c0.016-0.146,0.035-0.291,0.058-0.443
		c0.118-0.686,0.348-1.311,0.69-1.873c0.344-0.562,0.765-1.039,1.263-1.431c0.5-0.392,1.057-0.694,1.673-0.909
		c0.618-0.215,1.263-0.32,1.938-0.32c0.675,0,1.273,0.096,1.793,0.288c0.521,0.192,0.959,0.462,1.312,0.804
		c0.353,0.344,0.621,0.763,0.803,1.256c0.184,0.492,0.274,1.035,0.274,1.625c0,0.365-0.044,0.777-0.13,1.238H51.001z M54.331,11.172
		c0.012-0.055,0.016-0.135,0.016-0.241c0-0.345-0.118-0.634-0.353-0.869c-0.235-0.235-0.531-0.353-0.886-0.353
		c-0.504,0-0.91,0.129-1.221,0.393c-0.312,0.264-0.511,0.619-0.596,1.07H54.331z"/>
	<path fill-rule="evenodd" clip-rule="evenodd" fill="#FF8B00" d="M58.601,8.146h3.056l-0.226,1.319
		c0.472-0.515,0.95-0.901,1.433-1.165c0.48-0.264,1.046-0.395,1.687-0.395c0.944,0,1.637,0.221,2.077,0.658
		c0.438,0.439,0.66,1.079,0.66,1.915c0,0.332-0.034,0.681-0.1,1.046l-0.865,5.049h-3.348l0.772-4.453
		c0.032-0.193,0.05-0.381,0.05-0.564c0-0.289-0.069-0.531-0.202-0.723c-0.134-0.194-0.384-0.291-0.748-0.291
		c-0.514,0-0.892,0.153-1.128,0.459c-0.234,0.305-0.395,0.732-0.482,1.279l-0.738,4.293h-3.346L58.601,8.146z"/>
	<path fill-rule="evenodd" clip-rule="evenodd" fill="#FF8B00" d="M72.508,16.512c-0.377,0.021-0.723,0.037-1.04,0.049
		c-0.314,0.01-0.606,0.014-0.875,0.014c-0.504,0-0.927-0.023-1.271-0.07c-0.343-0.049-0.618-0.135-0.822-0.258
		c-0.203-0.121-0.347-0.287-0.435-0.49c-0.084-0.201-0.128-0.461-0.128-0.771c0-0.193,0.015-0.41,0.042-0.652
		c0.026-0.24,0.064-0.508,0.12-0.797l0.612-3.521H67.52l0.323-1.931h1.237l0.467-2.623h3.297l-0.465,2.623h1.607l-0.322,1.931h-1.61
		l-0.528,3.067c-0.022,0.098-0.038,0.184-0.05,0.264c-0.012,0.082-0.015,0.154-0.015,0.219c0,0.205,0.064,0.35,0.192,0.438
		c0.13,0.086,0.37,0.127,0.726,0.127h0.529L72.508,16.512z"/>
	<path fill-rule="evenodd" clip-rule="evenodd" fill="#FF8B00" d="M74.675,8.146h3.043l-0.293,1.705h0.035
		c0.673-1.297,1.648-1.945,2.926-1.945c0.074,0,0.146,0.006,0.218,0.016c0.068,0.011,0.144,0.022,0.217,0.032l-0.597,3.347
		c-0.104-0.021-0.215-0.043-0.328-0.066c-0.112-0.02-0.229-0.031-0.347-0.031c-0.685,0-1.229,0.184-1.631,0.547
		c-0.403,0.365-0.686,1.004-0.846,1.914l-0.498,2.91h-3.348L74.675,8.146z"/>
	<path fill-rule="evenodd" clip-rule="evenodd" fill="#FF8B00" d="M85.298,16.594l-0.02-1.16c-0.546,0.449-1.085,0.754-1.617,0.908
		c-0.528,0.154-1.112,0.232-1.744,0.232c-0.354,0-0.694-0.039-1.013-0.119c-0.322-0.08-0.601-0.205-0.837-0.379
		c-0.238-0.17-0.425-0.381-0.564-0.635c-0.138-0.25-0.208-0.555-0.208-0.908c0-0.15,0.015-0.316,0.05-0.498
		c0.106-0.635,0.339-1.129,0.697-1.49c0.361-0.357,0.778-0.627,1.256-0.811c0.475-0.184,0.98-0.309,1.512-0.379
		s1.025-0.133,1.479-0.193c0.455-0.059,0.843-0.137,1.157-0.24c0.316-0.103,0.496-0.287,0.54-0.555c0-0.021,0.002-0.041,0.008-0.057
		s0.008-0.035,0.008-0.055c0.001-0.131-0.039-0.232-0.113-0.307s-0.163-0.132-0.265-0.17c-0.102-0.037-0.21-0.064-0.328-0.081
		c-0.12-0.016-0.218-0.024-0.29-0.024c-0.12,0-0.244,0.009-0.38,0.024c-0.134,0.017-0.259,0.056-0.377,0.114
		c-0.118,0.06-0.228,0.143-0.331,0.249c-0.101,0.108-0.173,0.253-0.215,0.435h-3.218c0.076-0.452,0.225-0.85,0.45-1.199
		c0.225-0.348,0.545-0.645,0.957-0.885c0.414-0.24,0.92-0.426,1.521-0.555c0.599-0.13,1.319-0.191,2.155-0.191
		c0.761,0,1.387,0.051,1.874,0.152c0.488,0.102,0.869,0.249,1.149,0.442c0.279,0.192,0.472,0.423,0.578,0.69
		c0.108,0.269,0.162,0.569,0.162,0.902c0,0.201-0.014,0.412-0.04,0.625c-0.028,0.215-0.062,0.44-0.104,0.678l-0.678,3.939
		c-0.028,0.182-0.048,0.332-0.048,0.449c0,0.119,0.021,0.225,0.065,0.314c0.042,0.092,0.124,0.195,0.242,0.314l-0.014,0.42H85.298z
		 M83.751,14.676c0.287,0,0.544-0.051,0.765-0.158c0.22-0.107,0.404-0.254,0.553-0.445c0.151-0.186,0.268-0.406,0.355-0.658
		c0.086-0.252,0.145-0.521,0.176-0.812c-0.3,0.129-0.604,0.223-0.908,0.283c-0.306,0.059-0.59,0.123-0.854,0.193
		c-0.261,0.07-0.488,0.168-0.675,0.297c-0.188,0.127-0.303,0.324-0.345,0.596v0.096c0,0.184,0.076,0.33,0.232,0.443
		C83.205,14.623,83.439,14.676,83.751,14.676z"/>
	<polygon fill-rule="evenodd" clip-rule="evenodd" fill="#FF8B00" points="89.332,16.574 91.343,4.995 94.688,4.995 92.68,16.574 	
		"/>
	<polygon fill-rule="evenodd" clip-rule="evenodd" fill="#006FB5" points="11.646,16.574 13.528,9.734 15.952,9.734 14.976,16.574 	
		"/>
	<path fill-rule="evenodd" clip-rule="evenodd" fill="#FF8B00" d="M17.171,6.682c0,0,0,0-0.005-0.012
		c-0.01-0.014-0.025-0.041-0.048-0.072C17.07,6.533,16.99,6.44,16.876,6.337c-0.235-0.204-0.616-0.442-1.23-0.556
		c-0.304-0.054-0.564-0.057-0.79-0.034c-0.54,0.057-0.868,0.274-0.984,0.366c-0.04,0.027-0.046,0.034-0.046,0.034v0.001
		c-0.152,0.154-0.404,0.152-0.557-0.002c-0.154-0.154-0.154-0.404,0-0.559c0.038-0.037,0.542-0.525,1.507-0.626
		c0.296-0.031,0.634-0.025,1.009,0.043c1.532,0.271,2.066,1.257,2.093,1.319l0,0c0.1,0.195,0.021,0.434-0.175,0.533
		c-0.043,0.021-0.09,0.033-0.138,0.039C17.408,6.912,17.248,6.833,17.171,6.682z"/>
	<path fill-rule="evenodd" clip-rule="evenodd" fill="#FF8B00" d="M16.189,7.58c-0.002,0.002,0-0.001-0.023-0.035
		C16.14,7.513,16.1,7.462,16.034,7.406c-0.126-0.111-0.337-0.244-0.687-0.309c-0.172-0.032-0.318-0.033-0.44-0.021
		c-0.3,0.032-0.479,0.151-0.54,0.197C14.35,7.289,14.35,7.29,14.35,7.29c-0.127,0.128-0.335,0.13-0.465,0
		c-0.13-0.129-0.13-0.337,0-0.466c0.032-0.033,0.351-0.338,0.954-0.402c0.183-0.02,0.395-0.014,0.625,0.027V6.448
		c0.948,0.171,1.292,0.784,1.314,0.837c0.08,0.161,0.016,0.36-0.146,0.441c-0.036,0.019-0.076,0.031-0.114,0.033
		C16.386,7.775,16.252,7.707,16.189,7.58z"/>
	<path fill-rule="evenodd" clip-rule="evenodd" fill="#FF8B00" d="M15.908,8.389c-0.003,0.406-0.387,0.732-0.858,0.73
		c-0.475-0.003-0.854-0.334-0.854-0.736c0.002-0.407,0.386-0.733,0.86-0.732C15.527,7.653,15.91,7.986,15.908,8.389"/>
	<g>
		<path fill="#FF8B00" d="M95.928,5.479h0.705c0.32,0,0.486,0.147,0.486,0.397c0,0.282-0.197,0.355-0.245,0.371v0.004
			c0.088,0.013,0.22,0.078,0.22,0.312c0,0.17,0.025,0.326,0.08,0.387h-0.276c-0.04-0.064-0.04-0.145-0.04-0.217
			c0-0.27-0.054-0.39-0.292-0.39h-0.38v0.606h-0.258V5.479z M96.186,6.149h0.424c0.162,0,0.25-0.08,0.25-0.235
			c0-0.188-0.12-0.225-0.256-0.225h-0.418V6.149z"/>
	</g>
	<path fill="#FF8B00" d="M96.478,7.81c-0.84,0-1.522-0.682-1.522-1.521c0-0.84,0.683-1.521,1.522-1.521
		C97.316,4.768,98,5.449,98,6.289C98,7.128,97.316,7.81,96.478,7.81L96.478,7.81z M96.478,5.042c-0.687,0-1.247,0.56-1.247,1.247
		s0.561,1.246,1.247,1.246s1.248-0.559,1.248-1.246S97.164,5.042,96.478,5.042L96.478,5.042z"/>
</g>
</svg>
